  0
SECTION
  2
HEADER
  9
$ANGBASE
  50
0.0
  9
$ANGDIR
  70
1
  9
$MEASUREMENT
  70
1
  0
ENDSEC
  0
SECTION
  2
TABLES
  0
TABLE
  2
LTYPE
  70
4
  0
LTYPE
  5
40F
  2
CONTINUOUS
  70
0
  3
Solid line
  72
65
  73
0
  40
0.0
  0
LTYPE
  5
410
  2
DASHDOT
 70
0
  3
Dash Dot ____ _ ____ _
 72
65
 73
4
 40
2.0
 49
1.25
 49
-0.25
 49
0.25
 49
-0.25
  0
LTYPE
  5
411
  2
DASHED
 70
0
  3
Dashed __ __ __ __ __
 72
65
 73
2
 40
0.75
 49
0.5
 49
-0.25
  0
LTYPE
  5
43B
  2
DOTTED
 70
0
  3
Dotted .  .  .  .
 72
65
 73
2
 40
0.2
 49
0.0
 49
-0.2
  0
ENDTAB
  0
TABLE
  2
STYLE
  70
4
  0
STYLE
  2
KICAD
  70
0
  40
0
  41
1
  42
1
  50
0
  71
0
  3
isocp.shx
  0
STYLE
  2
KICADB
  70
0
  40
0
  41
1
  42
1
  50
0
  71
0
  3
isocp.shx
  0
STYLE
  2
KICADI
  70
0
  40
0
  41
1
  42
1
  50
15
  71
0
  3
isocp.shx
  0
STYLE
  2
KICADBI
  70
0
  40
0
  41
1
  42
1
  50
15
  71
0
  3
isocp.shx
  0
ENDTAB
  0
TABLE
  2
LAYER
  70
1
  0
LAYER
  2
BLACK
  70
0
  62
7
  6
CONTINUOUS
  0
ENDTAB
  0
ENDSEC
  0
SECTION
  2
ENTITIES
0
LINE
8
BLACK
6
CONTINUOUS
10
201
20
-93.25
11
201
21
-102
0
LINE
8
BLACK
6
CONTINUOUS
10
124
20
-93.25
11
124
21
-71
0
LINE
8
BLACK
6
CONTINUOUS
10
124
20
-71
11
201
21
-71
0
LINE
8
BLACK
6
CONTINUOUS
10
201
20
-102
11
194.75
21
-102
0
LINE
8
BLACK
6
CONTINUOUS
10
124
20
-102
11
130
21
-102
0
LINE
8
BLACK
6
CONTINUOUS
10
201
20
-71
11
201
21
-93.25
0
LINE
8
BLACK
6
CONTINUOUS
10
130
20
-102
11
130
21
-124.25
0
LINE
8
BLACK
6
CONTINUOUS
10
194.75
20
-124.25
11
130
21
-124.25
0
LINE
8
BLACK
6
CONTINUOUS
10
194.75
20
-102
11
194.75
21
-124.25
0
LINE
8
BLACK
6
CONTINUOUS
10
124
20
-102
11
124
21
-93.25
0
LINE
8
BLACK
6
CONTINUOUS
10
166.344
20
-98.0865
11
166.744
21
-98.4865
0
LINE
8
BLACK
6
CONTINUOUS
10
166.744
20
-98.0865
11
166.344
21
-98.4865
0
LINE
8
BLACK
6
CONTINUOUS
10
167.247
20
-99.0177
11
167.647
21
-99.4177
0
LINE
8
BLACK
6
CONTINUOUS
10
167.647
20
-99.0177
11
167.247
21
-99.4177
0
LINE
8
BLACK
6
CONTINUOUS
10
167.553
20
-101.433
11
167.953
21
-101.834
0
LINE
8
BLACK
6
CONTINUOUS
10
167.953
20
-101.433
11
167.553
21
-101.834
0
LINE
8
BLACK
6
CONTINUOUS
10
171.95
20
-84.3192
11
172.35
21
-84.7192
0
LINE
8
BLACK
6
CONTINUOUS
10
172.35
20
-84.3192
11
171.95
21
-84.7192
0
CIRCLE
8
BLACK
10
125.35
20
-75.8029
40
0.25
0
CIRCLE
8
BLACK
10
125.35
20
-97.85
40
0.25
0
CIRCLE
8
BLACK
10
126.053
20
-74.1058
40
0.25
0
CIRCLE
8
BLACK
10
126.053
20
-77.5
40
0.25
0
CIRCLE
8
BLACK
10
126.053
20
-96.1529
40
0.25
0
CIRCLE
8
BLACK
10
126.053
20
-99.5471
40
0.25
0
CIRCLE
8
BLACK
10
127.75
20
-73.4029
40
0.25
0
CIRCLE
8
BLACK
10
127.75
20
-78.2029
40
0.25
0
CIRCLE
8
BLACK
10
127.75
20
-95.45
40
0.25
0
CIRCLE
8
BLACK
10
127.75
20
-100.25
40
0.25
0
CIRCLE
8
BLACK
10
129.447
20
-74.1058
40
0.25
0
CIRCLE
8
BLACK
10
129.447
20
-77.5
40
0.25
0
CIRCLE
8
BLACK
10
129.447
20
-96.1529
40
0.25
0
CIRCLE
8
BLACK
10
129.447
20
-99.5471
40
0.25
0
CIRCLE
8
BLACK
10
130.15
20
-75.8029
40
0.25
0
CIRCLE
8
BLACK
10
130.15
20
-97.85
40
0.25
0
CIRCLE
8
BLACK
10
194.85
20
-75.85
40
0.25
0
CIRCLE
8
BLACK
10
194.85
20
-97.85
40
0.25
0
CIRCLE
8
BLACK
10
195.553
20
-74.1529
40
0.25
0
CIRCLE
8
BLACK
10
195.553
20
-77.5471
40
0.25
0
CIRCLE
8
BLACK
10
195.553
20
-96.1529
40
0.25
0
CIRCLE
8
BLACK
10
195.553
20
-99.5471
40
0.25
0
CIRCLE
8
BLACK
10
197.25
20
-73.45
40
0.25
0
CIRCLE
8
BLACK
10
197.25
20
-78.25
40
0.25
0
CIRCLE
8
BLACK
10
197.25
20
-95.45
40
0.25
0
CIRCLE
8
BLACK
10
197.25
20
-100.25
40
0.25
0
CIRCLE
8
BLACK
10
198.947
20
-74.1529
40
0.25
0
CIRCLE
8
BLACK
10
198.947
20
-77.5471
40
0.25
0
CIRCLE
8
BLACK
10
198.947
20
-96.1529
40
0.25
0
CIRCLE
8
BLACK
10
198.947
20
-99.5471
40
0.25
0
CIRCLE
8
BLACK
10
199.65
20
-75.85
40
0.25
0
CIRCLE
8
BLACK
10
199.65
20
-97.85
40
0.25
0
LINE
8
BLACK
6
CONTINUOUS
10
128.5
20
-86.2
11
128.5
21
-86.8
0
LINE
8
BLACK
6
CONTINUOUS
10
128.2
20
-86.5
11
128.8
21
-86.5
0
LINE
8
BLACK
6
CONTINUOUS
10
130.5
20
-86.2
11
130.5
21
-86.8
0
LINE
8
BLACK
6
CONTINUOUS
10
130.2
20
-86.5
11
130.8
21
-86.5
0
LINE
8
BLACK
6
CONTINUOUS
10
128.533
20
-92.0328
11
128.533
21
-91.4672
0
LINE
8
BLACK
6
CONTINUOUS
10
128.533
20
-91.4672
11
127.967
21
-91.4672
0
LINE
8
BLACK
6
CONTINUOUS
10
127.967
20
-91.4672
11
127.967
21
-92.0328
0
LINE
8
BLACK
6
CONTINUOUS
10
127.967
20
-92.0328
11
128.533
21
-92.0328
0
LINE
8
BLACK
6
CONTINUOUS
10
131.033
20
-92.0328
11
131.033
21
-91.4672
0
LINE
8
BLACK
6
CONTINUOUS
10
131.033
20
-91.4672
11
130.467
21
-91.4672
0
LINE
8
BLACK
6
CONTINUOUS
10
130.467
20
-91.4672
11
130.467
21
-92.0328
0
LINE
8
BLACK
6
CONTINUOUS
10
130.467
20
-92.0328
11
131.033
21
-92.0328
0
LINE
8
BLACK
6
CONTINUOUS
10
131.88
20
-104.42
11
132.38
21
-103.92
0
LINE
8
BLACK
6
CONTINUOUS
10
132.38
20
-103.92
11
131.88
21
-103.42
0
LINE
8
BLACK
6
CONTINUOUS
10
131.88
20
-103.42
11
131.38
21
-103.92
0
LINE
8
BLACK
6
CONTINUOUS
10
131.38
20
-103.92
11
131.88
21
-104.42
0
LINE
8
BLACK
6
CONTINUOUS
10
131.88
20
-109.5
11
132.38
21
-109
0
LINE
8
BLACK
6
CONTINUOUS
10
132.38
20
-109
11
131.88
21
-108.5
0
LINE
8
BLACK
6
CONTINUOUS
10
131.88
20
-108.5
11
131.38
21
-109
0
LINE
8
BLACK
6
CONTINUOUS
10
131.38
20
-109
11
131.88
21
-109.5
0
LINE
8
BLACK
6
CONTINUOUS
10
134.42
20
-104.42
11
134.92
21
-103.92
0
LINE
8
BLACK
6
CONTINUOUS
10
134.92
20
-103.92
11
134.42
21
-103.42
0
LINE
8
BLACK
6
CONTINUOUS
10
134.42
20
-103.42
11
133.92
21
-103.92
0
LINE
8
BLACK
6
CONTINUOUS
10
133.92
20
-103.92
11
134.42
21
-104.42
0
LINE
8
BLACK
6
CONTINUOUS
10
134.42
20
-109.5
11
134.92
21
-109
0
LINE
8
BLACK
6
CONTINUOUS
10
134.92
20
-109
11
134.42
21
-108.5
0
LINE
8
BLACK
6
CONTINUOUS
10
134.42
20
-108.5
11
133.92
21
-109
0
LINE
8
BLACK
6
CONTINUOUS
10
133.92
20
-109
11
134.42
21
-109.5
0
LINE
8
BLACK
6
CONTINUOUS
10
135.72
20
-86.92
11
136.22
21
-86.42
0
LINE
8
BLACK
6
CONTINUOUS
10
136.22
20
-86.42
11
135.72
21
-85.92
0
LINE
8
BLACK
6
CONTINUOUS
10
135.72
20
-85.92
11
135.22
21
-86.42
0
LINE
8
BLACK
6
CONTINUOUS
10
135.22
20
-86.42
11
135.72
21
-86.92
0
LINE
8
BLACK
6
CONTINUOUS
10
135.72
20
-92
11
136.22
21
-91.5
0
LINE
8
BLACK
6
CONTINUOUS
10
136.22
20
-91.5
11
135.72
21
-91
0
LINE
8
BLACK
6
CONTINUOUS
10
135.72
20
-91
11
135.22
21
-91.5
0
LINE
8
BLACK
6
CONTINUOUS
10
135.22
20
-91.5
11
135.72
21
-92
0
LINE
8
BLACK
6
CONTINUOUS
10
136.96
20
-104.42
11
137.46
21
-103.92
0
LINE
8
BLACK
6
CONTINUOUS
10
137.46
20
-103.92
11
136.96
21
-103.42
0
LINE
8
BLACK
6
CONTINUOUS
10
136.96
20
-103.42
11
136.46
21
-103.92
0
LINE
8
BLACK
6
CONTINUOUS
10
136.46
20
-103.92
11
136.96
21
-104.42
0
LINE
8
BLACK
6
CONTINUOUS
10
136.96
20
-109.5
11
137.46
21
-109
0
LINE
8
BLACK
6
CONTINUOUS
10
137.46
20
-109
11
136.96
21
-108.5
0
LINE
8
BLACK
6
CONTINUOUS
10
136.96
20
-108.5
11
136.46
21
-109
0
LINE
8
BLACK
6
CONTINUOUS
10
136.46
20
-109
11
136.96
21
-109.5
0
LINE
8
BLACK
6
CONTINUOUS
10
138.26
20
-86.92
11
138.76
21
-86.42
0
LINE
8
BLACK
6
CONTINUOUS
10
138.76
20
-86.42
11
138.26
21
-85.92
0
LINE
8
BLACK
6
CONTINUOUS
10
138.26
20
-85.92
11
137.76
21
-86.42
0
LINE
8
BLACK
6
CONTINUOUS
10
137.76
20
-86.42
11
138.26
21
-86.92
0
LINE
8
BLACK
6
CONTINUOUS
10
138.26
20
-92
11
138.76
21
-91.5
0
LINE
8
BLACK
6
CONTINUOUS
10
138.76
20
-91.5
11
138.26
21
-91
0
LINE
8
BLACK
6
CONTINUOUS
10
138.26
20
-91
11
137.76
21
-91.5
0
LINE
8
BLACK
6
CONTINUOUS
10
137.76
20
-91.5
11
138.26
21
-92
0
LINE
8
BLACK
6
CONTINUOUS
10
139.5
20
-104.42
11
140
21
-103.92
0
LINE
8
BLACK
6
CONTINUOUS
10
140
20
-103.92
11
139.5
21
-103.42
0
LINE
8
BLACK
6
CONTINUOUS
10
139.5
20
-103.42
11
139
21
-103.92
0
LINE
8
BLACK
6
CONTINUOUS
10
139
20
-103.92
11
139.5
21
-104.42
0
LINE
8
BLACK
6
CONTINUOUS
10
139.5
20
-109.5
11
140
21
-109
0
LINE
8
BLACK
6
CONTINUOUS
10
140
20
-109
11
139.5
21
-108.5
0
LINE
8
BLACK
6
CONTINUOUS
10
139.5
20
-108.5
11
139
21
-109
0
LINE
8
BLACK
6
CONTINUOUS
10
139
20
-109
11
139.5
21
-109.5
0
LINE
8
BLACK
6
CONTINUOUS
10
140.8
20
-86.92
11
141.3
21
-86.42
0
LINE
8
BLACK
6
CONTINUOUS
10
141.3
20
-86.42
11
140.8
21
-85.92
0
LINE
8
BLACK
6
CONTINUOUS
10
140.8
20
-85.92
11
140.3
21
-86.42
0
LINE
8
BLACK
6
CONTINUOUS
10
140.3
20
-86.42
11
140.8
21
-86.92
0
LINE
8
BLACK
6
CONTINUOUS
10
140.8
20
-92
11
141.3
21
-91.5
0
LINE
8
BLACK
6
CONTINUOUS
10
141.3
20
-91.5
11
140.8
21
-91
0
LINE
8
BLACK
6
CONTINUOUS
10
140.8
20
-91
11
140.3
21
-91.5
0
LINE
8
BLACK
6
CONTINUOUS
10
140.3
20
-91.5
11
140.8
21
-92
0
LINE
8
BLACK
6
CONTINUOUS
10
142.04
20
-104.42
11
142.54
21
-103.92
0
LINE
8
BLACK
6
CONTINUOUS
10
142.54
20
-103.92
11
142.04
21
-103.42
0
LINE
8
BLACK
6
CONTINUOUS
10
142.04
20
-103.42
11
141.54
21
-103.92
0
LINE
8
BLACK
6
CONTINUOUS
10
141.54
20
-103.92
11
142.04
21
-104.42
0
LINE
8
BLACK
6
CONTINUOUS
10
142.04
20
-109.5
11
142.54
21
-109
0
LINE
8
BLACK
6
CONTINUOUS
10
142.54
20
-109
11
142.04
21
-108.5
0
LINE
8
BLACK
6
CONTINUOUS
10
142.04
20
-108.5
11
141.54
21
-109
0
LINE
8
BLACK
6
CONTINUOUS
10
141.54
20
-109
11
142.04
21
-109.5
0
LINE
8
BLACK
6
CONTINUOUS
10
143.34
20
-86.92
11
143.84
21
-86.42
0
LINE
8
BLACK
6
CONTINUOUS
10
143.84
20
-86.42
11
143.34
21
-85.92
0
LINE
8
BLACK
6
CONTINUOUS
10
143.34
20
-85.92
11
142.84
21
-86.42
0
LINE
8
BLACK
6
CONTINUOUS
10
142.84
20
-86.42
11
143.34
21
-86.92
0
LINE
8
BLACK
6
CONTINUOUS
10
143.34
20
-92
11
143.84
21
-91.5
0
LINE
8
BLACK
6
CONTINUOUS
10
143.84
20
-91.5
11
143.34
21
-91
0
LINE
8
BLACK
6
CONTINUOUS
10
143.34
20
-91
11
142.84
21
-91.5
0
LINE
8
BLACK
6
CONTINUOUS
10
142.84
20
-91.5
11
143.34
21
-92
0
LINE
8
BLACK
6
CONTINUOUS
10
144.58
20
-104.42
11
145.08
21
-103.92
0
LINE
8
BLACK
6
CONTINUOUS
10
145.08
20
-103.92
11
144.58
21
-103.42
0
LINE
8
BLACK
6
CONTINUOUS
10
144.58
20
-103.42
11
144.08
21
-103.92
0
LINE
8
BLACK
6
CONTINUOUS
10
144.08
20
-103.92
11
144.58
21
-104.42
0
LINE
8
BLACK
6
CONTINUOUS
10
144.58
20
-109.5
11
145.08
21
-109
0
LINE
8
BLACK
6
CONTINUOUS
10
145.08
20
-109
11
144.58
21
-108.5
0
LINE
8
BLACK
6
CONTINUOUS
10
144.58
20
-108.5
11
144.08
21
-109
0
LINE
8
BLACK
6
CONTINUOUS
10
144.08
20
-109
11
144.58
21
-109.5
0
LINE
8
BLACK
6
CONTINUOUS
10
145.88
20
-86.92
11
146.38
21
-86.42
0
LINE
8
BLACK
6
CONTINUOUS
10
146.38
20
-86.42
11
145.88
21
-85.92
0
LINE
8
BLACK
6
CONTINUOUS
10
145.88
20
-85.92
11
145.38
21
-86.42
0
LINE
8
BLACK
6
CONTINUOUS
10
145.38
20
-86.42
11
145.88
21
-86.92
0
LINE
8
BLACK
6
CONTINUOUS
10
145.88
20
-92
11
146.38
21
-91.5
0
LINE
8
BLACK
6
CONTINUOUS
10
146.38
20
-91.5
11
145.88
21
-91
0
LINE
8
BLACK
6
CONTINUOUS
10
145.88
20
-91
11
145.38
21
-91.5
0
LINE
8
BLACK
6
CONTINUOUS
10
145.38
20
-91.5
11
145.88
21
-92
0
LINE
8
BLACK
6
CONTINUOUS
10
147.12
20
-104.42
11
147.62
21
-103.92
0
LINE
8
BLACK
6
CONTINUOUS
10
147.62
20
-103.92
11
147.12
21
-103.42
0
LINE
8
BLACK
6
CONTINUOUS
10
147.12
20
-103.42
11
146.62
21
-103.92
0
LINE
8
BLACK
6
CONTINUOUS
10
146.62
20
-103.92
11
147.12
21
-104.42
0
LINE
8
BLACK
6
CONTINUOUS
10
147.12
20
-109.5
11
147.62
21
-109
0
LINE
8
BLACK
6
CONTINUOUS
10
147.62
20
-109
11
147.12
21
-108.5
0
LINE
8
BLACK
6
CONTINUOUS
10
147.12
20
-108.5
11
146.62
21
-109
0
LINE
8
BLACK
6
CONTINUOUS
10
146.62
20
-109
11
147.12
21
-109.5
0
LINE
8
BLACK
6
CONTINUOUS
10
148.42
20
-86.92
11
148.92
21
-86.42
0
LINE
8
BLACK
6
CONTINUOUS
10
148.92
20
-86.42
11
148.42
21
-85.92
0
LINE
8
BLACK
6
CONTINUOUS
10
148.42
20
-85.92
11
147.92
21
-86.42
0
LINE
8
BLACK
6
CONTINUOUS
10
147.92
20
-86.42
11
148.42
21
-86.92
0
LINE
8
BLACK
6
CONTINUOUS
10
148.42
20
-92
11
148.92
21
-91.5
0
LINE
8
BLACK
6
CONTINUOUS
10
148.92
20
-91.5
11
148.42
21
-91
0
LINE
8
BLACK
6
CONTINUOUS
10
148.42
20
-91
11
147.92
21
-91.5
0
LINE
8
BLACK
6
CONTINUOUS
10
147.92
20
-91.5
11
148.42
21
-92
0
LINE
8
BLACK
6
CONTINUOUS
10
149.66
20
-104.42
11
150.16
21
-103.92
0
LINE
8
BLACK
6
CONTINUOUS
10
150.16
20
-103.92
11
149.66
21
-103.42
0
LINE
8
BLACK
6
CONTINUOUS
10
149.66
20
-103.42
11
149.16
21
-103.92
0
LINE
8
BLACK
6
CONTINUOUS
10
149.16
20
-103.92
11
149.66
21
-104.42
0
LINE
8
BLACK
6
CONTINUOUS
10
149.66
20
-109.5
11
150.16
21
-109
0
LINE
8
BLACK
6
CONTINUOUS
10
150.16
20
-109
11
149.66
21
-108.5
0
LINE
8
BLACK
6
CONTINUOUS
10
149.66
20
-108.5
11
149.16
21
-109
0
LINE
8
BLACK
6
CONTINUOUS
10
149.16
20
-109
11
149.66
21
-109.5
0
LINE
8
BLACK
6
CONTINUOUS
10
150.96
20
-86.92
11
151.46
21
-86.42
0
LINE
8
BLACK
6
CONTINUOUS
10
151.46
20
-86.42
11
150.96
21
-85.92
0
LINE
8
BLACK
6
CONTINUOUS
10
150.96
20
-85.92
11
150.46
21
-86.42
0
LINE
8
BLACK
6
CONTINUOUS
10
150.46
20
-86.42
11
150.96
21
-86.92
0
LINE
8
BLACK
6
CONTINUOUS
10
150.96
20
-92
11
151.46
21
-91.5
0
LINE
8
BLACK
6
CONTINUOUS
10
151.46
20
-91.5
11
150.96
21
-91
0
LINE
8
BLACK
6
CONTINUOUS
10
150.96
20
-91
11
150.46
21
-91.5
0
LINE
8
BLACK
6
CONTINUOUS
10
150.46
20
-91.5
11
150.96
21
-92
0
LINE
8
BLACK
6
CONTINUOUS
10
152.2
20
-104.42
11
152.7
21
-103.92
0
LINE
8
BLACK
6
CONTINUOUS
10
152.7
20
-103.92
11
152.2
21
-103.42
0
LINE
8
BLACK
6
CONTINUOUS
10
152.2
20
-103.42
11
151.7
21
-103.92
0
LINE
8
BLACK
6
CONTINUOUS
10
151.7
20
-103.92
11
152.2
21
-104.42
0
LINE
8
BLACK
6
CONTINUOUS
10
152.2
20
-109.5
11
152.7
21
-109
0
LINE
8
BLACK
6
CONTINUOUS
10
152.7
20
-109
11
152.2
21
-108.5
0
LINE
8
BLACK
6
CONTINUOUS
10
152.2
20
-108.5
11
151.7
21
-109
0
LINE
8
BLACK
6
CONTINUOUS
10
151.7
20
-109
11
152.2
21
-109.5
0
LINE
8
BLACK
6
CONTINUOUS
10
153.5
20
-86.92
11
154
21
-86.42
0
LINE
8
BLACK
6
CONTINUOUS
10
154
20
-86.42
11
153.5
21
-85.92
0
LINE
8
BLACK
6
CONTINUOUS
10
153.5
20
-85.92
11
153
21
-86.42
0
LINE
8
BLACK
6
CONTINUOUS
10
153
20
-86.42
11
153.5
21
-86.92
0
LINE
8
BLACK
6
CONTINUOUS
10
153.5
20
-92
11
154
21
-91.5
0
LINE
8
BLACK
6
CONTINUOUS
10
154
20
-91.5
11
153.5
21
-91
0
LINE
8
BLACK
6
CONTINUOUS
10
153.5
20
-91
11
153
21
-91.5
0
LINE
8
BLACK
6
CONTINUOUS
10
153
20
-91.5
11
153.5
21
-92
0
LINE
8
BLACK
6
CONTINUOUS
10
154.74
20
-104.42
11
155.24
21
-103.92
0
LINE
8
BLACK
6
CONTINUOUS
10
155.24
20
-103.92
11
154.74
21
-103.42
0
LINE
8
BLACK
6
CONTINUOUS
10
154.74
20
-103.42
11
154.24
21
-103.92
0
LINE
8
BLACK
6
CONTINUOUS
10
154.24
20
-103.92
11
154.74
21
-104.42
0
LINE
8
BLACK
6
CONTINUOUS
10
154.74
20
-109.5
11
155.24
21
-109
0
LINE
8
BLACK
6
CONTINUOUS
10
155.24
20
-109
11
154.74
21
-108.5
0
LINE
8
BLACK
6
CONTINUOUS
10
154.74
20
-108.5
11
154.24
21
-109
0
LINE
8
BLACK
6
CONTINUOUS
10
154.24
20
-109
11
154.74
21
-109.5
0
LINE
8
BLACK
6
CONTINUOUS
10
156.04
20
-86.92
11
156.54
21
-86.42
0
LINE
8
BLACK
6
CONTINUOUS
10
156.54
20
-86.42
11
156.04
21
-85.92
0
LINE
8
BLACK
6
CONTINUOUS
10
156.04
20
-85.92
11
155.54
21
-86.42
0
LINE
8
BLACK
6
CONTINUOUS
10
155.54
20
-86.42
11
156.04
21
-86.92
0
LINE
8
BLACK
6
CONTINUOUS
10
156.04
20
-92
11
156.54
21
-91.5
0
LINE
8
BLACK
6
CONTINUOUS
10
156.54
20
-91.5
11
156.04
21
-91
0
LINE
8
BLACK
6
CONTINUOUS
10
156.04
20
-91
11
155.54
21
-91.5
0
LINE
8
BLACK
6
CONTINUOUS
10
155.54
20
-91.5
11
156.04
21
-92
0
LINE
8
BLACK
6
CONTINUOUS
10
157.28
20
-104.42
11
157.78
21
-103.92
0
LINE
8
BLACK
6
CONTINUOUS
10
157.78
20
-103.92
11
157.28
21
-103.42
0
LINE
8
BLACK
6
CONTINUOUS
10
157.28
20
-103.42
11
156.78
21
-103.92
0
LINE
8
BLACK
6
CONTINUOUS
10
156.78
20
-103.92
11
157.28
21
-104.42
0
LINE
8
BLACK
6
CONTINUOUS
10
157.28
20
-109.5
11
157.78
21
-109
0
LINE
8
BLACK
6
CONTINUOUS
10
157.78
20
-109
11
157.28
21
-108.5
0
LINE
8
BLACK
6
CONTINUOUS
10
157.28
20
-108.5
11
156.78
21
-109
0
LINE
8
BLACK
6
CONTINUOUS
10
156.78
20
-109
11
157.28
21
-109.5
0
LINE
8
BLACK
6
CONTINUOUS
10
158.58
20
-86.92
11
159.08
21
-86.42
0
LINE
8
BLACK
6
CONTINUOUS
10
159.08
20
-86.42
11
158.58
21
-85.92
0
LINE
8
BLACK
6
CONTINUOUS
10
158.58
20
-85.92
11
158.08
21
-86.42
0
LINE
8
BLACK
6
CONTINUOUS
10
158.08
20
-86.42
11
158.58
21
-86.92
0
LINE
8
BLACK
6
CONTINUOUS
10
158.58
20
-92
11
159.08
21
-91.5
0
LINE
8
BLACK
6
CONTINUOUS
10
159.08
20
-91.5
11
158.58
21
-91
0
LINE
8
BLACK
6
CONTINUOUS
10
158.58
20
-91
11
158.08
21
-91.5
0
LINE
8
BLACK
6
CONTINUOUS
10
158.08
20
-91.5
11
158.58
21
-92
0
LINE
8
BLACK
6
CONTINUOUS
10
159.82
20
-104.42
11
160.32
21
-103.92
0
LINE
8
BLACK
6
CONTINUOUS
10
160.32
20
-103.92
11
159.82
21
-103.42
0
LINE
8
BLACK
6
CONTINUOUS
10
159.82
20
-103.42
11
159.32
21
-103.92
0
LINE
8
BLACK
6
CONTINUOUS
10
159.32
20
-103.92
11
159.82
21
-104.42
0
LINE
8
BLACK
6
CONTINUOUS
10
159.82
20
-109.5
11
160.32
21
-109
0
LINE
8
BLACK
6
CONTINUOUS
10
160.32
20
-109
11
159.82
21
-108.5
0
LINE
8
BLACK
6
CONTINUOUS
10
159.82
20
-108.5
11
159.32
21
-109
0
LINE
8
BLACK
6
CONTINUOUS
10
159.32
20
-109
11
159.82
21
-109.5
0
LINE
8
BLACK
6
CONTINUOUS
10
161.12
20
-86.92
11
161.62
21
-86.42
0
LINE
8
BLACK
6
CONTINUOUS
10
161.62
20
-86.42
11
161.12
21
-85.92
0
LINE
8
BLACK
6
CONTINUOUS
10
161.12
20
-85.92
11
160.62
21
-86.42
0
LINE
8
BLACK
6
CONTINUOUS
10
160.62
20
-86.42
11
161.12
21
-86.92
0
LINE
8
BLACK
6
CONTINUOUS
10
161.12
20
-92
11
161.62
21
-91.5
0
LINE
8
BLACK
6
CONTINUOUS
10
161.62
20
-91.5
11
161.12
21
-91
0
LINE
8
BLACK
6
CONTINUOUS
10
161.12
20
-91
11
160.62
21
-91.5
0
LINE
8
BLACK
6
CONTINUOUS
10
160.62
20
-91.5
11
161.12
21
-92
0
LINE
8
BLACK
6
CONTINUOUS
10
162.36
20
-104.42
11
162.86
21
-103.92
0
LINE
8
BLACK
6
CONTINUOUS
10
162.86
20
-103.92
11
162.36
21
-103.42
0
LINE
8
BLACK
6
CONTINUOUS
10
162.36
20
-103.42
11
161.86
21
-103.92
0
LINE
8
BLACK
6
CONTINUOUS
10
161.86
20
-103.92
11
162.36
21
-104.42
0
LINE
8
BLACK
6
CONTINUOUS
10
162.36
20
-109.5
11
162.86
21
-109
0
LINE
8
BLACK
6
CONTINUOUS
10
162.86
20
-109
11
162.36
21
-108.5
0
LINE
8
BLACK
6
CONTINUOUS
10
162.36
20
-108.5
11
161.86
21
-109
0
LINE
8
BLACK
6
CONTINUOUS
10
161.86
20
-109
11
162.36
21
-109.5
0
LINE
8
BLACK
6
CONTINUOUS
10
163.66
20
-86.92
11
164.16
21
-86.42
0
LINE
8
BLACK
6
CONTINUOUS
10
164.16
20
-86.42
11
163.66
21
-85.92
0
LINE
8
BLACK
6
CONTINUOUS
10
163.66
20
-85.92
11
163.16
21
-86.42
0
LINE
8
BLACK
6
CONTINUOUS
10
163.16
20
-86.42
11
163.66
21
-86.92
0
LINE
8
BLACK
6
CONTINUOUS
10
163.66
20
-92
11
164.16
21
-91.5
0
LINE
8
BLACK
6
CONTINUOUS
10
164.16
20
-91.5
11
163.66
21
-91
0
LINE
8
BLACK
6
CONTINUOUS
10
163.66
20
-91
11
163.16
21
-91.5
0
LINE
8
BLACK
6
CONTINUOUS
10
163.16
20
-91.5
11
163.66
21
-92
0
LINE
8
BLACK
6
CONTINUOUS
10
164.9
20
-104.42
11
165.4
21
-103.92
0
LINE
8
BLACK
6
CONTINUOUS
10
165.4
20
-103.92
11
164.9
21
-103.42
0
LINE
8
BLACK
6
CONTINUOUS
10
164.9
20
-103.42
11
164.4
21
-103.92
0
LINE
8
BLACK
6
CONTINUOUS
10
164.4
20
-103.92
11
164.9
21
-104.42
0
LINE
8
BLACK
6
CONTINUOUS
10
164.9
20
-109.5
11
165.4
21
-109
0
LINE
8
BLACK
6
CONTINUOUS
10
165.4
20
-109
11
164.9
21
-108.5
0
LINE
8
BLACK
6
CONTINUOUS
10
164.9
20
-108.5
11
164.4
21
-109
0
LINE
8
BLACK
6
CONTINUOUS
10
164.4
20
-109
11
164.9
21
-109.5
0
LINE
8
BLACK
6
CONTINUOUS
10
166.2
20
-86.92
11
166.7
21
-86.42
0
LINE
8
BLACK
6
CONTINUOUS
10
166.7
20
-86.42
11
166.2
21
-85.92
0
LINE
8
BLACK
6
CONTINUOUS
10
166.2
20
-85.92
11
165.7
21
-86.42
0
LINE
8
BLACK
6
CONTINUOUS
10
165.7
20
-86.42
11
166.2
21
-86.92
0
LINE
8
BLACK
6
CONTINUOUS
10
166.2
20
-92
11
166.7
21
-91.5
0
LINE
8
BLACK
6
CONTINUOUS
10
166.7
20
-91.5
11
166.2
21
-91
0
LINE
8
BLACK
6
CONTINUOUS
10
166.2
20
-91
11
165.7
21
-91.5
0
LINE
8
BLACK
6
CONTINUOUS
10
165.7
20
-91.5
11
166.2
21
-92
0
LINE
8
BLACK
6
CONTINUOUS
10
167.44
20
-104.42
11
167.94
21
-103.92
0
LINE
8
BLACK
6
CONTINUOUS
10
167.94
20
-103.92
11
167.44
21
-103.42
0
LINE
8
BLACK
6
CONTINUOUS
10
167.44
20
-103.42
11
166.94
21
-103.92
0
LINE
8
BLACK
6
CONTINUOUS
10
166.94
20
-103.92
11
167.44
21
-104.42
0
LINE
8
BLACK
6
CONTINUOUS
10
167.44
20
-109.5
11
167.94
21
-109
0
LINE
8
BLACK
6
CONTINUOUS
10
167.94
20
-109
11
167.44
21
-108.5
0
LINE
8
BLACK
6
CONTINUOUS
10
167.44
20
-108.5
11
166.94
21
-109
0
LINE
8
BLACK
6
CONTINUOUS
10
166.94
20
-109
11
167.44
21
-109.5
0
LINE
8
BLACK
6
CONTINUOUS
10
168.74
20
-86.92
11
169.24
21
-86.42
0
LINE
8
BLACK
6
CONTINUOUS
10
169.24
20
-86.42
11
168.74
21
-85.92
0
LINE
8
BLACK
6
CONTINUOUS
10
168.74
20
-85.92
11
168.24
21
-86.42
0
LINE
8
BLACK
6
CONTINUOUS
10
168.24
20
-86.42
11
168.74
21
-86.92
0
LINE
8
BLACK
6
CONTINUOUS
10
168.74
20
-92
11
169.24
21
-91.5
0
LINE
8
BLACK
6
CONTINUOUS
10
169.24
20
-91.5
11
168.74
21
-91
0
LINE
8
BLACK
6
CONTINUOUS
10
168.74
20
-91
11
168.24
21
-91.5
0
LINE
8
BLACK
6
CONTINUOUS
10
168.24
20
-91.5
11
168.74
21
-92
0
LINE
8
BLACK
6
CONTINUOUS
10
169.98
20
-104.42
11
170.48
21
-103.92
0
LINE
8
BLACK
6
CONTINUOUS
10
170.48
20
-103.92
11
169.98
21
-103.42
0
LINE
8
BLACK
6
CONTINUOUS
10
169.98
20
-103.42
11
169.48
21
-103.92
0
LINE
8
BLACK
6
CONTINUOUS
10
169.48
20
-103.92
11
169.98
21
-104.42
0
LINE
8
BLACK
6
CONTINUOUS
10
169.98
20
-109.5
11
170.48
21
-109
0
LINE
8
BLACK
6
CONTINUOUS
10
170.48
20
-109
11
169.98
21
-108.5
0
LINE
8
BLACK
6
CONTINUOUS
10
169.98
20
-108.5
11
169.48
21
-109
0
LINE
8
BLACK
6
CONTINUOUS
10
169.48
20
-109
11
169.98
21
-109.5
0
LINE
8
BLACK
6
CONTINUOUS
10
171.28
20
-86.92
11
171.78
21
-86.42
0
LINE
8
BLACK
6
CONTINUOUS
10
171.78
20
-86.42
11
171.28
21
-85.92
0
LINE
8
BLACK
6
CONTINUOUS
10
171.28
20
-85.92
11
170.78
21
-86.42
0
LINE
8
BLACK
6
CONTINUOUS
10
170.78
20
-86.42
11
171.28
21
-86.92
0
LINE
8
BLACK
6
CONTINUOUS
10
171.28
20
-92
11
171.78
21
-91.5
0
LINE
8
BLACK
6
CONTINUOUS
10
171.78
20
-91.5
11
171.28
21
-91
0
LINE
8
BLACK
6
CONTINUOUS
10
171.28
20
-91
11
170.78
21
-91.5
0
LINE
8
BLACK
6
CONTINUOUS
10
170.78
20
-91.5
11
171.28
21
-92
0
LINE
8
BLACK
6
CONTINUOUS
10
172.52
20
-104.42
11
173.02
21
-103.92
0
LINE
8
BLACK
6
CONTINUOUS
10
173.02
20
-103.92
11
172.52
21
-103.42
0
LINE
8
BLACK
6
CONTINUOUS
10
172.52
20
-103.42
11
172.02
21
-103.92
0
LINE
8
BLACK
6
CONTINUOUS
10
172.02
20
-103.92
11
172.52
21
-104.42
0
LINE
8
BLACK
6
CONTINUOUS
10
172.52
20
-109.5
11
173.02
21
-109
0
LINE
8
BLACK
6
CONTINUOUS
10
173.02
20
-109
11
172.52
21
-108.5
0
LINE
8
BLACK
6
CONTINUOUS
10
172.52
20
-108.5
11
172.02
21
-109
0
LINE
8
BLACK
6
CONTINUOUS
10
172.02
20
-109
11
172.52
21
-109.5
0
LINE
8
BLACK
6
CONTINUOUS
10
173.82
20
-86.92
11
174.32
21
-86.42
0
LINE
8
BLACK
6
CONTINUOUS
10
174.32
20
-86.42
11
173.82
21
-85.92
0
LINE
8
BLACK
6
CONTINUOUS
10
173.82
20
-85.92
11
173.32
21
-86.42
0
LINE
8
BLACK
6
CONTINUOUS
10
173.32
20
-86.42
11
173.82
21
-86.92
0
LINE
8
BLACK
6
CONTINUOUS
10
173.82
20
-92
11
174.32
21
-91.5
0
LINE
8
BLACK
6
CONTINUOUS
10
174.32
20
-91.5
11
173.82
21
-91
0
LINE
8
BLACK
6
CONTINUOUS
10
173.82
20
-91
11
173.32
21
-91.5
0
LINE
8
BLACK
6
CONTINUOUS
10
173.32
20
-91.5
11
173.82
21
-92
0
LINE
8
BLACK
6
CONTINUOUS
10
175.06
20
-104.42
11
175.56
21
-103.92
0
LINE
8
BLACK
6
CONTINUOUS
10
175.56
20
-103.92
11
175.06
21
-103.42
0
LINE
8
BLACK
6
CONTINUOUS
10
175.06
20
-103.42
11
174.56
21
-103.92
0
LINE
8
BLACK
6
CONTINUOUS
10
174.56
20
-103.92
11
175.06
21
-104.42
0
LINE
8
BLACK
6
CONTINUOUS
10
175.06
20
-109.5
11
175.56
21
-109
0
LINE
8
BLACK
6
CONTINUOUS
10
175.56
20
-109
11
175.06
21
-108.5
0
LINE
8
BLACK
6
CONTINUOUS
10
175.06
20
-108.5
11
174.56
21
-109
0
LINE
8
BLACK
6
CONTINUOUS
10
174.56
20
-109
11
175.06
21
-109.5
0
LINE
8
BLACK
6
CONTINUOUS
10
176.36
20
-86.92
11
176.86
21
-86.42
0
LINE
8
BLACK
6
CONTINUOUS
10
176.86
20
-86.42
11
176.36
21
-85.92
0
LINE
8
BLACK
6
CONTINUOUS
10
176.36
20
-85.92
11
175.86
21
-86.42
0
LINE
8
BLACK
6
CONTINUOUS
10
175.86
20
-86.42
11
176.36
21
-86.92
0
LINE
8
BLACK
6
CONTINUOUS
10
176.36
20
-92
11
176.86
21
-91.5
0
LINE
8
BLACK
6
CONTINUOUS
10
176.86
20
-91.5
11
176.36
21
-91
0
LINE
8
BLACK
6
CONTINUOUS
10
176.36
20
-91
11
175.86
21
-91.5
0
LINE
8
BLACK
6
CONTINUOUS
10
175.86
20
-91.5
11
176.36
21
-92
0
LINE
8
BLACK
6
CONTINUOUS
10
177.6
20
-104.42
11
178.1
21
-103.92
0
LINE
8
BLACK
6
CONTINUOUS
10
178.1
20
-103.92
11
177.6
21
-103.42
0
LINE
8
BLACK
6
CONTINUOUS
10
177.6
20
-103.42
11
177.1
21
-103.92
0
LINE
8
BLACK
6
CONTINUOUS
10
177.1
20
-103.92
11
177.6
21
-104.42
0
LINE
8
BLACK
6
CONTINUOUS
10
177.6
20
-109.5
11
178.1
21
-109
0
LINE
8
BLACK
6
CONTINUOUS
10
178.1
20
-109
11
177.6
21
-108.5
0
LINE
8
BLACK
6
CONTINUOUS
10
177.6
20
-108.5
11
177.1
21
-109
0
LINE
8
BLACK
6
CONTINUOUS
10
177.1
20
-109
11
177.6
21
-109.5
0
LINE
8
BLACK
6
CONTINUOUS
10
178.9
20
-86.92
11
179.4
21
-86.42
0
LINE
8
BLACK
6
CONTINUOUS
10
179.4
20
-86.42
11
178.9
21
-85.92
0
LINE
8
BLACK
6
CONTINUOUS
10
178.9
20
-85.92
11
178.4
21
-86.42
0
LINE
8
BLACK
6
CONTINUOUS
10
178.4
20
-86.42
11
178.9
21
-86.92
0
LINE
8
BLACK
6
CONTINUOUS
10
178.9
20
-92
11
179.4
21
-91.5
0
LINE
8
BLACK
6
CONTINUOUS
10
179.4
20
-91.5
11
178.9
21
-91
0
LINE
8
BLACK
6
CONTINUOUS
10
178.9
20
-91
11
178.4
21
-91.5
0
LINE
8
BLACK
6
CONTINUOUS
10
178.4
20
-91.5
11
178.9
21
-92
0
LINE
8
BLACK
6
CONTINUOUS
10
180.14
20
-104.42
11
180.64
21
-103.92
0
LINE
8
BLACK
6
CONTINUOUS
10
180.64
20
-103.92
11
180.14
21
-103.42
0
LINE
8
BLACK
6
CONTINUOUS
10
180.14
20
-103.42
11
179.64
21
-103.92
0
LINE
8
BLACK
6
CONTINUOUS
10
179.64
20
-103.92
11
180.14
21
-104.42
0
LINE
8
BLACK
6
CONTINUOUS
10
180.14
20
-109.5
11
180.64
21
-109
0
LINE
8
BLACK
6
CONTINUOUS
10
180.64
20
-109
11
180.14
21
-108.5
0
LINE
8
BLACK
6
CONTINUOUS
10
180.14
20
-108.5
11
179.64
21
-109
0
LINE
8
BLACK
6
CONTINUOUS
10
179.64
20
-109
11
180.14
21
-109.5
0
LINE
8
BLACK
6
CONTINUOUS
10
181.44
20
-86.92
11
181.94
21
-86.42
0
LINE
8
BLACK
6
CONTINUOUS
10
181.94
20
-86.42
11
181.44
21
-85.92
0
LINE
8
BLACK
6
CONTINUOUS
10
181.44
20
-85.92
11
180.94
21
-86.42
0
LINE
8
BLACK
6
CONTINUOUS
10
180.94
20
-86.42
11
181.44
21
-86.92
0
LINE
8
BLACK
6
CONTINUOUS
10
181.44
20
-92
11
181.94
21
-91.5
0
LINE
8
BLACK
6
CONTINUOUS
10
181.94
20
-91.5
11
181.44
21
-91
0
LINE
8
BLACK
6
CONTINUOUS
10
181.44
20
-91
11
180.94
21
-91.5
0
LINE
8
BLACK
6
CONTINUOUS
10
180.94
20
-91.5
11
181.44
21
-92
0
LINE
8
BLACK
6
CONTINUOUS
10
182.68
20
-104.42
11
183.18
21
-103.92
0
LINE
8
BLACK
6
CONTINUOUS
10
183.18
20
-103.92
11
182.68
21
-103.42
0
LINE
8
BLACK
6
CONTINUOUS
10
182.68
20
-103.42
11
182.18
21
-103.92
0
LINE
8
BLACK
6
CONTINUOUS
10
182.18
20
-103.92
11
182.68
21
-104.42
0
LINE
8
BLACK
6
CONTINUOUS
10
182.68
20
-109.5
11
183.18
21
-109
0
LINE
8
BLACK
6
CONTINUOUS
10
183.18
20
-109
11
182.68
21
-108.5
0
LINE
8
BLACK
6
CONTINUOUS
10
182.68
20
-108.5
11
182.18
21
-109
0
LINE
8
BLACK
6
CONTINUOUS
10
182.18
20
-109
11
182.68
21
-109.5
0
LINE
8
BLACK
6
CONTINUOUS
10
183.98
20
-86.92
11
184.48
21
-86.42
0
LINE
8
BLACK
6
CONTINUOUS
10
184.48
20
-86.42
11
183.98
21
-85.92
0
LINE
8
BLACK
6
CONTINUOUS
10
183.98
20
-85.92
11
183.48
21
-86.42
0
LINE
8
BLACK
6
CONTINUOUS
10
183.48
20
-86.42
11
183.98
21
-86.92
0
LINE
8
BLACK
6
CONTINUOUS
10
183.98
20
-92
11
184.48
21
-91.5
0
LINE
8
BLACK
6
CONTINUOUS
10
184.48
20
-91.5
11
183.98
21
-91
0
LINE
8
BLACK
6
CONTINUOUS
10
183.98
20
-91
11
183.48
21
-91.5
0
LINE
8
BLACK
6
CONTINUOUS
10
183.48
20
-91.5
11
183.98
21
-92
0
LINE
8
BLACK
6
CONTINUOUS
10
185.22
20
-104.42
11
185.72
21
-103.92
0
LINE
8
BLACK
6
CONTINUOUS
10
185.72
20
-103.92
11
185.22
21
-103.42
0
LINE
8
BLACK
6
CONTINUOUS
10
185.22
20
-103.42
11
184.72
21
-103.92
0
LINE
8
BLACK
6
CONTINUOUS
10
184.72
20
-103.92
11
185.22
21
-104.42
0
LINE
8
BLACK
6
CONTINUOUS
10
185.22
20
-109.5
11
185.72
21
-109
0
LINE
8
BLACK
6
CONTINUOUS
10
185.72
20
-109
11
185.22
21
-108.5
0
LINE
8
BLACK
6
CONTINUOUS
10
185.22
20
-108.5
11
184.72
21
-109
0
LINE
8
BLACK
6
CONTINUOUS
10
184.72
20
-109
11
185.22
21
-109.5
0
LINE
8
BLACK
6
CONTINUOUS
10
186.52
20
-86.92
11
187.02
21
-86.42
0
LINE
8
BLACK
6
CONTINUOUS
10
187.02
20
-86.42
11
186.52
21
-85.92
0
LINE
8
BLACK
6
CONTINUOUS
10
186.52
20
-85.92
11
186.02
21
-86.42
0
LINE
8
BLACK
6
CONTINUOUS
10
186.02
20
-86.42
11
186.52
21
-86.92
0
LINE
8
BLACK
6
CONTINUOUS
10
186.52
20
-92
11
187.02
21
-91.5
0
LINE
8
BLACK
6
CONTINUOUS
10
187.02
20
-91.5
11
186.52
21
-91
0
LINE
8
BLACK
6
CONTINUOUS
10
186.52
20
-91
11
186.02
21
-91.5
0
LINE
8
BLACK
6
CONTINUOUS
10
186.02
20
-91.5
11
186.52
21
-92
0
LINE
8
BLACK
6
CONTINUOUS
10
187.76
20
-104.42
11
188.26
21
-103.92
0
LINE
8
BLACK
6
CONTINUOUS
10
188.26
20
-103.92
11
187.76
21
-103.42
0
LINE
8
BLACK
6
CONTINUOUS
10
187.76
20
-103.42
11
187.26
21
-103.92
0
LINE
8
BLACK
6
CONTINUOUS
10
187.26
20
-103.92
11
187.76
21
-104.42
0
LINE
8
BLACK
6
CONTINUOUS
10
187.76
20
-109.5
11
188.26
21
-109
0
LINE
8
BLACK
6
CONTINUOUS
10
188.26
20
-109
11
187.76
21
-108.5
0
LINE
8
BLACK
6
CONTINUOUS
10
187.76
20
-108.5
11
187.26
21
-109
0
LINE
8
BLACK
6
CONTINUOUS
10
187.26
20
-109
11
187.76
21
-109.5
0
LINE
8
BLACK
6
CONTINUOUS
10
189.06
20
-86.92
11
189.56
21
-86.42
0
LINE
8
BLACK
6
CONTINUOUS
10
189.56
20
-86.42
11
189.06
21
-85.92
0
LINE
8
BLACK
6
CONTINUOUS
10
189.06
20
-85.92
11
188.56
21
-86.42
0
LINE
8
BLACK
6
CONTINUOUS
10
188.56
20
-86.42
11
189.06
21
-86.92
0
LINE
8
BLACK
6
CONTINUOUS
10
189.06
20
-92
11
189.56
21
-91.5
0
LINE
8
BLACK
6
CONTINUOUS
10
189.56
20
-91.5
11
189.06
21
-91
0
LINE
8
BLACK
6
CONTINUOUS
10
189.06
20
-91
11
188.56
21
-91.5
0
LINE
8
BLACK
6
CONTINUOUS
10
188.56
20
-91.5
11
189.06
21
-92
0
LINE
8
BLACK
6
CONTINUOUS
10
190.3
20
-104.42
11
190.8
21
-103.92
0
LINE
8
BLACK
6
CONTINUOUS
10
190.8
20
-103.92
11
190.3
21
-103.42
0
LINE
8
BLACK
6
CONTINUOUS
10
190.3
20
-103.42
11
189.8
21
-103.92
0
LINE
8
BLACK
6
CONTINUOUS
10
189.8
20
-103.92
11
190.3
21
-104.42
0
LINE
8
BLACK
6
CONTINUOUS
10
190.3
20
-109.5
11
190.8
21
-109
0
LINE
8
BLACK
6
CONTINUOUS
10
190.8
20
-109
11
190.3
21
-108.5
0
LINE
8
BLACK
6
CONTINUOUS
10
190.3
20
-108.5
11
189.8
21
-109
0
LINE
8
BLACK
6
CONTINUOUS
10
189.8
20
-109
11
190.3
21
-109.5
0
LINE
8
BLACK
6
CONTINUOUS
10
192.84
20
-104.42
11
193.34
21
-103.92
0
LINE
8
BLACK
6
CONTINUOUS
10
193.34
20
-103.92
11
192.84
21
-103.42
0
LINE
8
BLACK
6
CONTINUOUS
10
192.84
20
-103.42
11
192.34
21
-103.92
0
LINE
8
BLACK
6
CONTINUOUS
10
192.34
20
-103.92
11
192.84
21
-104.42
0
LINE
8
BLACK
6
CONTINUOUS
10
192.84
20
-109.5
11
193.34
21
-109
0
LINE
8
BLACK
6
CONTINUOUS
10
193.34
20
-109
11
192.84
21
-108.5
0
LINE
8
BLACK
6
CONTINUOUS
10
192.84
20
-108.5
11
192.34
21
-109
0
LINE
8
BLACK
6
CONTINUOUS
10
192.34
20
-109
11
192.84
21
-109.5
0
LINE
8
BLACK
6
CONTINUOUS
10
195.725
20
-87.65
11
196.225
21
-87.15
0
LINE
8
BLACK
6
CONTINUOUS
10
196.225
20
-87.15
11
195.725
21
-86.65
0
LINE
8
BLACK
6
CONTINUOUS
10
195.725
20
-86.65
11
195.225
21
-87.15
0
LINE
8
BLACK
6
CONTINUOUS
10
195.225
20
-87.15
11
195.725
21
-87.65
0
LINE
8
BLACK
6
CONTINUOUS
10
195.725
20
-90.15
11
196.225
21
-89.65
0
LINE
8
BLACK
6
CONTINUOUS
10
196.225
20
-89.65
11
195.725
21
-89.15
0
LINE
8
BLACK
6
CONTINUOUS
10
195.725
20
-89.15
11
195.225
21
-89.65
0
LINE
8
BLACK
6
CONTINUOUS
10
195.225
20
-89.65
11
195.725
21
-90.15
0
LINE
8
BLACK
6
CONTINUOUS
10
126.15
20
-74.2029
11
129.35
21
-77.4029
0
LINE
8
BLACK
6
CONTINUOUS
10
129.35
20
-74.2029
11
126.15
21
-77.4029
0
CIRCLE
8
BLACK
10
127.75
20
-75.8029
40
1.6
0
LINE
8
BLACK
6
CONTINUOUS
10
126.15
20
-96.25
11
129.35
21
-99.45
0
LINE
8
BLACK
6
CONTINUOUS
10
129.35
20
-96.25
11
126.15
21
-99.45
0
CIRCLE
8
BLACK
10
127.75
20
-97.85
40
1.6
0
LINE
8
BLACK
6
CONTINUOUS
10
195.65
20
-74.25
11
198.85
21
-77.45
0
LINE
8
BLACK
6
CONTINUOUS
10
198.85
20
-74.25
11
195.65
21
-77.45
0
CIRCLE
8
BLACK
10
197.25
20
-75.85
40
1.6
0
LINE
8
BLACK
6
CONTINUOUS
10
195.65
20
-96.25
11
198.85
21
-99.45
0
LINE
8
BLACK
6
CONTINUOUS
10
198.85
20
-96.25
11
195.65
21
-99.45
0
CIRCLE
8
BLACK
10
197.25
20
-97.85
40
1.6
0
LINE
8
BLACK
6
CONTINUOUS
10
126.451
20
-127.21
11
126.451
21
-125.21
0
LINE
8
BLACK
6
CONTINUOUS
10
126.451
20
-125.21
11
126.927
21
-125.21
0
LINE
8
BLACK
6
CONTINUOUS
10
126.927
20
-125.21
11
127.213
21
-125.305
0
LINE
8
BLACK
6
CONTINUOUS
10
127.213
20
-125.305
11
127.404
21
-125.495
0
LINE
8
BLACK
6
CONTINUOUS
10
127.404
20
-125.495
11
127.499
21
-125.686
0
LINE
8
BLACK
6
CONTINUOUS
10
127.499
20
-125.686
11
127.594
21
-126.067
0
LINE
8
BLACK
6
CONTINUOUS
10
127.594
20
-126.067
11
127.594
21
-126.353
0
LINE
8
BLACK
6
CONTINUOUS
10
127.594
20
-126.353
11
127.499
21
-126.734
0
LINE
8
BLACK
6
CONTINUOUS
10
127.499
20
-126.734
11
127.404
21
-126.924
0
LINE
8
BLACK
6
CONTINUOUS
10
127.404
20
-126.924
11
127.213
21
-127.115
0
LINE
8
BLACK
6
CONTINUOUS
10
127.213
20
-127.115
11
126.927
21
-127.21
0
LINE
8
BLACK
6
CONTINUOUS
10
126.927
20
-127.21
11
126.451
21
-127.21
0
LINE
8
BLACK
6
CONTINUOUS
10
128.451
20
-127.21
11
128.451
21
-125.876
0
LINE
8
BLACK
6
CONTINUOUS
10
128.451
20
-126.257
11
128.546
21
-126.067
0
LINE
8
BLACK
6
CONTINUOUS
10
128.546
20
-126.067
11
128.642
21
-125.972
0
LINE
8
BLACK
6
CONTINUOUS
10
128.642
20
-125.972
11
128.832
21
-125.876
0
LINE
8
BLACK
6
CONTINUOUS
10
128.832
20
-125.876
11
129.023
21
-125.876
0
LINE
8
BLACK
6
CONTINUOUS
10
129.689
20
-127.21
11
129.689
21
-125.876
0
LINE
8
BLACK
6
CONTINUOUS
10
129.689
20
-125.21
11
129.594
21
-125.305
0
LINE
8
BLACK
6
CONTINUOUS
10
129.594
20
-125.305
11
129.689
21
-125.4
0
LINE
8
BLACK
6
CONTINUOUS
10
129.689
20
-125.4
11
129.785
21
-125.305
0
LINE
8
BLACK
6
CONTINUOUS
10
129.785
20
-125.305
11
129.689
21
-125.21
0
LINE
8
BLACK
6
CONTINUOUS
10
129.689
20
-125.21
11
129.689
21
-125.4
0
LINE
8
BLACK
6
CONTINUOUS
10
130.927
20
-127.21
11
130.737
21
-127.115
0
LINE
8
BLACK
6
CONTINUOUS
10
130.737
20
-127.115
11
130.642
21
-126.924
0
LINE
8
BLACK
6
CONTINUOUS
10
130.642
20
-126.924
11
130.642
21
-125.21
0
LINE
8
BLACK
6
CONTINUOUS
10
131.975
20
-127.21
11
131.785
21
-127.115
0
LINE
8
BLACK
6
CONTINUOUS
10
131.785
20
-127.115
11
131.689
21
-126.924
0
LINE
8
BLACK
6
CONTINUOUS
10
131.689
20
-126.924
11
131.689
21
-125.21
0
LINE
8
BLACK
6
CONTINUOUS
10
133.937
20
-127.21
11
133.937
21
-125.21
0
LINE
8
BLACK
6
CONTINUOUS
10
133.937
20
-125.21
11
134.604
21
-126.638
0
LINE
8
BLACK
6
CONTINUOUS
10
134.604
20
-126.638
11
135.27
21
-125.21
0
LINE
8
BLACK
6
CONTINUOUS
10
135.27
20
-125.21
11
135.27
21
-127.21
0
LINE
8
BLACK
6
CONTINUOUS
10
137.08
20
-127.21
11
137.08
21
-126.162
0
LINE
8
BLACK
6
CONTINUOUS
10
137.08
20
-126.162
11
136.985
21
-125.972
0
LINE
8
BLACK
6
CONTINUOUS
10
136.985
20
-125.972
11
136.794
21
-125.876
0
LINE
8
BLACK
6
CONTINUOUS
10
136.794
20
-125.876
11
136.413
21
-125.876
0
LINE
8
BLACK
6
CONTINUOUS
10
136.413
20
-125.876
11
136.223
21
-125.972
0
LINE
8
BLACK
6
CONTINUOUS
10
137.08
20
-127.115
11
136.889
21
-127.21
0
LINE
8
BLACK
6
CONTINUOUS
10
136.889
20
-127.21
11
136.413
21
-127.21
0
LINE
8
BLACK
6
CONTINUOUS
10
136.413
20
-127.21
11
136.223
21
-127.115
0
LINE
8
BLACK
6
CONTINUOUS
10
136.223
20
-127.115
11
136.127
21
-126.924
0
LINE
8
BLACK
6
CONTINUOUS
10
136.127
20
-126.924
11
136.127
21
-126.734
0
LINE
8
BLACK
6
CONTINUOUS
10
136.127
20
-126.734
11
136.223
21
-126.543
0
LINE
8
BLACK
6
CONTINUOUS
10
136.223
20
-126.543
11
136.413
21
-126.448
0
LINE
8
BLACK
6
CONTINUOUS
10
136.413
20
-126.448
11
136.889
21
-126.448
0
LINE
8
BLACK
6
CONTINUOUS
10
136.889
20
-126.448
11
137.08
21
-126.353
0
LINE
8
BLACK
6
CONTINUOUS
10
138.032
20
-125.876
11
138.032
21
-127.876
0
LINE
8
BLACK
6
CONTINUOUS
10
138.032
20
-125.972
11
138.223
21
-125.876
0
LINE
8
BLACK
6
CONTINUOUS
10
138.223
20
-125.876
11
138.604
21
-125.876
0
LINE
8
BLACK
6
CONTINUOUS
10
138.604
20
-125.876
11
138.794
21
-125.972
0
LINE
8
BLACK
6
CONTINUOUS
10
138.794
20
-125.972
11
138.889
21
-126.067
0
LINE
8
BLACK
6
CONTINUOUS
10
138.889
20
-126.067
11
138.985
21
-126.257
0
LINE
8
BLACK
6
CONTINUOUS
10
138.985
20
-126.257
11
138.985
21
-126.829
0
LINE
8
BLACK
6
CONTINUOUS
10
138.985
20
-126.829
11
138.889
21
-127.019
0
LINE
8
BLACK
6
CONTINUOUS
10
138.889
20
-127.019
11
138.794
21
-127.115
0
LINE
8
BLACK
6
CONTINUOUS
10
138.794
20
-127.115
11
138.604
21
-127.21
0
LINE
8
BLACK
6
CONTINUOUS
10
138.604
20
-127.21
11
138.223
21
-127.21
0
LINE
8
BLACK
6
CONTINUOUS
10
138.223
20
-127.21
11
138.032
21
-127.115
0
LINE
8
BLACK
6
CONTINUOUS
10
139.842
20
-127.019
11
139.937
21
-127.115
0
LINE
8
BLACK
6
CONTINUOUS
10
139.937
20
-127.115
11
139.842
21
-127.21
0
LINE
8
BLACK
6
CONTINUOUS
10
139.842
20
-127.21
11
139.746
21
-127.115
0
LINE
8
BLACK
6
CONTINUOUS
10
139.746
20
-127.115
11
139.842
21
-127.019
0
LINE
8
BLACK
6
CONTINUOUS
10
139.842
20
-127.019
11
139.842
21
-127.21
0
LINE
8
BLACK
6
CONTINUOUS
10
139.842
20
-125.972
11
139.937
21
-126.067
0
LINE
8
BLACK
6
CONTINUOUS
10
139.937
20
-126.067
11
139.842
21
-126.162
0
LINE
8
BLACK
6
CONTINUOUS
10
139.842
20
-126.162
11
139.746
21
-126.067
0
LINE
8
BLACK
6
CONTINUOUS
10
139.746
20
-126.067
11
139.842
21
-125.972
0
LINE
8
BLACK
6
CONTINUOUS
10
139.842
20
-125.972
11
139.842
21
-126.162
0
LINE
8
BLACK
6
CONTINUOUS
10
123.575
20
-130.475
11
123.975
21
-130.875
0
LINE
8
BLACK
6
CONTINUOUS
10
123.975
20
-130.475
11
123.575
21
-130.875
0
LINE
8
BLACK
6
CONTINUOUS
10
126.832
20
-129.41
11
127.023
21
-129.41
0
LINE
8
BLACK
6
CONTINUOUS
10
127.023
20
-129.41
11
127.213
21
-129.505
0
LINE
8
BLACK
6
CONTINUOUS
10
127.213
20
-129.505
11
127.308
21
-129.6
0
LINE
8
BLACK
6
CONTINUOUS
10
127.308
20
-129.6
11
127.404
21
-129.791
0
LINE
8
BLACK
6
CONTINUOUS
10
127.404
20
-129.791
11
127.499
21
-130.172
0
LINE
8
BLACK
6
CONTINUOUS
10
127.499
20
-130.172
11
127.499
21
-130.648
0
LINE
8
BLACK
6
CONTINUOUS
10
127.499
20
-130.648
11
127.404
21
-131.029
0
LINE
8
BLACK
6
CONTINUOUS
10
127.404
20
-131.029
11
127.308
21
-131.219
0
LINE
8
BLACK
6
CONTINUOUS
10
127.308
20
-131.219
11
127.213
21
-131.315
0
LINE
8
BLACK
6
CONTINUOUS
10
127.213
20
-131.315
11
127.023
21
-131.41
0
LINE
8
BLACK
6
CONTINUOUS
10
127.023
20
-131.41
11
126.832
21
-131.41
0
LINE
8
BLACK
6
CONTINUOUS
10
126.832
20
-131.41
11
126.642
21
-131.315
0
LINE
8
BLACK
6
CONTINUOUS
10
126.642
20
-131.315
11
126.546
21
-131.219
0
LINE
8
BLACK
6
CONTINUOUS
10
126.546
20
-131.219
11
126.451
21
-131.029
0
LINE
8
BLACK
6
CONTINUOUS
10
126.451
20
-131.029
11
126.356
21
-130.648
0
LINE
8
BLACK
6
CONTINUOUS
10
126.356
20
-130.648
11
126.356
21
-130.172
0
LINE
8
BLACK
6
CONTINUOUS
10
126.356
20
-130.172
11
126.451
21
-129.791
0
LINE
8
BLACK
6
CONTINUOUS
10
126.451
20
-129.791
11
126.546
21
-129.6
0
LINE
8
BLACK
6
CONTINUOUS
10
126.546
20
-129.6
11
126.642
21
-129.505
0
LINE
8
BLACK
6
CONTINUOUS
10
126.642
20
-129.505
11
126.832
21
-129.41
0
LINE
8
BLACK
6
CONTINUOUS
10
128.356
20
-131.219
11
128.451
21
-131.315
0
LINE
8
BLACK
6
CONTINUOUS
10
128.451
20
-131.315
11
128.356
21
-131.41
0
LINE
8
BLACK
6
CONTINUOUS
10
128.356
20
-131.41
11
128.261
21
-131.315
0
LINE
8
BLACK
6
CONTINUOUS
10
128.261
20
-131.315
11
128.356
21
-131.219
0
LINE
8
BLACK
6
CONTINUOUS
10
128.356
20
-131.219
11
128.356
21
-131.41
0
LINE
8
BLACK
6
CONTINUOUS
10
130.165
20
-130.076
11
130.165
21
-131.41
0
LINE
8
BLACK
6
CONTINUOUS
10
129.689
20
-129.315
11
129.213
21
-130.743
0
LINE
8
BLACK
6
CONTINUOUS
10
129.213
20
-130.743
11
130.451
21
-130.743
0
LINE
8
BLACK
6
CONTINUOUS
10
131.594
20
-129.41
11
131.785
21
-129.41
0
LINE
8
BLACK
6
CONTINUOUS
10
131.785
20
-129.41
11
131.975
21
-129.505
0
LINE
8
BLACK
6
CONTINUOUS
10
131.975
20
-129.505
11
132.07
21
-129.6
0
LINE
8
BLACK
6
CONTINUOUS
10
132.07
20
-129.6
11
132.165
21
-129.791
0
LINE
8
BLACK
6
CONTINUOUS
10
132.165
20
-129.791
11
132.261
21
-130.172
0
LINE
8
BLACK
6
CONTINUOUS
10
132.261
20
-130.172
11
132.261
21
-130.648
0
LINE
8
BLACK
6
CONTINUOUS
10
132.261
20
-130.648
11
132.165
21
-131.029
0
LINE
8
BLACK
6
CONTINUOUS
10
132.165
20
-131.029
11
132.07
21
-131.219
0
LINE
8
BLACK
6
CONTINUOUS
10
132.07
20
-131.219
11
131.975
21
-131.315
0
LINE
8
BLACK
6
CONTINUOUS
10
131.975
20
-131.315
11
131.785
21
-131.41
0
LINE
8
BLACK
6
CONTINUOUS
10
131.785
20
-131.41
11
131.594
21
-131.41
0
LINE
8
BLACK
6
CONTINUOUS
10
131.594
20
-131.41
11
131.404
21
-131.315
0
LINE
8
BLACK
6
CONTINUOUS
10
131.404
20
-131.315
11
131.308
21
-131.219
0
LINE
8
BLACK
6
CONTINUOUS
10
131.308
20
-131.219
11
131.213
21
-131.029
0
LINE
8
BLACK
6
CONTINUOUS
10
131.213
20
-131.029
11
131.118
21
-130.648
0
LINE
8
BLACK
6
CONTINUOUS
10
131.118
20
-130.648
11
131.118
21
-130.172
0
LINE
8
BLACK
6
CONTINUOUS
10
131.118
20
-130.172
11
131.213
21
-129.791
0
LINE
8
BLACK
6
CONTINUOUS
10
131.213
20
-129.791
11
131.308
21
-129.6
0
LINE
8
BLACK
6
CONTINUOUS
10
131.308
20
-129.6
11
131.404
21
-129.505
0
LINE
8
BLACK
6
CONTINUOUS
10
131.404
20
-129.505
11
131.594
21
-129.41
0
LINE
8
BLACK
6
CONTINUOUS
10
133.499
20
-129.41
11
133.689
21
-129.41
0
LINE
8
BLACK
6
CONTINUOUS
10
133.689
20
-129.41
11
133.88
21
-129.505
0
LINE
8
BLACK
6
CONTINUOUS
10
133.88
20
-129.505
11
133.975
21
-129.6
0
LINE
8
BLACK
6
CONTINUOUS
10
133.975
20
-129.6
11
134.07
21
-129.791
0
LINE
8
BLACK
6
CONTINUOUS
10
134.07
20
-129.791
11
134.165
21
-130.172
0
LINE
8
BLACK
6
CONTINUOUS
10
134.165
20
-130.172
11
134.165
21
-130.648
0
LINE
8
BLACK
6
CONTINUOUS
10
134.165
20
-130.648
11
134.07
21
-131.029
0
LINE
8
BLACK
6
CONTINUOUS
10
134.07
20
-131.029
11
133.975
21
-131.219
0
LINE
8
BLACK
6
CONTINUOUS
10
133.975
20
-131.219
11
133.88
21
-131.315
0
LINE
8
BLACK
6
CONTINUOUS
10
133.88
20
-131.315
11
133.689
21
-131.41
0
LINE
8
BLACK
6
CONTINUOUS
10
133.689
20
-131.41
11
133.499
21
-131.41
0
LINE
8
BLACK
6
CONTINUOUS
10
133.499
20
-131.41
11
133.308
21
-131.315
0
LINE
8
BLACK
6
CONTINUOUS
10
133.308
20
-131.315
11
133.213
21
-131.219
0
LINE
8
BLACK
6
CONTINUOUS
10
133.213
20
-131.219
11
133.118
21
-131.029
0
LINE
8
BLACK
6
CONTINUOUS
10
133.118
20
-131.029
11
133.023
21
-130.648
0
LINE
8
BLACK
6
CONTINUOUS
10
133.023
20
-130.648
11
133.023
21
-130.172
0
LINE
8
BLACK
6
CONTINUOUS
10
133.023
20
-130.172
11
133.118
21
-129.791
0
LINE
8
BLACK
6
CONTINUOUS
10
133.118
20
-129.791
11
133.213
21
-129.6
0
LINE
8
BLACK
6
CONTINUOUS
10
133.213
20
-129.6
11
133.308
21
-129.505
0
LINE
8
BLACK
6
CONTINUOUS
10
133.308
20
-129.505
11
133.499
21
-129.41
0
LINE
8
BLACK
6
CONTINUOUS
10
135.023
20
-131.41
11
135.023
21
-130.076
0
LINE
8
BLACK
6
CONTINUOUS
10
135.023
20
-130.267
11
135.118
21
-130.172
0
LINE
8
BLACK
6
CONTINUOUS
10
135.118
20
-130.172
11
135.308
21
-130.076
0
LINE
8
BLACK
6
CONTINUOUS
10
135.308
20
-130.076
11
135.594
21
-130.076
0
LINE
8
BLACK
6
CONTINUOUS
10
135.594
20
-130.076
11
135.785
21
-130.172
0
LINE
8
BLACK
6
CONTINUOUS
10
135.785
20
-130.172
11
135.88
21
-130.362
0
LINE
8
BLACK
6
CONTINUOUS
10
135.88
20
-130.362
11
135.88
21
-131.41
0
LINE
8
BLACK
6
CONTINUOUS
10
135.88
20
-130.362
11
135.975
21
-130.172
0
LINE
8
BLACK
6
CONTINUOUS
10
135.975
20
-130.172
11
136.165
21
-130.076
0
LINE
8
BLACK
6
CONTINUOUS
10
136.165
20
-130.076
11
136.451
21
-130.076
0
LINE
8
BLACK
6
CONTINUOUS
10
136.451
20
-130.076
11
136.642
21
-130.172
0
LINE
8
BLACK
6
CONTINUOUS
10
136.642
20
-130.172
11
136.737
21
-130.362
0
LINE
8
BLACK
6
CONTINUOUS
10
136.737
20
-130.362
11
136.737
21
-131.41
0
LINE
8
BLACK
6
CONTINUOUS
10
137.689
20
-131.41
11
137.689
21
-130.076
0
LINE
8
BLACK
6
CONTINUOUS
10
137.689
20
-130.267
11
137.785
21
-130.172
0
LINE
8
BLACK
6
CONTINUOUS
10
137.785
20
-130.172
11
137.975
21
-130.076
0
LINE
8
BLACK
6
CONTINUOUS
10
137.975
20
-130.076
11
138.261
21
-130.076
0
LINE
8
BLACK
6
CONTINUOUS
10
138.261
20
-130.076
11
138.451
21
-130.172
0
LINE
8
BLACK
6
CONTINUOUS
10
138.451
20
-130.172
11
138.546
21
-130.362
0
LINE
8
BLACK
6
CONTINUOUS
10
138.546
20
-130.362
11
138.546
21
-131.41
0
LINE
8
BLACK
6
CONTINUOUS
10
138.546
20
-130.362
11
138.642
21
-130.172
0
LINE
8
BLACK
6
CONTINUOUS
10
138.642
20
-130.172
11
138.832
21
-130.076
0
LINE
8
BLACK
6
CONTINUOUS
10
138.832
20
-130.076
11
139.118
21
-130.076
0
LINE
8
BLACK
6
CONTINUOUS
10
139.118
20
-130.076
11
139.308
21
-130.172
0
LINE
8
BLACK
6
CONTINUOUS
10
139.308
20
-130.172
11
139.404
21
-130.362
0
LINE
8
BLACK
6
CONTINUOUS
10
139.404
20
-130.362
11
139.404
21
-131.41
0
LINE
8
BLACK
6
CONTINUOUS
10
142.985
20
-129.315
11
141.27
21
-131.886
0
LINE
8
BLACK
6
CONTINUOUS
10
145.232
20
-129.41
11
145.423
21
-129.41
0
LINE
8
BLACK
6
CONTINUOUS
10
145.423
20
-129.41
11
145.613
21
-129.505
0
LINE
8
BLACK
6
CONTINUOUS
10
145.613
20
-129.505
11
145.708
21
-129.6
0
LINE
8
BLACK
6
CONTINUOUS
10
145.708
20
-129.6
11
145.804
21
-129.791
0
LINE
8
BLACK
6
CONTINUOUS
10
145.804
20
-129.791
11
145.899
21
-130.172
0
LINE
8
BLACK
6
CONTINUOUS
10
145.899
20
-130.172
11
145.899
21
-130.648
0
LINE
8
BLACK
6
CONTINUOUS
10
145.899
20
-130.648
11
145.804
21
-131.029
0
LINE
8
BLACK
6
CONTINUOUS
10
145.804
20
-131.029
11
145.708
21
-131.219
0
LINE
8
BLACK
6
CONTINUOUS
10
145.708
20
-131.219
11
145.613
21
-131.315
0
LINE
8
BLACK
6
CONTINUOUS
10
145.613
20
-131.315
11
145.423
21
-131.41
0
LINE
8
BLACK
6
CONTINUOUS
10
145.423
20
-131.41
11
145.232
21
-131.41
0
LINE
8
BLACK
6
CONTINUOUS
10
145.232
20
-131.41
11
145.042
21
-131.315
0
LINE
8
BLACK
6
CONTINUOUS
10
145.042
20
-131.315
11
144.946
21
-131.219
0
LINE
8
BLACK
6
CONTINUOUS
10
144.946
20
-131.219
11
144.851
21
-131.029
0
LINE
8
BLACK
6
CONTINUOUS
10
144.851
20
-131.029
11
144.756
21
-130.648
0
LINE
8
BLACK
6
CONTINUOUS
10
144.756
20
-130.648
11
144.756
21
-130.172
0
LINE
8
BLACK
6
CONTINUOUS
10
144.756
20
-130.172
11
144.851
21
-129.791
0
LINE
8
BLACK
6
CONTINUOUS
10
144.851
20
-129.791
11
144.946
21
-129.6
0
LINE
8
BLACK
6
CONTINUOUS
10
144.946
20
-129.6
11
145.042
21
-129.505
0
LINE
8
BLACK
6
CONTINUOUS
10
145.042
20
-129.505
11
145.232
21
-129.41
0
LINE
8
BLACK
6
CONTINUOUS
10
146.756
20
-131.219
11
146.851
21
-131.315
0
LINE
8
BLACK
6
CONTINUOUS
10
146.851
20
-131.315
11
146.756
21
-131.41
0
LINE
8
BLACK
6
CONTINUOUS
10
146.756
20
-131.41
11
146.661
21
-131.315
0
LINE
8
BLACK
6
CONTINUOUS
10
146.661
20
-131.315
11
146.756
21
-131.219
0
LINE
8
BLACK
6
CONTINUOUS
10
146.756
20
-131.219
11
146.756
21
-131.41
0
LINE
8
BLACK
6
CONTINUOUS
10
148.089
20
-129.41
11
148.28
21
-129.41
0
LINE
8
BLACK
6
CONTINUOUS
10
148.28
20
-129.41
11
148.47
21
-129.505
0
LINE
8
BLACK
6
CONTINUOUS
10
148.47
20
-129.505
11
148.565
21
-129.6
0
LINE
8
BLACK
6
CONTINUOUS
10
148.565
20
-129.6
11
148.661
21
-129.791
0
LINE
8
BLACK
6
CONTINUOUS
10
148.661
20
-129.791
11
148.756
21
-130.172
0
LINE
8
BLACK
6
CONTINUOUS
10
148.756
20
-130.172
11
148.756
21
-130.648
0
LINE
8
BLACK
6
CONTINUOUS
10
148.756
20
-130.648
11
148.661
21
-131.029
0
LINE
8
BLACK
6
CONTINUOUS
10
148.661
20
-131.029
11
148.565
21
-131.219
0
LINE
8
BLACK
6
CONTINUOUS
10
148.565
20
-131.219
11
148.47
21
-131.315
0
LINE
8
BLACK
6
CONTINUOUS
10
148.47
20
-131.315
11
148.28
21
-131.41
0
LINE
8
BLACK
6
CONTINUOUS
10
148.28
20
-131.41
11
148.089
21
-131.41
0
LINE
8
BLACK
6
CONTINUOUS
10
148.089
20
-131.41
11
147.899
21
-131.315
0
LINE
8
BLACK
6
CONTINUOUS
10
147.899
20
-131.315
11
147.804
21
-131.219
0
LINE
8
BLACK
6
CONTINUOUS
10
147.804
20
-131.219
11
147.708
21
-131.029
0
LINE
8
BLACK
6
CONTINUOUS
10
147.708
20
-131.029
11
147.613
21
-130.648
0
LINE
8
BLACK
6
CONTINUOUS
10
147.613
20
-130.648
11
147.613
21
-130.172
0
LINE
8
BLACK
6
CONTINUOUS
10
147.613
20
-130.172
11
147.708
21
-129.791
0
LINE
8
BLACK
6
CONTINUOUS
10
147.708
20
-129.791
11
147.804
21
-129.6
0
LINE
8
BLACK
6
CONTINUOUS
10
147.804
20
-129.6
11
147.899
21
-129.505
0
LINE
8
BLACK
6
CONTINUOUS
10
147.899
20
-129.505
11
148.089
21
-129.41
0
LINE
8
BLACK
6
CONTINUOUS
10
150.661
20
-131.41
11
149.518
21
-131.41
0
LINE
8
BLACK
6
CONTINUOUS
10
150.089
20
-131.41
11
150.089
21
-129.41
0
LINE
8
BLACK
6
CONTINUOUS
10
150.089
20
-129.41
11
149.899
21
-129.695
0
LINE
8
BLACK
6
CONTINUOUS
10
149.899
20
-129.695
11
149.708
21
-129.886
0
LINE
8
BLACK
6
CONTINUOUS
10
149.708
20
-129.886
11
149.518
21
-129.981
0
LINE
8
BLACK
6
CONTINUOUS
10
152.47
20
-129.41
11
151.518
21
-129.41
0
LINE
8
BLACK
6
CONTINUOUS
10
151.518
20
-129.41
11
151.423
21
-130.362
0
LINE
8
BLACK
6
CONTINUOUS
10
151.423
20
-130.362
11
151.518
21
-130.267
0
LINE
8
BLACK
6
CONTINUOUS
10
151.518
20
-130.267
11
151.708
21
-130.172
0
LINE
8
BLACK
6
CONTINUOUS
10
151.708
20
-130.172
11
152.185
21
-130.172
0
LINE
8
BLACK
6
CONTINUOUS
10
152.185
20
-130.172
11
152.375
21
-130.267
0
LINE
8
BLACK
6
CONTINUOUS
10
152.375
20
-130.267
11
152.47
21
-130.362
0
LINE
8
BLACK
6
CONTINUOUS
10
152.47
20
-130.362
11
152.565
21
-130.553
0
LINE
8
BLACK
6
CONTINUOUS
10
152.565
20
-130.553
11
152.565
21
-131.029
0
LINE
8
BLACK
6
CONTINUOUS
10
152.565
20
-131.029
11
152.47
21
-131.219
0
LINE
8
BLACK
6
CONTINUOUS
10
152.47
20
-131.219
11
152.375
21
-131.315
0
LINE
8
BLACK
6
CONTINUOUS
10
152.375
20
-131.315
11
152.185
21
-131.41
0
LINE
8
BLACK
6
CONTINUOUS
10
152.185
20
-131.41
11
151.708
21
-131.41
0
LINE
8
BLACK
6
CONTINUOUS
10
151.708
20
-131.41
11
151.518
21
-131.315
0
LINE
8
BLACK
6
CONTINUOUS
10
151.518
20
-131.315
11
151.423
21
-131.219
0
LINE
8
BLACK
6
CONTINUOUS
10
153.232
20
-129.41
11
154.565
21
-129.41
0
LINE
8
BLACK
6
CONTINUOUS
10
154.565
20
-129.41
11
153.708
21
-131.41
0
LINE
8
BLACK
6
CONTINUOUS
10
155.232
20
-129.41
11
155.232
21
-129.791
0
LINE
8
BLACK
6
CONTINUOUS
10
155.994
20
-129.41
11
155.994
21
-129.791
0
LINE
8
BLACK
6
CONTINUOUS
10
158.623
20
-132.172
11
158.527
21
-132.076
0
LINE
8
BLACK
6
CONTINUOUS
10
158.527
20
-132.076
11
158.337
21
-131.791
0
LINE
8
BLACK
6
CONTINUOUS
10
158.337
20
-131.791
11
158.242
21
-131.6
0
LINE
8
BLACK
6
CONTINUOUS
10
158.242
20
-131.6
11
158.146
21
-131.315
0
LINE
8
BLACK
6
CONTINUOUS
10
158.146
20
-131.315
11
158.051
21
-130.838
0
LINE
8
BLACK
6
CONTINUOUS
10
158.051
20
-130.838
11
158.051
21
-130.457
0
LINE
8
BLACK
6
CONTINUOUS
10
158.051
20
-130.457
11
158.146
21
-129.981
0
LINE
8
BLACK
6
CONTINUOUS
10
158.146
20
-129.981
11
158.242
21
-129.695
0
LINE
8
BLACK
6
CONTINUOUS
10
158.242
20
-129.695
11
158.337
21
-129.505
0
LINE
8
BLACK
6
CONTINUOUS
10
158.337
20
-129.505
11
158.527
21
-129.219
0
LINE
8
BLACK
6
CONTINUOUS
10
158.527
20
-129.219
11
158.623
21
-129.124
0
LINE
8
BLACK
6
CONTINUOUS
10
160.242
20
-130.076
11
160.242
21
-131.41
0
LINE
8
BLACK
6
CONTINUOUS
10
159.765
20
-129.315
11
159.289
21
-130.743
0
LINE
8
BLACK
6
CONTINUOUS
10
159.289
20
-130.743
11
160.527
21
-130.743
0
LINE
8
BLACK
6
CONTINUOUS
10
162.489
20
-131.41
11
162.489
21
-129.41
0
LINE
8
BLACK
6
CONTINUOUS
10
163.346
20
-131.41
11
163.346
21
-130.362
0
LINE
8
BLACK
6
CONTINUOUS
10
163.346
20
-130.362
11
163.251
21
-130.172
0
LINE
8
BLACK
6
CONTINUOUS
10
163.251
20
-130.172
11
163.061
21
-130.076
0
LINE
8
BLACK
6
CONTINUOUS
10
163.061
20
-130.076
11
162.775
21
-130.076
0
LINE
8
BLACK
6
CONTINUOUS
10
162.775
20
-130.076
11
162.585
21
-130.172
0
LINE
8
BLACK
6
CONTINUOUS
10
162.585
20
-130.172
11
162.489
21
-130.267
0
LINE
8
BLACK
6
CONTINUOUS
10
164.585
20
-131.41
11
164.394
21
-131.315
0
LINE
8
BLACK
6
CONTINUOUS
10
164.394
20
-131.315
11
164.299
21
-131.219
0
LINE
8
BLACK
6
CONTINUOUS
10
164.299
20
-131.219
11
164.204
21
-131.029
0
LINE
8
BLACK
6
CONTINUOUS
10
164.204
20
-131.029
11
164.204
21
-130.457
0
LINE
8
BLACK
6
CONTINUOUS
10
164.204
20
-130.457
11
164.299
21
-130.267
0
LINE
8
BLACK
6
CONTINUOUS
10
164.299
20
-130.267
11
164.394
21
-130.172
0
LINE
8
BLACK
6
CONTINUOUS
10
164.394
20
-130.172
11
164.585
21
-130.076
0
LINE
8
BLACK
6
CONTINUOUS
10
164.585
20
-130.076
11
164.87
21
-130.076
0
LINE
8
BLACK
6
CONTINUOUS
10
164.87
20
-130.076
11
165.061
21
-130.172
0
LINE
8
BLACK
6
CONTINUOUS
10
165.061
20
-130.172
11
165.156
21
-130.267
0
LINE
8
BLACK
6
CONTINUOUS
10
165.156
20
-130.267
11
165.251
21
-130.457
0
LINE
8
BLACK
6
CONTINUOUS
10
165.251
20
-130.457
11
165.251
21
-131.029
0
LINE
8
BLACK
6
CONTINUOUS
10
165.251
20
-131.029
11
165.156
21
-131.219
0
LINE
8
BLACK
6
CONTINUOUS
10
165.156
20
-131.219
11
165.061
21
-131.315
0
LINE
8
BLACK
6
CONTINUOUS
10
165.061
20
-131.315
11
164.87
21
-131.41
0
LINE
8
BLACK
6
CONTINUOUS
10
164.87
20
-131.41
11
164.585
21
-131.41
0
LINE
8
BLACK
6
CONTINUOUS
10
166.394
20
-131.41
11
166.204
21
-131.315
0
LINE
8
BLACK
6
CONTINUOUS
10
166.204
20
-131.315
11
166.108
21
-131.124
0
LINE
8
BLACK
6
CONTINUOUS
10
166.108
20
-131.124
11
166.108
21
-129.41
0
LINE
8
BLACK
6
CONTINUOUS
10
167.918
20
-131.315
11
167.727
21
-131.41
0
LINE
8
BLACK
6
CONTINUOUS
10
167.727
20
-131.41
11
167.346
21
-131.41
0
LINE
8
BLACK
6
CONTINUOUS
10
167.346
20
-131.41
11
167.156
21
-131.315
0
LINE
8
BLACK
6
CONTINUOUS
10
167.156
20
-131.315
11
167.061
21
-131.124
0
LINE
8
BLACK
6
CONTINUOUS
10
167.061
20
-131.124
11
167.061
21
-130.362
0
LINE
8
BLACK
6
CONTINUOUS
10
167.061
20
-130.362
11
167.156
21
-130.172
0
LINE
8
BLACK
6
CONTINUOUS
10
167.156
20
-130.172
11
167.346
21
-130.076
0
LINE
8
BLACK
6
CONTINUOUS
10
167.346
20
-130.076
11
167.727
21
-130.076
0
LINE
8
BLACK
6
CONTINUOUS
10
167.727
20
-130.076
11
167.918
21
-130.172
0
LINE
8
BLACK
6
CONTINUOUS
10
167.918
20
-130.172
11
168.013
21
-130.362
0
LINE
8
BLACK
6
CONTINUOUS
10
168.013
20
-130.362
11
168.013
21
-130.553
0
LINE
8
BLACK
6
CONTINUOUS
10
168.013
20
-130.553
11
167.061
21
-130.743
0
LINE
8
BLACK
6
CONTINUOUS
10
168.775
20
-131.315
11
168.965
21
-131.41
0
LINE
8
BLACK
6
CONTINUOUS
10
168.965
20
-131.41
11
169.346
21
-131.41
0
LINE
8
BLACK
6
CONTINUOUS
10
169.346
20
-131.41
11
169.537
21
-131.315
0
LINE
8
BLACK
6
CONTINUOUS
10
169.537
20
-131.315
11
169.632
21
-131.124
0
LINE
8
BLACK
6
CONTINUOUS
10
169.632
20
-131.124
11
169.632
21
-131.029
0
LINE
8
BLACK
6
CONTINUOUS
10
169.632
20
-131.029
11
169.537
21
-130.838
0
LINE
8
BLACK
6
CONTINUOUS
10
169.537
20
-130.838
11
169.346
21
-130.743
0
LINE
8
BLACK
6
CONTINUOUS
10
169.346
20
-130.743
11
169.061
21
-130.743
0
LINE
8
BLACK
6
CONTINUOUS
10
169.061
20
-130.743
11
168.87
21
-130.648
0
LINE
8
BLACK
6
CONTINUOUS
10
168.87
20
-130.648
11
168.775
21
-130.457
0
LINE
8
BLACK
6
CONTINUOUS
10
168.775
20
-130.457
11
168.775
21
-130.362
0
LINE
8
BLACK
6
CONTINUOUS
10
168.775
20
-130.362
11
168.87
21
-130.172
0
LINE
8
BLACK
6
CONTINUOUS
10
168.87
20
-130.172
11
169.061
21
-130.076
0
LINE
8
BLACK
6
CONTINUOUS
10
169.061
20
-130.076
11
169.346
21
-130.076
0
LINE
8
BLACK
6
CONTINUOUS
10
169.346
20
-130.076
11
169.537
21
-130.172
0
LINE
8
BLACK
6
CONTINUOUS
10
170.299
20
-132.172
11
170.394
21
-132.076
0
LINE
8
BLACK
6
CONTINUOUS
10
170.394
20
-132.076
11
170.585
21
-131.791
0
LINE
8
BLACK
6
CONTINUOUS
10
170.585
20
-131.791
11
170.68
21
-131.6
0
LINE
8
BLACK
6
CONTINUOUS
10
170.68
20
-131.6
11
170.775
21
-131.315
0
LINE
8
BLACK
6
CONTINUOUS
10
170.775
20
-131.315
11
170.87
21
-130.838
0
LINE
8
BLACK
6
CONTINUOUS
10
170.87
20
-130.838
11
170.87
21
-130.457
0
LINE
8
BLACK
6
CONTINUOUS
10
170.87
20
-130.457
11
170.775
21
-129.981
0
LINE
8
BLACK
6
CONTINUOUS
10
170.775
20
-129.981
11
170.68
21
-129.695
0
LINE
8
BLACK
6
CONTINUOUS
10
170.68
20
-129.695
11
170.585
21
-129.505
0
LINE
8
BLACK
6
CONTINUOUS
10
170.585
20
-129.505
11
170.394
21
-129.219
0
LINE
8
BLACK
6
CONTINUOUS
10
170.394
20
-129.219
11
170.299
21
-129.124
0
CIRCLE
8
BLACK
10
123.725
20
-133.315
40
0.25
0
LINE
8
BLACK
6
CONTINUOUS
10
126.832
20
-132.05
11
127.023
21
-132.05
0
LINE
8
BLACK
6
CONTINUOUS
10
127.023
20
-132.05
11
127.213
21
-132.145
0
LINE
8
BLACK
6
CONTINUOUS
10
127.213
20
-132.145
11
127.308
21
-132.24
0
LINE
8
BLACK
6
CONTINUOUS
10
127.308
20
-132.24
11
127.404
21
-132.431
0
LINE
8
BLACK
6
CONTINUOUS
10
127.404
20
-132.431
11
127.499
21
-132.812
0
LINE
8
BLACK
6
CONTINUOUS
10
127.499
20
-132.812
11
127.499
21
-133.288
0
LINE
8
BLACK
6
CONTINUOUS
10
127.499
20
-133.288
11
127.404
21
-133.669
0
LINE
8
BLACK
6
CONTINUOUS
10
127.404
20
-133.669
11
127.308
21
-133.859
0
LINE
8
BLACK
6
CONTINUOUS
10
127.308
20
-133.859
11
127.213
21
-133.955
0
LINE
8
BLACK
6
CONTINUOUS
10
127.213
20
-133.955
11
127.023
21
-134.05
0
LINE
8
BLACK
6
CONTINUOUS
10
127.023
20
-134.05
11
126.832
21
-134.05
0
LINE
8
BLACK
6
CONTINUOUS
10
126.832
20
-134.05
11
126.642
21
-133.955
0
LINE
8
BLACK
6
CONTINUOUS
10
126.642
20
-133.955
11
126.546
21
-133.859
0
LINE
8
BLACK
6
CONTINUOUS
10
126.546
20
-133.859
11
126.451
21
-133.669
0
LINE
8
BLACK
6
CONTINUOUS
10
126.451
20
-133.669
11
126.356
21
-133.288
0
LINE
8
BLACK
6
CONTINUOUS
10
126.356
20
-133.288
11
126.356
21
-132.812
0
LINE
8
BLACK
6
CONTINUOUS
10
126.356
20
-132.812
11
126.451
21
-132.431
0
LINE
8
BLACK
6
CONTINUOUS
10
126.451
20
-132.431
11
126.546
21
-132.24
0
LINE
8
BLACK
6
CONTINUOUS
10
126.546
20
-132.24
11
126.642
21
-132.145
0
LINE
8
BLACK
6
CONTINUOUS
10
126.642
20
-132.145
11
126.832
21
-132.05
0
LINE
8
BLACK
6
CONTINUOUS
10
128.356
20
-133.859
11
128.451
21
-133.955
0
LINE
8
BLACK
6
CONTINUOUS
10
128.451
20
-133.955
11
128.356
21
-134.05
0
LINE
8
BLACK
6
CONTINUOUS
10
128.356
20
-134.05
11
128.261
21
-133.955
0
LINE
8
BLACK
6
CONTINUOUS
10
128.261
20
-133.955
11
128.356
21
-133.859
0
LINE
8
BLACK
6
CONTINUOUS
10
128.356
20
-133.859
11
128.356
21
-134.05
0
LINE
8
BLACK
6
CONTINUOUS
10
130.261
20
-132.05
11
129.308
21
-132.05
0
LINE
8
BLACK
6
CONTINUOUS
10
129.308
20
-132.05
11
129.213
21
-133.002
0
LINE
8
BLACK
6
CONTINUOUS
10
129.213
20
-133.002
11
129.308
21
-132.907
0
LINE
8
BLACK
6
CONTINUOUS
10
129.308
20
-132.907
11
129.499
21
-132.812
0
LINE
8
BLACK
6
CONTINUOUS
10
129.499
20
-132.812
11
129.975
21
-132.812
0
LINE
8
BLACK
6
CONTINUOUS
10
129.975
20
-132.812
11
130.165
21
-132.907
0
LINE
8
BLACK
6
CONTINUOUS
10
130.165
20
-132.907
11
130.261
21
-133.002
0
LINE
8
BLACK
6
CONTINUOUS
10
130.261
20
-133.002
11
130.356
21
-133.193
0
LINE
8
BLACK
6
CONTINUOUS
10
130.356
20
-133.193
11
130.356
21
-133.669
0
LINE
8
BLACK
6
CONTINUOUS
10
130.356
20
-133.669
11
130.261
21
-133.859
0
LINE
8
BLACK
6
CONTINUOUS
10
130.261
20
-133.859
11
130.165
21
-133.955
0
LINE
8
BLACK
6
CONTINUOUS
10
130.165
20
-133.955
11
129.975
21
-134.05
0
LINE
8
BLACK
6
CONTINUOUS
10
129.975
20
-134.05
11
129.499
21
-134.05
0
LINE
8
BLACK
6
CONTINUOUS
10
129.499
20
-134.05
11
129.308
21
-133.955
0
LINE
8
BLACK
6
CONTINUOUS
10
129.308
20
-133.955
11
129.213
21
-133.859
0
LINE
8
BLACK
6
CONTINUOUS
10
131.594
20
-132.05
11
131.785
21
-132.05
0
LINE
8
BLACK
6
CONTINUOUS
10
131.785
20
-132.05
11
131.975
21
-132.145
0
LINE
8
BLACK
6
CONTINUOUS
10
131.975
20
-132.145
11
132.07
21
-132.24
0
LINE
8
BLACK
6
CONTINUOUS
10
132.07
20
-132.24
11
132.165
21
-132.431
0
LINE
8
BLACK
6
CONTINUOUS
10
132.165
20
-132.431
11
132.261
21
-132.812
0
LINE
8
BLACK
6
CONTINUOUS
10
132.261
20
-132.812
11
132.261
21
-133.288
0
LINE
8
BLACK
6
CONTINUOUS
10
132.261
20
-133.288
11
132.165
21
-133.669
0
LINE
8
BLACK
6
CONTINUOUS
10
132.165
20
-133.669
11
132.07
21
-133.859
0
LINE
8
BLACK
6
CONTINUOUS
10
132.07
20
-133.859
11
131.975
21
-133.955
0
LINE
8
BLACK
6
CONTINUOUS
10
131.975
20
-133.955
11
131.785
21
-134.05
0
LINE
8
BLACK
6
CONTINUOUS
10
131.785
20
-134.05
11
131.594
21
-134.05
0
LINE
8
BLACK
6
CONTINUOUS
10
131.594
20
-134.05
11
131.404
21
-133.955
0
LINE
8
BLACK
6
CONTINUOUS
10
131.404
20
-133.955
11
131.308
21
-133.859
0
LINE
8
BLACK
6
CONTINUOUS
10
131.308
20
-133.859
11
131.213
21
-133.669
0
LINE
8
BLACK
6
CONTINUOUS
10
131.213
20
-133.669
11
131.118
21
-133.288
0
LINE
8
BLACK
6
CONTINUOUS
10
131.118
20
-133.288
11
131.118
21
-132.812
0
LINE
8
BLACK
6
CONTINUOUS
10
131.118
20
-132.812
11
131.213
21
-132.431
0
LINE
8
BLACK
6
CONTINUOUS
10
131.213
20
-132.431
11
131.308
21
-132.24
0
LINE
8
BLACK
6
CONTINUOUS
10
131.308
20
-132.24
11
131.404
21
-132.145
0
LINE
8
BLACK
6
CONTINUOUS
10
131.404
20
-132.145
11
131.594
21
-132.05
0
LINE
8
BLACK
6
CONTINUOUS
10
133.499
20
-132.05
11
133.689
21
-132.05
0
LINE
8
BLACK
6
CONTINUOUS
10
133.689
20
-132.05
11
133.88
21
-132.145
0
LINE
8
BLACK
6
CONTINUOUS
10
133.88
20
-132.145
11
133.975
21
-132.24
0
LINE
8
BLACK
6
CONTINUOUS
10
133.975
20
-132.24
11
134.07
21
-132.431
0
LINE
8
BLACK
6
CONTINUOUS
10
134.07
20
-132.431
11
134.165
21
-132.812
0
LINE
8
BLACK
6
CONTINUOUS
10
134.165
20
-132.812
11
134.165
21
-133.288
0
LINE
8
BLACK
6
CONTINUOUS
10
134.165
20
-133.288
11
134.07
21
-133.669
0
LINE
8
BLACK
6
CONTINUOUS
10
134.07
20
-133.669
11
133.975
21
-133.859
0
LINE
8
BLACK
6
CONTINUOUS
10
133.975
20
-133.859
11
133.88
21
-133.955
0
LINE
8
BLACK
6
CONTINUOUS
10
133.88
20
-133.955
11
133.689
21
-134.05
0
LINE
8
BLACK
6
CONTINUOUS
10
133.689
20
-134.05
11
133.499
21
-134.05
0
LINE
8
BLACK
6
CONTINUOUS
10
133.499
20
-134.05
11
133.308
21
-133.955
0
LINE
8
BLACK
6
CONTINUOUS
10
133.308
20
-133.955
11
133.213
21
-133.859
0
LINE
8
BLACK
6
CONTINUOUS
10
133.213
20
-133.859
11
133.118
21
-133.669
0
LINE
8
BLACK
6
CONTINUOUS
10
133.118
20
-133.669
11
133.023
21
-133.288
0
LINE
8
BLACK
6
CONTINUOUS
10
133.023
20
-133.288
11
133.023
21
-132.812
0
LINE
8
BLACK
6
CONTINUOUS
10
133.023
20
-132.812
11
133.118
21
-132.431
0
LINE
8
BLACK
6
CONTINUOUS
10
133.118
20
-132.431
11
133.213
21
-132.24
0
LINE
8
BLACK
6
CONTINUOUS
10
133.213
20
-132.24
11
133.308
21
-132.145
0
LINE
8
BLACK
6
CONTINUOUS
10
133.308
20
-132.145
11
133.499
21
-132.05
0
LINE
8
BLACK
6
CONTINUOUS
10
135.023
20
-134.05
11
135.023
21
-132.716
0
LINE
8
BLACK
6
CONTINUOUS
10
135.023
20
-132.907
11
135.118
21
-132.812
0
LINE
8
BLACK
6
CONTINUOUS
10
135.118
20
-132.812
11
135.308
21
-132.716
0
LINE
8
BLACK
6
CONTINUOUS
10
135.308
20
-132.716
11
135.594
21
-132.716
0
LINE
8
BLACK
6
CONTINUOUS
10
135.594
20
-132.716
11
135.785
21
-132.812
0
LINE
8
BLACK
6
CONTINUOUS
10
135.785
20
-132.812
11
135.88
21
-133.002
0
LINE
8
BLACK
6
CONTINUOUS
10
135.88
20
-133.002
11
135.88
21
-134.05
0
LINE
8
BLACK
6
CONTINUOUS
10
135.88
20
-133.002
11
135.975
21
-132.812
0
LINE
8
BLACK
6
CONTINUOUS
10
135.975
20
-132.812
11
136.165
21
-132.716
0
LINE
8
BLACK
6
CONTINUOUS
10
136.165
20
-132.716
11
136.451
21
-132.716
0
LINE
8
BLACK
6
CONTINUOUS
10
136.451
20
-132.716
11
136.642
21
-132.812
0
LINE
8
BLACK
6
CONTINUOUS
10
136.642
20
-132.812
11
136.737
21
-133.002
0
LINE
8
BLACK
6
CONTINUOUS
10
136.737
20
-133.002
11
136.737
21
-134.05
0
LINE
8
BLACK
6
CONTINUOUS
10
137.689
20
-134.05
11
137.689
21
-132.716
0
LINE
8
BLACK
6
CONTINUOUS
10
137.689
20
-132.907
11
137.785
21
-132.812
0
LINE
8
BLACK
6
CONTINUOUS
10
137.785
20
-132.812
11
137.975
21
-132.716
0
LINE
8
BLACK
6
CONTINUOUS
10
137.975
20
-132.716
11
138.261
21
-132.716
0
LINE
8
BLACK
6
CONTINUOUS
10
138.261
20
-132.716
11
138.451
21
-132.812
0
LINE
8
BLACK
6
CONTINUOUS
10
138.451
20
-132.812
11
138.546
21
-133.002
0
LINE
8
BLACK
6
CONTINUOUS
10
138.546
20
-133.002
11
138.546
21
-134.05
0
LINE
8
BLACK
6
CONTINUOUS
10
138.546
20
-133.002
11
138.642
21
-132.812
0
LINE
8
BLACK
6
CONTINUOUS
10
138.642
20
-132.812
11
138.832
21
-132.716
0
LINE
8
BLACK
6
CONTINUOUS
10
138.832
20
-132.716
11
139.118
21
-132.716
0
LINE
8
BLACK
6
CONTINUOUS
10
139.118
20
-132.716
11
139.308
21
-132.812
0
LINE
8
BLACK
6
CONTINUOUS
10
139.308
20
-132.812
11
139.404
21
-133.002
0
LINE
8
BLACK
6
CONTINUOUS
10
139.404
20
-133.002
11
139.404
21
-134.05
0
LINE
8
BLACK
6
CONTINUOUS
10
142.985
20
-131.955
11
141.27
21
-134.526
0
LINE
8
BLACK
6
CONTINUOUS
10
145.232
20
-132.05
11
145.423
21
-132.05
0
LINE
8
BLACK
6
CONTINUOUS
10
145.423
20
-132.05
11
145.613
21
-132.145
0
LINE
8
BLACK
6
CONTINUOUS
10
145.613
20
-132.145
11
145.708
21
-132.24
0
LINE
8
BLACK
6
CONTINUOUS
10
145.708
20
-132.24
11
145.804
21
-132.431
0
LINE
8
BLACK
6
CONTINUOUS
10
145.804
20
-132.431
11
145.899
21
-132.812
0
LINE
8
BLACK
6
CONTINUOUS
10
145.899
20
-132.812
11
145.899
21
-133.288
0
LINE
8
BLACK
6
CONTINUOUS
10
145.899
20
-133.288
11
145.804
21
-133.669
0
LINE
8
BLACK
6
CONTINUOUS
10
145.804
20
-133.669
11
145.708
21
-133.859
0
LINE
8
BLACK
6
CONTINUOUS
10
145.708
20
-133.859
11
145.613
21
-133.955
0
LINE
8
BLACK
6
CONTINUOUS
10
145.613
20
-133.955
11
145.423
21
-134.05
0
LINE
8
BLACK
6
CONTINUOUS
10
145.423
20
-134.05
11
145.232
21
-134.05
0
LINE
8
BLACK
6
CONTINUOUS
10
145.232
20
-134.05
11
145.042
21
-133.955
0
LINE
8
BLACK
6
CONTINUOUS
10
145.042
20
-133.955
11
144.946
21
-133.859
0
LINE
8
BLACK
6
CONTINUOUS
10
144.946
20
-133.859
11
144.851
21
-133.669
0
LINE
8
BLACK
6
CONTINUOUS
10
144.851
20
-133.669
11
144.756
21
-133.288
0
LINE
8
BLACK
6
CONTINUOUS
10
144.756
20
-133.288
11
144.756
21
-132.812
0
LINE
8
BLACK
6
CONTINUOUS
10
144.756
20
-132.812
11
144.851
21
-132.431
0
LINE
8
BLACK
6
CONTINUOUS
10
144.851
20
-132.431
11
144.946
21
-132.24
0
LINE
8
BLACK
6
CONTINUOUS
10
144.946
20
-132.24
11
145.042
21
-132.145
0
LINE
8
BLACK
6
CONTINUOUS
10
145.042
20
-132.145
11
145.232
21
-132.05
0
LINE
8
BLACK
6
CONTINUOUS
10
146.756
20
-133.859
11
146.851
21
-133.955
0
LINE
8
BLACK
6
CONTINUOUS
10
146.851
20
-133.955
11
146.756
21
-134.05
0
LINE
8
BLACK
6
CONTINUOUS
10
146.756
20
-134.05
11
146.661
21
-133.955
0
LINE
8
BLACK
6
CONTINUOUS
10
146.661
20
-133.955
11
146.756
21
-133.859
0
LINE
8
BLACK
6
CONTINUOUS
10
146.756
20
-133.859
11
146.756
21
-134.05
0
LINE
8
BLACK
6
CONTINUOUS
10
148.089
20
-132.05
11
148.28
21
-132.05
0
LINE
8
BLACK
6
CONTINUOUS
10
148.28
20
-132.05
11
148.47
21
-132.145
0
LINE
8
BLACK
6
CONTINUOUS
10
148.47
20
-132.145
11
148.565
21
-132.24
0
LINE
8
BLACK
6
CONTINUOUS
10
148.565
20
-132.24
11
148.661
21
-132.431
0
LINE
8
BLACK
6
CONTINUOUS
10
148.661
20
-132.431
11
148.756
21
-132.812
0
LINE
8
BLACK
6
CONTINUOUS
10
148.756
20
-132.812
11
148.756
21
-133.288
0
LINE
8
BLACK
6
CONTINUOUS
10
148.756
20
-133.288
11
148.661
21
-133.669
0
LINE
8
BLACK
6
CONTINUOUS
10
148.661
20
-133.669
11
148.565
21
-133.859
0
LINE
8
BLACK
6
CONTINUOUS
10
148.565
20
-133.859
11
148.47
21
-133.955
0
LINE
8
BLACK
6
CONTINUOUS
10
148.47
20
-133.955
11
148.28
21
-134.05
0
LINE
8
BLACK
6
CONTINUOUS
10
148.28
20
-134.05
11
148.089
21
-134.05
0
LINE
8
BLACK
6
CONTINUOUS
10
148.089
20
-134.05
11
147.899
21
-133.955
0
LINE
8
BLACK
6
CONTINUOUS
10
147.899
20
-133.955
11
147.804
21
-133.859
0
LINE
8
BLACK
6
CONTINUOUS
10
147.804
20
-133.859
11
147.708
21
-133.669
0
LINE
8
BLACK
6
CONTINUOUS
10
147.708
20
-133.669
11
147.613
21
-133.288
0
LINE
8
BLACK
6
CONTINUOUS
10
147.613
20
-133.288
11
147.613
21
-132.812
0
LINE
8
BLACK
6
CONTINUOUS
10
147.613
20
-132.812
11
147.708
21
-132.431
0
LINE
8
BLACK
6
CONTINUOUS
10
147.708
20
-132.431
11
147.804
21
-132.24
0
LINE
8
BLACK
6
CONTINUOUS
10
147.804
20
-132.24
11
147.899
21
-132.145
0
LINE
8
BLACK
6
CONTINUOUS
10
147.899
20
-132.145
11
148.089
21
-132.05
0
LINE
8
BLACK
6
CONTINUOUS
10
150.661
20
-134.05
11
149.518
21
-134.05
0
LINE
8
BLACK
6
CONTINUOUS
10
150.089
20
-134.05
11
150.089
21
-132.05
0
LINE
8
BLACK
6
CONTINUOUS
10
150.089
20
-132.05
11
149.899
21
-132.335
0
LINE
8
BLACK
6
CONTINUOUS
10
149.899
20
-132.335
11
149.708
21
-132.526
0
LINE
8
BLACK
6
CONTINUOUS
10
149.708
20
-132.526
11
149.518
21
-132.621
0
LINE
8
BLACK
6
CONTINUOUS
10
151.613
20
-134.05
11
151.994
21
-134.05
0
LINE
8
BLACK
6
CONTINUOUS
10
151.994
20
-134.05
11
152.185
21
-133.955
0
LINE
8
BLACK
6
CONTINUOUS
10
152.185
20
-133.955
11
152.28
21
-133.859
0
LINE
8
BLACK
6
CONTINUOUS
10
152.28
20
-133.859
11
152.47
21
-133.574
0
LINE
8
BLACK
6
CONTINUOUS
10
152.47
20
-133.574
11
152.565
21
-133.193
0
LINE
8
BLACK
6
CONTINUOUS
10
152.565
20
-133.193
11
152.565
21
-132.431
0
LINE
8
BLACK
6
CONTINUOUS
10
152.565
20
-132.431
11
152.47
21
-132.24
0
LINE
8
BLACK
6
CONTINUOUS
10
152.47
20
-132.24
11
152.375
21
-132.145
0
LINE
8
BLACK
6
CONTINUOUS
10
152.375
20
-132.145
11
152.185
21
-132.05
0
LINE
8
BLACK
6
CONTINUOUS
10
152.185
20
-132.05
11
151.804
21
-132.05
0
LINE
8
BLACK
6
CONTINUOUS
10
151.804
20
-132.05
11
151.613
21
-132.145
0
LINE
8
BLACK
6
CONTINUOUS
10
151.613
20
-132.145
11
151.518
21
-132.24
0
LINE
8
BLACK
6
CONTINUOUS
10
151.518
20
-132.24
11
151.423
21
-132.431
0
LINE
8
BLACK
6
CONTINUOUS
10
151.423
20
-132.431
11
151.423
21
-132.907
0
LINE
8
BLACK
6
CONTINUOUS
10
151.423
20
-132.907
11
151.518
21
-133.097
0
LINE
8
BLACK
6
CONTINUOUS
10
151.518
20
-133.097
11
151.613
21
-133.193
0
LINE
8
BLACK
6
CONTINUOUS
10
151.613
20
-133.193
11
151.804
21
-133.288
0
LINE
8
BLACK
6
CONTINUOUS
10
151.804
20
-133.288
11
152.185
21
-133.288
0
LINE
8
BLACK
6
CONTINUOUS
10
152.185
20
-133.288
11
152.375
21
-133.193
0
LINE
8
BLACK
6
CONTINUOUS
10
152.375
20
-133.193
11
152.47
21
-133.097
0
LINE
8
BLACK
6
CONTINUOUS
10
152.47
20
-133.097
11
152.565
21
-132.907
0
LINE
8
BLACK
6
CONTINUOUS
10
153.232
20
-132.05
11
154.565
21
-132.05
0
LINE
8
BLACK
6
CONTINUOUS
10
154.565
20
-132.05
11
153.708
21
-134.05
0
LINE
8
BLACK
6
CONTINUOUS
10
155.232
20
-132.05
11
155.232
21
-132.431
0
LINE
8
BLACK
6
CONTINUOUS
10
155.994
20
-132.05
11
155.994
21
-132.431
0
LINE
8
BLACK
6
CONTINUOUS
10
158.623
20
-134.812
11
158.527
21
-134.716
0
LINE
8
BLACK
6
CONTINUOUS
10
158.527
20
-134.716
11
158.337
21
-134.431
0
LINE
8
BLACK
6
CONTINUOUS
10
158.337
20
-134.431
11
158.242
21
-134.24
0
LINE
8
BLACK
6
CONTINUOUS
10
158.242
20
-134.24
11
158.146
21
-133.955
0
LINE
8
BLACK
6
CONTINUOUS
10
158.146
20
-133.955
11
158.051
21
-133.478
0
LINE
8
BLACK
6
CONTINUOUS
10
158.051
20
-133.478
11
158.051
21
-133.097
0
LINE
8
BLACK
6
CONTINUOUS
10
158.051
20
-133.097
11
158.146
21
-132.621
0
LINE
8
BLACK
6
CONTINUOUS
10
158.146
20
-132.621
11
158.242
21
-132.335
0
LINE
8
BLACK
6
CONTINUOUS
10
158.242
20
-132.335
11
158.337
21
-132.145
0
LINE
8
BLACK
6
CONTINUOUS
10
158.337
20
-132.145
11
158.527
21
-131.859
0
LINE
8
BLACK
6
CONTINUOUS
10
158.527
20
-131.859
11
158.623
21
-131.764
0
LINE
8
BLACK
6
CONTINUOUS
10
159.194
20
-132.05
11
160.432
21
-132.05
0
LINE
8
BLACK
6
CONTINUOUS
10
160.432
20
-132.05
11
159.765
21
-132.812
0
LINE
8
BLACK
6
CONTINUOUS
10
159.765
20
-132.812
11
160.051
21
-132.812
0
LINE
8
BLACK
6
CONTINUOUS
10
160.051
20
-132.812
11
160.242
21
-132.907
0
LINE
8
BLACK
6
CONTINUOUS
10
160.242
20
-132.907
11
160.337
21
-133.002
0
LINE
8
BLACK
6
CONTINUOUS
10
160.337
20
-133.002
11
160.432
21
-133.193
0
LINE
8
BLACK
6
CONTINUOUS
10
160.432
20
-133.193
11
160.432
21
-133.669
0
LINE
8
BLACK
6
CONTINUOUS
10
160.432
20
-133.669
11
160.337
21
-133.859
0
LINE
8
BLACK
6
CONTINUOUS
10
160.337
20
-133.859
11
160.242
21
-133.955
0
LINE
8
BLACK
6
CONTINUOUS
10
160.242
20
-133.955
11
160.051
21
-134.05
0
LINE
8
BLACK
6
CONTINUOUS
10
160.051
20
-134.05
11
159.48
21
-134.05
0
LINE
8
BLACK
6
CONTINUOUS
10
159.48
20
-134.05
11
159.289
21
-133.955
0
LINE
8
BLACK
6
CONTINUOUS
10
159.289
20
-133.955
11
159.194
21
-133.859
0
LINE
8
BLACK
6
CONTINUOUS
10
161.194
20
-132.24
11
161.289
21
-132.145
0
LINE
8
BLACK
6
CONTINUOUS
10
161.289
20
-132.145
11
161.48
21
-132.05
0
LINE
8
BLACK
6
CONTINUOUS
10
161.48
20
-132.05
11
161.956
21
-132.05
0
LINE
8
BLACK
6
CONTINUOUS
10
161.956
20
-132.05
11
162.146
21
-132.145
0
LINE
8
BLACK
6
CONTINUOUS
10
162.146
20
-132.145
11
162.242
21
-132.24
0
LINE
8
BLACK
6
CONTINUOUS
10
162.242
20
-132.24
11
162.337
21
-132.431
0
LINE
8
BLACK
6
CONTINUOUS
10
162.337
20
-132.431
11
162.337
21
-132.621
0
LINE
8
BLACK
6
CONTINUOUS
10
162.337
20
-132.621
11
162.242
21
-132.907
0
LINE
8
BLACK
6
CONTINUOUS
10
162.242
20
-132.907
11
161.099
21
-134.05
0
LINE
8
BLACK
6
CONTINUOUS
10
161.099
20
-134.05
11
162.337
21
-134.05
0
LINE
8
BLACK
6
CONTINUOUS
10
164.394
20
-134.05
11
164.394
21
-132.05
0
LINE
8
BLACK
6
CONTINUOUS
10
165.251
20
-134.05
11
165.251
21
-133.002
0
LINE
8
BLACK
6
CONTINUOUS
10
165.251
20
-133.002
11
165.156
21
-132.812
0
LINE
8
BLACK
6
CONTINUOUS
10
165.156
20
-132.812
11
164.965
21
-132.716
0
LINE
8
BLACK
6
CONTINUOUS
10
164.965
20
-132.716
11
164.68
21
-132.716
0
LINE
8
BLACK
6
CONTINUOUS
10
164.68
20
-132.716
11
164.489
21
-132.812
0
LINE
8
BLACK
6
CONTINUOUS
10
164.489
20
-132.812
11
164.394
21
-132.907
0
LINE
8
BLACK
6
CONTINUOUS
10
166.489
20
-134.05
11
166.299
21
-133.955
0
LINE
8
BLACK
6
CONTINUOUS
10
166.299
20
-133.955
11
166.204
21
-133.859
0
LINE
8
BLACK
6
CONTINUOUS
10
166.204
20
-133.859
11
166.108
21
-133.669
0
LINE
8
BLACK
6
CONTINUOUS
10
166.108
20
-133.669
11
166.108
21
-133.097
0
LINE
8
BLACK
6
CONTINUOUS
10
166.108
20
-133.097
11
166.204
21
-132.907
0
LINE
8
BLACK
6
CONTINUOUS
10
166.204
20
-132.907
11
166.299
21
-132.812
0
LINE
8
BLACK
6
CONTINUOUS
10
166.299
20
-132.812
11
166.489
21
-132.716
0
LINE
8
BLACK
6
CONTINUOUS
10
166.489
20
-132.716
11
166.775
21
-132.716
0
LINE
8
BLACK
6
CONTINUOUS
10
166.775
20
-132.716
11
166.965
21
-132.812
0
LINE
8
BLACK
6
CONTINUOUS
10
166.965
20
-132.812
11
167.061
21
-132.907
0
LINE
8
BLACK
6
CONTINUOUS
10
167.061
20
-132.907
11
167.156
21
-133.097
0
LINE
8
BLACK
6
CONTINUOUS
10
167.156
20
-133.097
11
167.156
21
-133.669
0
LINE
8
BLACK
6
CONTINUOUS
10
167.156
20
-133.669
11
167.061
21
-133.859
0
LINE
8
BLACK
6
CONTINUOUS
10
167.061
20
-133.859
11
166.965
21
-133.955
0
LINE
8
BLACK
6
CONTINUOUS
10
166.965
20
-133.955
11
166.775
21
-134.05
0
LINE
8
BLACK
6
CONTINUOUS
10
166.775
20
-134.05
11
166.489
21
-134.05
0
LINE
8
BLACK
6
CONTINUOUS
10
168.299
20
-134.05
11
168.108
21
-133.955
0
LINE
8
BLACK
6
CONTINUOUS
10
168.108
20
-133.955
11
168.013
21
-133.764
0
LINE
8
BLACK
6
CONTINUOUS
10
168.013
20
-133.764
11
168.013
21
-132.05
0
LINE
8
BLACK
6
CONTINUOUS
10
169.823
20
-133.955
11
169.632
21
-134.05
0
LINE
8
BLACK
6
CONTINUOUS
10
169.632
20
-134.05
11
169.251
21
-134.05
0
LINE
8
BLACK
6
CONTINUOUS
10
169.251
20
-134.05
11
169.061
21
-133.955
0
LINE
8
BLACK
6
CONTINUOUS
10
169.061
20
-133.955
11
168.965
21
-133.764
0
LINE
8
BLACK
6
CONTINUOUS
10
168.965
20
-133.764
11
168.965
21
-133.002
0
LINE
8
BLACK
6
CONTINUOUS
10
168.965
20
-133.002
11
169.061
21
-132.812
0
LINE
8
BLACK
6
CONTINUOUS
10
169.061
20
-132.812
11
169.251
21
-132.716
0
LINE
8
BLACK
6
CONTINUOUS
10
169.251
20
-132.716
11
169.632
21
-132.716
0
LINE
8
BLACK
6
CONTINUOUS
10
169.632
20
-132.716
11
169.823
21
-132.812
0
LINE
8
BLACK
6
CONTINUOUS
10
169.823
20
-132.812
11
169.918
21
-133.002
0
LINE
8
BLACK
6
CONTINUOUS
10
169.918
20
-133.002
11
169.918
21
-133.193
0
LINE
8
BLACK
6
CONTINUOUS
10
169.918
20
-133.193
11
168.965
21
-133.383
0
LINE
8
BLACK
6
CONTINUOUS
10
170.68
20
-133.955
11
170.87
21
-134.05
0
LINE
8
BLACK
6
CONTINUOUS
10
170.87
20
-134.05
11
171.251
21
-134.05
0
LINE
8
BLACK
6
CONTINUOUS
10
171.251
20
-134.05
11
171.442
21
-133.955
0
LINE
8
BLACK
6
CONTINUOUS
10
171.442
20
-133.955
11
171.537
21
-133.764
0
LINE
8
BLACK
6
CONTINUOUS
10
171.537
20
-133.764
11
171.537
21
-133.669
0
LINE
8
BLACK
6
CONTINUOUS
10
171.537
20
-133.669
11
171.442
21
-133.478
0
LINE
8
BLACK
6
CONTINUOUS
10
171.442
20
-133.478
11
171.251
21
-133.383
0
LINE
8
BLACK
6
CONTINUOUS
10
171.251
20
-133.383
11
170.965
21
-133.383
0
LINE
8
BLACK
6
CONTINUOUS
10
170.965
20
-133.383
11
170.775
21
-133.288
0
LINE
8
BLACK
6
CONTINUOUS
10
170.775
20
-133.288
11
170.68
21
-133.097
0
LINE
8
BLACK
6
CONTINUOUS
10
170.68
20
-133.097
11
170.68
21
-133.002
0
LINE
8
BLACK
6
CONTINUOUS
10
170.68
20
-133.002
11
170.775
21
-132.812
0
LINE
8
BLACK
6
CONTINUOUS
10
170.775
20
-132.812
11
170.965
21
-132.716
0
LINE
8
BLACK
6
CONTINUOUS
10
170.965
20
-132.716
11
171.251
21
-132.716
0
LINE
8
BLACK
6
CONTINUOUS
10
171.251
20
-132.716
11
171.442
21
-132.812
0
LINE
8
BLACK
6
CONTINUOUS
10
172.204
20
-134.812
11
172.299
21
-134.716
0
LINE
8
BLACK
6
CONTINUOUS
10
172.299
20
-134.716
11
172.489
21
-134.431
0
LINE
8
BLACK
6
CONTINUOUS
10
172.489
20
-134.431
11
172.585
21
-134.24
0
LINE
8
BLACK
6
CONTINUOUS
10
172.585
20
-134.24
11
172.68
21
-133.955
0
LINE
8
BLACK
6
CONTINUOUS
10
172.68
20
-133.955
11
172.775
21
-133.478
0
LINE
8
BLACK
6
CONTINUOUS
10
172.775
20
-133.478
11
172.775
21
-133.097
0
LINE
8
BLACK
6
CONTINUOUS
10
172.775
20
-133.097
11
172.68
21
-132.621
0
LINE
8
BLACK
6
CONTINUOUS
10
172.68
20
-132.621
11
172.585
21
-132.335
0
LINE
8
BLACK
6
CONTINUOUS
10
172.585
20
-132.335
11
172.489
21
-132.145
0
LINE
8
BLACK
6
CONTINUOUS
10
172.489
20
-132.145
11
172.299
21
-131.859
0
LINE
8
BLACK
6
CONTINUOUS
10
172.299
20
-131.859
11
172.204
21
-131.764
0
LINE
8
BLACK
6
CONTINUOUS
10
123.675
20
-135.655
11
123.675
21
-136.255
0
LINE
8
BLACK
6
CONTINUOUS
10
123.375
20
-135.955
11
123.975
21
-135.955
0
LINE
8
BLACK
6
CONTINUOUS
10
126.832
20
-134.69
11
127.023
21
-134.69
0
LINE
8
BLACK
6
CONTINUOUS
10
127.023
20
-134.69
11
127.213
21
-134.785
0
LINE
8
BLACK
6
CONTINUOUS
10
127.213
20
-134.785
11
127.308
21
-134.88
0
LINE
8
BLACK
6
CONTINUOUS
10
127.308
20
-134.88
11
127.404
21
-135.071
0
LINE
8
BLACK
6
CONTINUOUS
10
127.404
20
-135.071
11
127.499
21
-135.452
0
LINE
8
BLACK
6
CONTINUOUS
10
127.499
20
-135.452
11
127.499
21
-135.928
0
LINE
8
BLACK
6
CONTINUOUS
10
127.499
20
-135.928
11
127.404
21
-136.309
0
LINE
8
BLACK
6
CONTINUOUS
10
127.404
20
-136.309
11
127.308
21
-136.499
0
LINE
8
BLACK
6
CONTINUOUS
10
127.308
20
-136.499
11
127.213
21
-136.595
0
LINE
8
BLACK
6
CONTINUOUS
10
127.213
20
-136.595
11
127.023
21
-136.69
0
LINE
8
BLACK
6
CONTINUOUS
10
127.023
20
-136.69
11
126.832
21
-136.69
0
LINE
8
BLACK
6
CONTINUOUS
10
126.832
20
-136.69
11
126.642
21
-136.595
0
LINE
8
BLACK
6
CONTINUOUS
10
126.642
20
-136.595
11
126.546
21
-136.499
0
LINE
8
BLACK
6
CONTINUOUS
10
126.546
20
-136.499
11
126.451
21
-136.309
0
LINE
8
BLACK
6
CONTINUOUS
10
126.451
20
-136.309
11
126.356
21
-135.928
0
LINE
8
BLACK
6
CONTINUOUS
10
126.356
20
-135.928
11
126.356
21
-135.452
0
LINE
8
BLACK
6
CONTINUOUS
10
126.356
20
-135.452
11
126.451
21
-135.071
0
LINE
8
BLACK
6
CONTINUOUS
10
126.451
20
-135.071
11
126.546
21
-134.88
0
LINE
8
BLACK
6
CONTINUOUS
10
126.546
20
-134.88
11
126.642
21
-134.785
0
LINE
8
BLACK
6
CONTINUOUS
10
126.642
20
-134.785
11
126.832
21
-134.69
0
LINE
8
BLACK
6
CONTINUOUS
10
128.356
20
-136.499
11
128.451
21
-136.595
0
LINE
8
BLACK
6
CONTINUOUS
10
128.451
20
-136.595
11
128.356
21
-136.69
0
LINE
8
BLACK
6
CONTINUOUS
10
128.356
20
-136.69
11
128.261
21
-136.595
0
LINE
8
BLACK
6
CONTINUOUS
10
128.261
20
-136.595
11
128.356
21
-136.499
0
LINE
8
BLACK
6
CONTINUOUS
10
128.356
20
-136.499
11
128.356
21
-136.69
0
LINE
8
BLACK
6
CONTINUOUS
10
130.165
20
-134.69
11
129.785
21
-134.69
0
LINE
8
BLACK
6
CONTINUOUS
10
129.785
20
-134.69
11
129.594
21
-134.785
0
LINE
8
BLACK
6
CONTINUOUS
10
129.594
20
-134.785
11
129.499
21
-134.88
0
LINE
8
BLACK
6
CONTINUOUS
10
129.499
20
-134.88
11
129.308
21
-135.166
0
LINE
8
BLACK
6
CONTINUOUS
10
129.308
20
-135.166
11
129.213
21
-135.547
0
LINE
8
BLACK
6
CONTINUOUS
10
129.213
20
-135.547
11
129.213
21
-136.309
0
LINE
8
BLACK
6
CONTINUOUS
10
129.213
20
-136.309
11
129.308
21
-136.499
0
LINE
8
BLACK
6
CONTINUOUS
10
129.308
20
-136.499
11
129.404
21
-136.595
0
LINE
8
BLACK
6
CONTINUOUS
10
129.404
20
-136.595
11
129.594
21
-136.69
0
LINE
8
BLACK
6
CONTINUOUS
10
129.594
20
-136.69
11
129.975
21
-136.69
0
LINE
8
BLACK
6
CONTINUOUS
10
129.975
20
-136.69
11
130.165
21
-136.595
0
LINE
8
BLACK
6
CONTINUOUS
10
130.165
20
-136.595
11
130.261
21
-136.499
0
LINE
8
BLACK
6
CONTINUOUS
10
130.261
20
-136.499
11
130.356
21
-136.309
0
LINE
8
BLACK
6
CONTINUOUS
10
130.356
20
-136.309
11
130.356
21
-135.833
0
LINE
8
BLACK
6
CONTINUOUS
10
130.356
20
-135.833
11
130.261
21
-135.642
0
LINE
8
BLACK
6
CONTINUOUS
10
130.261
20
-135.642
11
130.165
21
-135.547
0
LINE
8
BLACK
6
CONTINUOUS
10
130.165
20
-135.547
11
129.975
21
-135.452
0
LINE
8
BLACK
6
CONTINUOUS
10
129.975
20
-135.452
11
129.594
21
-135.452
0
LINE
8
BLACK
6
CONTINUOUS
10
129.594
20
-135.452
11
129.404
21
-135.547
0
LINE
8
BLACK
6
CONTINUOUS
10
129.404
20
-135.547
11
129.308
21
-135.642
0
LINE
8
BLACK
6
CONTINUOUS
10
129.308
20
-135.642
11
129.213
21
-135.833
0
LINE
8
BLACK
6
CONTINUOUS
10
131.594
20
-134.69
11
131.785
21
-134.69
0
LINE
8
BLACK
6
CONTINUOUS
10
131.785
20
-134.69
11
131.975
21
-134.785
0
LINE
8
BLACK
6
CONTINUOUS
10
131.975
20
-134.785
11
132.07
21
-134.88
0
LINE
8
BLACK
6
CONTINUOUS
10
132.07
20
-134.88
11
132.165
21
-135.071
0
LINE
8
BLACK
6
CONTINUOUS
10
132.165
20
-135.071
11
132.261
21
-135.452
0
LINE
8
BLACK
6
CONTINUOUS
10
132.261
20
-135.452
11
132.261
21
-135.928
0
LINE
8
BLACK
6
CONTINUOUS
10
132.261
20
-135.928
11
132.165
21
-136.309
0
LINE
8
BLACK
6
CONTINUOUS
10
132.165
20
-136.309
11
132.07
21
-136.499
0
LINE
8
BLACK
6
CONTINUOUS
10
132.07
20
-136.499
11
131.975
21
-136.595
0
LINE
8
BLACK
6
CONTINUOUS
10
131.975
20
-136.595
11
131.785
21
-136.69
0
LINE
8
BLACK
6
CONTINUOUS
10
131.785
20
-136.69
11
131.594
21
-136.69
0
LINE
8
BLACK
6
CONTINUOUS
10
131.594
20
-136.69
11
131.404
21
-136.595
0
LINE
8
BLACK
6
CONTINUOUS
10
131.404
20
-136.595
11
131.308
21
-136.499
0
LINE
8
BLACK
6
CONTINUOUS
10
131.308
20
-136.499
11
131.213
21
-136.309
0
LINE
8
BLACK
6
CONTINUOUS
10
131.213
20
-136.309
11
131.118
21
-135.928
0
LINE
8
BLACK
6
CONTINUOUS
10
131.118
20
-135.928
11
131.118
21
-135.452
0
LINE
8
BLACK
6
CONTINUOUS
10
131.118
20
-135.452
11
131.213
21
-135.071
0
LINE
8
BLACK
6
CONTINUOUS
10
131.213
20
-135.071
11
131.308
21
-134.88
0
LINE
8
BLACK
6
CONTINUOUS
10
131.308
20
-134.88
11
131.404
21
-134.785
0
LINE
8
BLACK
6
CONTINUOUS
10
131.404
20
-134.785
11
131.594
21
-134.69
0
LINE
8
BLACK
6
CONTINUOUS
10
133.499
20
-134.69
11
133.689
21
-134.69
0
LINE
8
BLACK
6
CONTINUOUS
10
133.689
20
-134.69
11
133.88
21
-134.785
0
LINE
8
BLACK
6
CONTINUOUS
10
133.88
20
-134.785
11
133.975
21
-134.88
0
LINE
8
BLACK
6
CONTINUOUS
10
133.975
20
-134.88
11
134.07
21
-135.071
0
LINE
8
BLACK
6
CONTINUOUS
10
134.07
20
-135.071
11
134.165
21
-135.452
0
LINE
8
BLACK
6
CONTINUOUS
10
134.165
20
-135.452
11
134.165
21
-135.928
0
LINE
8
BLACK
6
CONTINUOUS
10
134.165
20
-135.928
11
134.07
21
-136.309
0
LINE
8
BLACK
6
CONTINUOUS
10
134.07
20
-136.309
11
133.975
21
-136.499
0
LINE
8
BLACK
6
CONTINUOUS
10
133.975
20
-136.499
11
133.88
21
-136.595
0
LINE
8
BLACK
6
CONTINUOUS
10
133.88
20
-136.595
11
133.689
21
-136.69
0
LINE
8
BLACK
6
CONTINUOUS
10
133.689
20
-136.69
11
133.499
21
-136.69
0
LINE
8
BLACK
6
CONTINUOUS
10
133.499
20
-136.69
11
133.308
21
-136.595
0
LINE
8
BLACK
6
CONTINUOUS
10
133.308
20
-136.595
11
133.213
21
-136.499
0
LINE
8
BLACK
6
CONTINUOUS
10
133.213
20
-136.499
11
133.118
21
-136.309
0
LINE
8
BLACK
6
CONTINUOUS
10
133.118
20
-136.309
11
133.023
21
-135.928
0
LINE
8
BLACK
6
CONTINUOUS
10
133.023
20
-135.928
11
133.023
21
-135.452
0
LINE
8
BLACK
6
CONTINUOUS
10
133.023
20
-135.452
11
133.118
21
-135.071
0
LINE
8
BLACK
6
CONTINUOUS
10
133.118
20
-135.071
11
133.213
21
-134.88
0
LINE
8
BLACK
6
CONTINUOUS
10
133.213
20
-134.88
11
133.308
21
-134.785
0
LINE
8
BLACK
6
CONTINUOUS
10
133.308
20
-134.785
11
133.499
21
-134.69
0
LINE
8
BLACK
6
CONTINUOUS
10
135.023
20
-136.69
11
135.023
21
-135.356
0
LINE
8
BLACK
6
CONTINUOUS
10
135.023
20
-135.547
11
135.118
21
-135.452
0
LINE
8
BLACK
6
CONTINUOUS
10
135.118
20
-135.452
11
135.308
21
-135.356
0
LINE
8
BLACK
6
CONTINUOUS
10
135.308
20
-135.356
11
135.594
21
-135.356
0
LINE
8
BLACK
6
CONTINUOUS
10
135.594
20
-135.356
11
135.785
21
-135.452
0
LINE
8
BLACK
6
CONTINUOUS
10
135.785
20
-135.452
11
135.88
21
-135.642
0
LINE
8
BLACK
6
CONTINUOUS
10
135.88
20
-135.642
11
135.88
21
-136.69
0
LINE
8
BLACK
6
CONTINUOUS
10
135.88
20
-135.642
11
135.975
21
-135.452
0
LINE
8
BLACK
6
CONTINUOUS
10
135.975
20
-135.452
11
136.165
21
-135.356
0
LINE
8
BLACK
6
CONTINUOUS
10
136.165
20
-135.356
11
136.451
21
-135.356
0
LINE
8
BLACK
6
CONTINUOUS
10
136.451
20
-135.356
11
136.642
21
-135.452
0
LINE
8
BLACK
6
CONTINUOUS
10
136.642
20
-135.452
11
136.737
21
-135.642
0
LINE
8
BLACK
6
CONTINUOUS
10
136.737
20
-135.642
11
136.737
21
-136.69
0
LINE
8
BLACK
6
CONTINUOUS
10
137.689
20
-136.69
11
137.689
21
-135.356
0
LINE
8
BLACK
6
CONTINUOUS
10
137.689
20
-135.547
11
137.785
21
-135.452
0
LINE
8
BLACK
6
CONTINUOUS
10
137.785
20
-135.452
11
137.975
21
-135.356
0
LINE
8
BLACK
6
CONTINUOUS
10
137.975
20
-135.356
11
138.261
21
-135.356
0
LINE
8
BLACK
6
CONTINUOUS
10
138.261
20
-135.356
11
138.451
21
-135.452
0
LINE
8
BLACK
6
CONTINUOUS
10
138.451
20
-135.452
11
138.546
21
-135.642
0
LINE
8
BLACK
6
CONTINUOUS
10
138.546
20
-135.642
11
138.546
21
-136.69
0
LINE
8
BLACK
6
CONTINUOUS
10
138.546
20
-135.642
11
138.642
21
-135.452
0
LINE
8
BLACK
6
CONTINUOUS
10
138.642
20
-135.452
11
138.832
21
-135.356
0
LINE
8
BLACK
6
CONTINUOUS
10
138.832
20
-135.356
11
139.118
21
-135.356
0
LINE
8
BLACK
6
CONTINUOUS
10
139.118
20
-135.356
11
139.308
21
-135.452
0
LINE
8
BLACK
6
CONTINUOUS
10
139.308
20
-135.452
11
139.404
21
-135.642
0
LINE
8
BLACK
6
CONTINUOUS
10
139.404
20
-135.642
11
139.404
21
-136.69
0
LINE
8
BLACK
6
CONTINUOUS
10
142.985
20
-134.595
11
141.27
21
-137.166
0
LINE
8
BLACK
6
CONTINUOUS
10
145.232
20
-134.69
11
145.423
21
-134.69
0
LINE
8
BLACK
6
CONTINUOUS
10
145.423
20
-134.69
11
145.613
21
-134.785
0
LINE
8
BLACK
6
CONTINUOUS
10
145.613
20
-134.785
11
145.708
21
-134.88
0
LINE
8
BLACK
6
CONTINUOUS
10
145.708
20
-134.88
11
145.804
21
-135.071
0
LINE
8
BLACK
6
CONTINUOUS
10
145.804
20
-135.071
11
145.899
21
-135.452
0
LINE
8
BLACK
6
CONTINUOUS
10
145.899
20
-135.452
11
145.899
21
-135.928
0
LINE
8
BLACK
6
CONTINUOUS
10
145.899
20
-135.928
11
145.804
21
-136.309
0
LINE
8
BLACK
6
CONTINUOUS
10
145.804
20
-136.309
11
145.708
21
-136.499
0
LINE
8
BLACK
6
CONTINUOUS
10
145.708
20
-136.499
11
145.613
21
-136.595
0
LINE
8
BLACK
6
CONTINUOUS
10
145.613
20
-136.595
11
145.423
21
-136.69
0
LINE
8
BLACK
6
CONTINUOUS
10
145.423
20
-136.69
11
145.232
21
-136.69
0
LINE
8
BLACK
6
CONTINUOUS
10
145.232
20
-136.69
11
145.042
21
-136.595
0
LINE
8
BLACK
6
CONTINUOUS
10
145.042
20
-136.595
11
144.946
21
-136.499
0
LINE
8
BLACK
6
CONTINUOUS
10
144.946
20
-136.499
11
144.851
21
-136.309
0
LINE
8
BLACK
6
CONTINUOUS
10
144.851
20
-136.309
11
144.756
21
-135.928
0
LINE
8
BLACK
6
CONTINUOUS
10
144.756
20
-135.928
11
144.756
21
-135.452
0
LINE
8
BLACK
6
CONTINUOUS
10
144.756
20
-135.452
11
144.851
21
-135.071
0
LINE
8
BLACK
6
CONTINUOUS
10
144.851
20
-135.071
11
144.946
21
-134.88
0
LINE
8
BLACK
6
CONTINUOUS
10
144.946
20
-134.88
11
145.042
21
-134.785
0
LINE
8
BLACK
6
CONTINUOUS
10
145.042
20
-134.785
11
145.232
21
-134.69
0
LINE
8
BLACK
6
CONTINUOUS
10
146.756
20
-136.499
11
146.851
21
-136.595
0
LINE
8
BLACK
6
CONTINUOUS
10
146.851
20
-136.595
11
146.756
21
-136.69
0
LINE
8
BLACK
6
CONTINUOUS
10
146.756
20
-136.69
11
146.661
21
-136.595
0
LINE
8
BLACK
6
CONTINUOUS
10
146.661
20
-136.595
11
146.756
21
-136.499
0
LINE
8
BLACK
6
CONTINUOUS
10
146.756
20
-136.499
11
146.756
21
-136.69
0
LINE
8
BLACK
6
CONTINUOUS
10
148.089
20
-134.69
11
148.28
21
-134.69
0
LINE
8
BLACK
6
CONTINUOUS
10
148.28
20
-134.69
11
148.47
21
-134.785
0
LINE
8
BLACK
6
CONTINUOUS
10
148.47
20
-134.785
11
148.565
21
-134.88
0
LINE
8
BLACK
6
CONTINUOUS
10
148.565
20
-134.88
11
148.661
21
-135.071
0
LINE
8
BLACK
6
CONTINUOUS
10
148.661
20
-135.071
11
148.756
21
-135.452
0
LINE
8
BLACK
6
CONTINUOUS
10
148.756
20
-135.452
11
148.756
21
-135.928
0
LINE
8
BLACK
6
CONTINUOUS
10
148.756
20
-135.928
11
148.661
21
-136.309
0
LINE
8
BLACK
6
CONTINUOUS
10
148.661
20
-136.309
11
148.565
21
-136.499
0
LINE
8
BLACK
6
CONTINUOUS
10
148.565
20
-136.499
11
148.47
21
-136.595
0
LINE
8
BLACK
6
CONTINUOUS
10
148.47
20
-136.595
11
148.28
21
-136.69
0
LINE
8
BLACK
6
CONTINUOUS
10
148.28
20
-136.69
11
148.089
21
-136.69
0
LINE
8
BLACK
6
CONTINUOUS
10
148.089
20
-136.69
11
147.899
21
-136.595
0
LINE
8
BLACK
6
CONTINUOUS
10
147.899
20
-136.595
11
147.804
21
-136.499
0
LINE
8
BLACK
6
CONTINUOUS
10
147.804
20
-136.499
11
147.708
21
-136.309
0
LINE
8
BLACK
6
CONTINUOUS
10
147.708
20
-136.309
11
147.613
21
-135.928
0
LINE
8
BLACK
6
CONTINUOUS
10
147.613
20
-135.928
11
147.613
21
-135.452
0
LINE
8
BLACK
6
CONTINUOUS
10
147.613
20
-135.452
11
147.708
21
-135.071
0
LINE
8
BLACK
6
CONTINUOUS
10
147.708
20
-135.071
11
147.804
21
-134.88
0
LINE
8
BLACK
6
CONTINUOUS
10
147.804
20
-134.88
11
147.899
21
-134.785
0
LINE
8
BLACK
6
CONTINUOUS
10
147.899
20
-134.785
11
148.089
21
-134.69
0
LINE
8
BLACK
6
CONTINUOUS
10
149.518
20
-134.88
11
149.613
21
-134.785
0
LINE
8
BLACK
6
CONTINUOUS
10
149.613
20
-134.785
11
149.804
21
-134.69
0
LINE
8
BLACK
6
CONTINUOUS
10
149.804
20
-134.69
11
150.28
21
-134.69
0
LINE
8
BLACK
6
CONTINUOUS
10
150.28
20
-134.69
11
150.47
21
-134.785
0
LINE
8
BLACK
6
CONTINUOUS
10
150.47
20
-134.785
11
150.565
21
-134.88
0
LINE
8
BLACK
6
CONTINUOUS
10
150.565
20
-134.88
11
150.661
21
-135.071
0
LINE
8
BLACK
6
CONTINUOUS
10
150.661
20
-135.071
11
150.661
21
-135.261
0
LINE
8
BLACK
6
CONTINUOUS
10
150.661
20
-135.261
11
150.565
21
-135.547
0
LINE
8
BLACK
6
CONTINUOUS
10
150.565
20
-135.547
11
149.423
21
-136.69
0
LINE
8
BLACK
6
CONTINUOUS
10
149.423
20
-136.69
11
150.661
21
-136.69
0
LINE
8
BLACK
6
CONTINUOUS
10
151.327
20
-134.69
11
152.565
21
-134.69
0
LINE
8
BLACK
6
CONTINUOUS
10
152.565
20
-134.69
11
151.899
21
-135.452
0
LINE
8
BLACK
6
CONTINUOUS
10
151.899
20
-135.452
11
152.185
21
-135.452
0
LINE
8
BLACK
6
CONTINUOUS
10
152.185
20
-135.452
11
152.375
21
-135.547
0
LINE
8
BLACK
6
CONTINUOUS
10
152.375
20
-135.547
11
152.47
21
-135.642
0
LINE
8
BLACK
6
CONTINUOUS
10
152.47
20
-135.642
11
152.565
21
-135.833
0
LINE
8
BLACK
6
CONTINUOUS
10
152.565
20
-135.833
11
152.565
21
-136.309
0
LINE
8
BLACK
6
CONTINUOUS
10
152.565
20
-136.309
11
152.47
21
-136.499
0
LINE
8
BLACK
6
CONTINUOUS
10
152.47
20
-136.499
11
152.375
21
-136.595
0
LINE
8
BLACK
6
CONTINUOUS
10
152.375
20
-136.595
11
152.185
21
-136.69
0
LINE
8
BLACK
6
CONTINUOUS
10
152.185
20
-136.69
11
151.613
21
-136.69
0
LINE
8
BLACK
6
CONTINUOUS
10
151.613
20
-136.69
11
151.423
21
-136.595
0
LINE
8
BLACK
6
CONTINUOUS
10
151.423
20
-136.595
11
151.327
21
-136.499
0
LINE
8
BLACK
6
CONTINUOUS
10
154.28
20
-134.69
11
153.899
21
-134.69
0
LINE
8
BLACK
6
CONTINUOUS
10
153.899
20
-134.69
11
153.708
21
-134.785
0
LINE
8
BLACK
6
CONTINUOUS
10
153.708
20
-134.785
11
153.613
21
-134.88
0
LINE
8
BLACK
6
CONTINUOUS
10
153.613
20
-134.88
11
153.423
21
-135.166
0
LINE
8
BLACK
6
CONTINUOUS
10
153.423
20
-135.166
11
153.327
21
-135.547
0
LINE
8
BLACK
6
CONTINUOUS
10
153.327
20
-135.547
11
153.327
21
-136.309
0
LINE
8
BLACK
6
CONTINUOUS
10
153.327
20
-136.309
11
153.423
21
-136.499
0
LINE
8
BLACK
6
CONTINUOUS
10
153.423
20
-136.499
11
153.518
21
-136.595
0
LINE
8
BLACK
6
CONTINUOUS
10
153.518
20
-136.595
11
153.708
21
-136.69
0
LINE
8
BLACK
6
CONTINUOUS
10
153.708
20
-136.69
11
154.089
21
-136.69
0
LINE
8
BLACK
6
CONTINUOUS
10
154.089
20
-136.69
11
154.28
21
-136.595
0
LINE
8
BLACK
6
CONTINUOUS
10
154.28
20
-136.595
11
154.375
21
-136.499
0
LINE
8
BLACK
6
CONTINUOUS
10
154.375
20
-136.499
11
154.47
21
-136.309
0
LINE
8
BLACK
6
CONTINUOUS
10
154.47
20
-136.309
11
154.47
21
-135.833
0
LINE
8
BLACK
6
CONTINUOUS
10
154.47
20
-135.833
11
154.375
21
-135.642
0
LINE
8
BLACK
6
CONTINUOUS
10
154.375
20
-135.642
11
154.28
21
-135.547
0
LINE
8
BLACK
6
CONTINUOUS
10
154.28
20
-135.547
11
154.089
21
-135.452
0
LINE
8
BLACK
6
CONTINUOUS
10
154.089
20
-135.452
11
153.708
21
-135.452
0
LINE
8
BLACK
6
CONTINUOUS
10
153.708
20
-135.452
11
153.518
21
-135.547
0
LINE
8
BLACK
6
CONTINUOUS
10
153.518
20
-135.547
11
153.423
21
-135.642
0
LINE
8
BLACK
6
CONTINUOUS
10
153.423
20
-135.642
11
153.327
21
-135.833
0
LINE
8
BLACK
6
CONTINUOUS
10
155.232
20
-134.69
11
155.232
21
-135.071
0
LINE
8
BLACK
6
CONTINUOUS
10
155.994
20
-134.69
11
155.994
21
-135.071
0
LINE
8
BLACK
6
CONTINUOUS
10
158.623
20
-137.452
11
158.527
21
-137.356
0
LINE
8
BLACK
6
CONTINUOUS
10
158.527
20
-137.356
11
158.337
21
-137.071
0
LINE
8
BLACK
6
CONTINUOUS
10
158.337
20
-137.071
11
158.242
21
-136.88
0
LINE
8
BLACK
6
CONTINUOUS
10
158.242
20
-136.88
11
158.146
21
-136.595
0
LINE
8
BLACK
6
CONTINUOUS
10
158.146
20
-136.595
11
158.051
21
-136.118
0
LINE
8
BLACK
6
CONTINUOUS
10
158.051
20
-136.118
11
158.051
21
-135.737
0
LINE
8
BLACK
6
CONTINUOUS
10
158.051
20
-135.737
11
158.146
21
-135.261
0
LINE
8
BLACK
6
CONTINUOUS
10
158.146
20
-135.261
11
158.242
21
-134.975
0
LINE
8
BLACK
6
CONTINUOUS
10
158.242
20
-134.975
11
158.337
21
-134.785
0
LINE
8
BLACK
6
CONTINUOUS
10
158.337
20
-134.785
11
158.527
21
-134.499
0
LINE
8
BLACK
6
CONTINUOUS
10
158.527
20
-134.499
11
158.623
21
-134.404
0
LINE
8
BLACK
6
CONTINUOUS
10
159.289
20
-134.88
11
159.385
21
-134.785
0
LINE
8
BLACK
6
CONTINUOUS
10
159.385
20
-134.785
11
159.575
21
-134.69
0
LINE
8
BLACK
6
CONTINUOUS
10
159.575
20
-134.69
11
160.051
21
-134.69
0
LINE
8
BLACK
6
CONTINUOUS
10
160.051
20
-134.69
11
160.242
21
-134.785
0
LINE
8
BLACK
6
CONTINUOUS
10
160.242
20
-134.785
11
160.337
21
-134.88
0
LINE
8
BLACK
6
CONTINUOUS
10
160.337
20
-134.88
11
160.432
21
-135.071
0
LINE
8
BLACK
6
CONTINUOUS
10
160.432
20
-135.071
11
160.432
21
-135.261
0
LINE
8
BLACK
6
CONTINUOUS
10
160.432
20
-135.261
11
160.337
21
-135.547
0
LINE
8
BLACK
6
CONTINUOUS
10
160.337
20
-135.547
11
159.194
21
-136.69
0
LINE
8
BLACK
6
CONTINUOUS
10
159.194
20
-136.69
11
160.432
21
-136.69
0
LINE
8
BLACK
6
CONTINUOUS
10
162.489
20
-136.69
11
162.489
21
-134.69
0
LINE
8
BLACK
6
CONTINUOUS
10
163.346
20
-136.69
11
163.346
21
-135.642
0
LINE
8
BLACK
6
CONTINUOUS
10
163.346
20
-135.642
11
163.251
21
-135.452
0
LINE
8
BLACK
6
CONTINUOUS
10
163.251
20
-135.452
11
163.061
21
-135.356
0
LINE
8
BLACK
6
CONTINUOUS
10
163.061
20
-135.356
11
162.775
21
-135.356
0
LINE
8
BLACK
6
CONTINUOUS
10
162.775
20
-135.356
11
162.585
21
-135.452
0
LINE
8
BLACK
6
CONTINUOUS
10
162.585
20
-135.452
11
162.489
21
-135.547
0
LINE
8
BLACK
6
CONTINUOUS
10
164.585
20
-136.69
11
164.394
21
-136.595
0
LINE
8
BLACK
6
CONTINUOUS
10
164.394
20
-136.595
11
164.299
21
-136.499
0
LINE
8
BLACK
6
CONTINUOUS
10
164.299
20
-136.499
11
164.204
21
-136.309
0
LINE
8
BLACK
6
CONTINUOUS
10
164.204
20
-136.309
11
164.204
21
-135.737
0
LINE
8
BLACK
6
CONTINUOUS
10
164.204
20
-135.737
11
164.299
21
-135.547
0
LINE
8
BLACK
6
CONTINUOUS
10
164.299
20
-135.547
11
164.394
21
-135.452
0
LINE
8
BLACK
6
CONTINUOUS
10
164.394
20
-135.452
11
164.585
21
-135.356
0
LINE
8
BLACK
6
CONTINUOUS
10
164.585
20
-135.356
11
164.87
21
-135.356
0
LINE
8
BLACK
6
CONTINUOUS
10
164.87
20
-135.356
11
165.061
21
-135.452
0
LINE
8
BLACK
6
CONTINUOUS
10
165.061
20
-135.452
11
165.156
21
-135.547
0
LINE
8
BLACK
6
CONTINUOUS
10
165.156
20
-135.547
11
165.251
21
-135.737
0
LINE
8
BLACK
6
CONTINUOUS
10
165.251
20
-135.737
11
165.251
21
-136.309
0
LINE
8
BLACK
6
CONTINUOUS
10
165.251
20
-136.309
11
165.156
21
-136.499
0
LINE
8
BLACK
6
CONTINUOUS
10
165.156
20
-136.499
11
165.061
21
-136.595
0
LINE
8
BLACK
6
CONTINUOUS
10
165.061
20
-136.595
11
164.87
21
-136.69
0
LINE
8
BLACK
6
CONTINUOUS
10
164.87
20
-136.69
11
164.585
21
-136.69
0
LINE
8
BLACK
6
CONTINUOUS
10
166.394
20
-136.69
11
166.204
21
-136.595
0
LINE
8
BLACK
6
CONTINUOUS
10
166.204
20
-136.595
11
166.108
21
-136.404
0
LINE
8
BLACK
6
CONTINUOUS
10
166.108
20
-136.404
11
166.108
21
-134.69
0
LINE
8
BLACK
6
CONTINUOUS
10
167.918
20
-136.595
11
167.727
21
-136.69
0
LINE
8
BLACK
6
CONTINUOUS
10
167.727
20
-136.69
11
167.346
21
-136.69
0
LINE
8
BLACK
6
CONTINUOUS
10
167.346
20
-136.69
11
167.156
21
-136.595
0
LINE
8
BLACK
6
CONTINUOUS
10
167.156
20
-136.595
11
167.061
21
-136.404
0
LINE
8
BLACK
6
CONTINUOUS
10
167.061
20
-136.404
11
167.061
21
-135.642
0
LINE
8
BLACK
6
CONTINUOUS
10
167.061
20
-135.642
11
167.156
21
-135.452
0
LINE
8
BLACK
6
CONTINUOUS
10
167.156
20
-135.452
11
167.346
21
-135.356
0
LINE
8
BLACK
6
CONTINUOUS
10
167.346
20
-135.356
11
167.727
21
-135.356
0
LINE
8
BLACK
6
CONTINUOUS
10
167.727
20
-135.356
11
167.918
21
-135.452
0
LINE
8
BLACK
6
CONTINUOUS
10
167.918
20
-135.452
11
168.013
21
-135.642
0
LINE
8
BLACK
6
CONTINUOUS
10
168.013
20
-135.642
11
168.013
21
-135.833
0
LINE
8
BLACK
6
CONTINUOUS
10
168.013
20
-135.833
11
167.061
21
-136.023
0
LINE
8
BLACK
6
CONTINUOUS
10
168.775
20
-136.595
11
168.965
21
-136.69
0
LINE
8
BLACK
6
CONTINUOUS
10
168.965
20
-136.69
11
169.346
21
-136.69
0
LINE
8
BLACK
6
CONTINUOUS
10
169.346
20
-136.69
11
169.537
21
-136.595
0
LINE
8
BLACK
6
CONTINUOUS
10
169.537
20
-136.595
11
169.632
21
-136.404
0
LINE
8
BLACK
6
CONTINUOUS
10
169.632
20
-136.404
11
169.632
21
-136.309
0
LINE
8
BLACK
6
CONTINUOUS
10
169.632
20
-136.309
11
169.537
21
-136.118
0
LINE
8
BLACK
6
CONTINUOUS
10
169.537
20
-136.118
11
169.346
21
-136.023
0
LINE
8
BLACK
6
CONTINUOUS
10
169.346
20
-136.023
11
169.061
21
-136.023
0
LINE
8
BLACK
6
CONTINUOUS
10
169.061
20
-136.023
11
168.87
21
-135.928
0
LINE
8
BLACK
6
CONTINUOUS
10
168.87
20
-135.928
11
168.775
21
-135.737
0
LINE
8
BLACK
6
CONTINUOUS
10
168.775
20
-135.737
11
168.775
21
-135.642
0
LINE
8
BLACK
6
CONTINUOUS
10
168.775
20
-135.642
11
168.87
21
-135.452
0
LINE
8
BLACK
6
CONTINUOUS
10
168.87
20
-135.452
11
169.061
21
-135.356
0
LINE
8
BLACK
6
CONTINUOUS
10
169.061
20
-135.356
11
169.346
21
-135.356
0
LINE
8
BLACK
6
CONTINUOUS
10
169.346
20
-135.356
11
169.537
21
-135.452
0
LINE
8
BLACK
6
CONTINUOUS
10
170.299
20
-137.452
11
170.394
21
-137.356
0
LINE
8
BLACK
6
CONTINUOUS
10
170.394
20
-137.356
11
170.585
21
-137.071
0
LINE
8
BLACK
6
CONTINUOUS
10
170.585
20
-137.071
11
170.68
21
-136.88
0
LINE
8
BLACK
6
CONTINUOUS
10
170.68
20
-136.88
11
170.775
21
-136.595
0
LINE
8
BLACK
6
CONTINUOUS
10
170.775
20
-136.595
11
170.87
21
-136.118
0
LINE
8
BLACK
6
CONTINUOUS
10
170.87
20
-136.118
11
170.87
21
-135.737
0
LINE
8
BLACK
6
CONTINUOUS
10
170.87
20
-135.737
11
170.775
21
-135.261
0
LINE
8
BLACK
6
CONTINUOUS
10
170.775
20
-135.261
11
170.68
21
-134.975
0
LINE
8
BLACK
6
CONTINUOUS
10
170.68
20
-134.975
11
170.585
21
-134.785
0
LINE
8
BLACK
6
CONTINUOUS
10
170.585
20
-134.785
11
170.394
21
-134.499
0
LINE
8
BLACK
6
CONTINUOUS
10
170.394
20
-134.499
11
170.299
21
-134.404
0
LINE
8
BLACK
6
CONTINUOUS
10
123.858
20
-138.878
11
123.858
21
-138.312
0
LINE
8
BLACK
6
CONTINUOUS
10
123.858
20
-138.312
11
123.292
21
-138.312
0
LINE
8
BLACK
6
CONTINUOUS
10
123.292
20
-138.312
11
123.292
21
-138.878
0
LINE
8
BLACK
6
CONTINUOUS
10
123.292
20
-138.878
11
123.858
21
-138.878
0
LINE
8
BLACK
6
CONTINUOUS
10
126.832
20
-137.33
11
127.023
21
-137.33
0
LINE
8
BLACK
6
CONTINUOUS
10
127.023
20
-137.33
11
127.213
21
-137.425
0
LINE
8
BLACK
6
CONTINUOUS
10
127.213
20
-137.425
11
127.308
21
-137.52
0
LINE
8
BLACK
6
CONTINUOUS
10
127.308
20
-137.52
11
127.404
21
-137.711
0
LINE
8
BLACK
6
CONTINUOUS
10
127.404
20
-137.711
11
127.499
21
-138.092
0
LINE
8
BLACK
6
CONTINUOUS
10
127.499
20
-138.092
11
127.499
21
-138.568
0
LINE
8
BLACK
6
CONTINUOUS
10
127.499
20
-138.568
11
127.404
21
-138.949
0
LINE
8
BLACK
6
CONTINUOUS
10
127.404
20
-138.949
11
127.308
21
-139.139
0
LINE
8
BLACK
6
CONTINUOUS
10
127.308
20
-139.139
11
127.213
21
-139.235
0
LINE
8
BLACK
6
CONTINUOUS
10
127.213
20
-139.235
11
127.023
21
-139.33
0
LINE
8
BLACK
6
CONTINUOUS
10
127.023
20
-139.33
11
126.832
21
-139.33
0
LINE
8
BLACK
6
CONTINUOUS
10
126.832
20
-139.33
11
126.642
21
-139.235
0
LINE
8
BLACK
6
CONTINUOUS
10
126.642
20
-139.235
11
126.546
21
-139.139
0
LINE
8
BLACK
6
CONTINUOUS
10
126.546
20
-139.139
11
126.451
21
-138.949
0
LINE
8
BLACK
6
CONTINUOUS
10
126.451
20
-138.949
11
126.356
21
-138.568
0
LINE
8
BLACK
6
CONTINUOUS
10
126.356
20
-138.568
11
126.356
21
-138.092
0
LINE
8
BLACK
6
CONTINUOUS
10
126.356
20
-138.092
11
126.451
21
-137.711
0
LINE
8
BLACK
6
CONTINUOUS
10
126.451
20
-137.711
11
126.546
21
-137.52
0
LINE
8
BLACK
6
CONTINUOUS
10
126.546
20
-137.52
11
126.642
21
-137.425
0
LINE
8
BLACK
6
CONTINUOUS
10
126.642
20
-137.425
11
126.832
21
-137.33
0
LINE
8
BLACK
6
CONTINUOUS
10
128.356
20
-139.139
11
128.451
21
-139.235
0
LINE
8
BLACK
6
CONTINUOUS
10
128.451
20
-139.235
11
128.356
21
-139.33
0
LINE
8
BLACK
6
CONTINUOUS
10
128.356
20
-139.33
11
128.261
21
-139.235
0
LINE
8
BLACK
6
CONTINUOUS
10
128.261
20
-139.235
11
128.356
21
-139.139
0
LINE
8
BLACK
6
CONTINUOUS
10
128.356
20
-139.139
11
128.356
21
-139.33
0
LINE
8
BLACK
6
CONTINUOUS
10
129.594
20
-138.187
11
129.404
21
-138.092
0
LINE
8
BLACK
6
CONTINUOUS
10
129.404
20
-138.092
11
129.308
21
-137.996
0
LINE
8
BLACK
6
CONTINUOUS
10
129.308
20
-137.996
11
129.213
21
-137.806
0
LINE
8
BLACK
6
CONTINUOUS
10
129.213
20
-137.806
11
129.213
21
-137.711
0
LINE
8
BLACK
6
CONTINUOUS
10
129.213
20
-137.711
11
129.308
21
-137.52
0
LINE
8
BLACK
6
CONTINUOUS
10
129.308
20
-137.52
11
129.404
21
-137.425
0
LINE
8
BLACK
6
CONTINUOUS
10
129.404
20
-137.425
11
129.594
21
-137.33
0
LINE
8
BLACK
6
CONTINUOUS
10
129.594
20
-137.33
11
129.975
21
-137.33
0
LINE
8
BLACK
6
CONTINUOUS
10
129.975
20
-137.33
11
130.165
21
-137.425
0
LINE
8
BLACK
6
CONTINUOUS
10
130.165
20
-137.425
11
130.261
21
-137.52
0
LINE
8
BLACK
6
CONTINUOUS
10
130.261
20
-137.52
11
130.356
21
-137.711
0
LINE
8
BLACK
6
CONTINUOUS
10
130.356
20
-137.711
11
130.356
21
-137.806
0
LINE
8
BLACK
6
CONTINUOUS
10
130.356
20
-137.806
11
130.261
21
-137.996
0
LINE
8
BLACK
6
CONTINUOUS
10
130.261
20
-137.996
11
130.165
21
-138.092
0
LINE
8
BLACK
6
CONTINUOUS
10
130.165
20
-138.092
11
129.975
21
-138.187
0
LINE
8
BLACK
6
CONTINUOUS
10
129.975
20
-138.187
11
129.594
21
-138.187
0
LINE
8
BLACK
6
CONTINUOUS
10
129.594
20
-138.187
11
129.404
21
-138.282
0
LINE
8
BLACK
6
CONTINUOUS
10
129.404
20
-138.282
11
129.308
21
-138.377
0
LINE
8
BLACK
6
CONTINUOUS
10
129.308
20
-138.377
11
129.213
21
-138.568
0
LINE
8
BLACK
6
CONTINUOUS
10
129.213
20
-138.568
11
129.213
21
-138.949
0
LINE
8
BLACK
6
CONTINUOUS
10
129.213
20
-138.949
11
129.308
21
-139.139
0
LINE
8
BLACK
6
CONTINUOUS
10
129.308
20
-139.139
11
129.404
21
-139.235
0
LINE
8
BLACK
6
CONTINUOUS
10
129.404
20
-139.235
11
129.594
21
-139.33
0
LINE
8
BLACK
6
CONTINUOUS
10
129.594
20
-139.33
11
129.975
21
-139.33
0
LINE
8
BLACK
6
CONTINUOUS
10
129.975
20
-139.33
11
130.165
21
-139.235
0
LINE
8
BLACK
6
CONTINUOUS
10
130.165
20
-139.235
11
130.261
21
-139.139
0
LINE
8
BLACK
6
CONTINUOUS
10
130.261
20
-139.139
11
130.356
21
-138.949
0
LINE
8
BLACK
6
CONTINUOUS
10
130.356
20
-138.949
11
130.356
21
-138.568
0
LINE
8
BLACK
6
CONTINUOUS
10
130.356
20
-138.568
11
130.261
21
-138.377
0
LINE
8
BLACK
6
CONTINUOUS
10
130.261
20
-138.377
11
130.165
21
-138.282
0
LINE
8
BLACK
6
CONTINUOUS
10
130.165
20
-138.282
11
129.975
21
-138.187
0
LINE
8
BLACK
6
CONTINUOUS
10
131.594
20
-137.33
11
131.785
21
-137.33
0
LINE
8
BLACK
6
CONTINUOUS
10
131.785
20
-137.33
11
131.975
21
-137.425
0
LINE
8
BLACK
6
CONTINUOUS
10
131.975
20
-137.425
11
132.07
21
-137.52
0
LINE
8
BLACK
6
CONTINUOUS
10
132.07
20
-137.52
11
132.165
21
-137.711
0
LINE
8
BLACK
6
CONTINUOUS
10
132.165
20
-137.711
11
132.261
21
-138.092
0
LINE
8
BLACK
6
CONTINUOUS
10
132.261
20
-138.092
11
132.261
21
-138.568
0
LINE
8
BLACK
6
CONTINUOUS
10
132.261
20
-138.568
11
132.165
21
-138.949
0
LINE
8
BLACK
6
CONTINUOUS
10
132.165
20
-138.949
11
132.07
21
-139.139
0
LINE
8
BLACK
6
CONTINUOUS
10
132.07
20
-139.139
11
131.975
21
-139.235
0
LINE
8
BLACK
6
CONTINUOUS
10
131.975
20
-139.235
11
131.785
21
-139.33
0
LINE
8
BLACK
6
CONTINUOUS
10
131.785
20
-139.33
11
131.594
21
-139.33
0
LINE
8
BLACK
6
CONTINUOUS
10
131.594
20
-139.33
11
131.404
21
-139.235
0
LINE
8
BLACK
6
CONTINUOUS
10
131.404
20
-139.235
11
131.308
21
-139.139
0
LINE
8
BLACK
6
CONTINUOUS
10
131.308
20
-139.139
11
131.213
21
-138.949
0
LINE
8
BLACK
6
CONTINUOUS
10
131.213
20
-138.949
11
131.118
21
-138.568
0
LINE
8
BLACK
6
CONTINUOUS
10
131.118
20
-138.568
11
131.118
21
-138.092
0
LINE
8
BLACK
6
CONTINUOUS
10
131.118
20
-138.092
11
131.213
21
-137.711
0
LINE
8
BLACK
6
CONTINUOUS
10
131.213
20
-137.711
11
131.308
21
-137.52
0
LINE
8
BLACK
6
CONTINUOUS
10
131.308
20
-137.52
11
131.404
21
-137.425
0
LINE
8
BLACK
6
CONTINUOUS
10
131.404
20
-137.425
11
131.594
21
-137.33
0
LINE
8
BLACK
6
CONTINUOUS
10
133.499
20
-137.33
11
133.689
21
-137.33
0
LINE
8
BLACK
6
CONTINUOUS
10
133.689
20
-137.33
11
133.88
21
-137.425
0
LINE
8
BLACK
6
CONTINUOUS
10
133.88
20
-137.425
11
133.975
21
-137.52
0
LINE
8
BLACK
6
CONTINUOUS
10
133.975
20
-137.52
11
134.07
21
-137.711
0
LINE
8
BLACK
6
CONTINUOUS
10
134.07
20
-137.711
11
134.165
21
-138.092
0
LINE
8
BLACK
6
CONTINUOUS
10
134.165
20
-138.092
11
134.165
21
-138.568
0
LINE
8
BLACK
6
CONTINUOUS
10
134.165
20
-138.568
11
134.07
21
-138.949
0
LINE
8
BLACK
6
CONTINUOUS
10
134.07
20
-138.949
11
133.975
21
-139.139
0
LINE
8
BLACK
6
CONTINUOUS
10
133.975
20
-139.139
11
133.88
21
-139.235
0
LINE
8
BLACK
6
CONTINUOUS
10
133.88
20
-139.235
11
133.689
21
-139.33
0
LINE
8
BLACK
6
CONTINUOUS
10
133.689
20
-139.33
11
133.499
21
-139.33
0
LINE
8
BLACK
6
CONTINUOUS
10
133.499
20
-139.33
11
133.308
21
-139.235
0
LINE
8
BLACK
6
CONTINUOUS
10
133.308
20
-139.235
11
133.213
21
-139.139
0
LINE
8
BLACK
6
CONTINUOUS
10
133.213
20
-139.139
11
133.118
21
-138.949
0
LINE
8
BLACK
6
CONTINUOUS
10
133.118
20
-138.949
11
133.023
21
-138.568
0
LINE
8
BLACK
6
CONTINUOUS
10
133.023
20
-138.568
11
133.023
21
-138.092
0
LINE
8
BLACK
6
CONTINUOUS
10
133.023
20
-138.092
11
133.118
21
-137.711
0
LINE
8
BLACK
6
CONTINUOUS
10
133.118
20
-137.711
11
133.213
21
-137.52
0
LINE
8
BLACK
6
CONTINUOUS
10
133.213
20
-137.52
11
133.308
21
-137.425
0
LINE
8
BLACK
6
CONTINUOUS
10
133.308
20
-137.425
11
133.499
21
-137.33
0
LINE
8
BLACK
6
CONTINUOUS
10
135.023
20
-139.33
11
135.023
21
-137.996
0
LINE
8
BLACK
6
CONTINUOUS
10
135.023
20
-138.187
11
135.118
21
-138.092
0
LINE
8
BLACK
6
CONTINUOUS
10
135.118
20
-138.092
11
135.308
21
-137.996
0
LINE
8
BLACK
6
CONTINUOUS
10
135.308
20
-137.996
11
135.594
21
-137.996
0
LINE
8
BLACK
6
CONTINUOUS
10
135.594
20
-137.996
11
135.785
21
-138.092
0
LINE
8
BLACK
6
CONTINUOUS
10
135.785
20
-138.092
11
135.88
21
-138.282
0
LINE
8
BLACK
6
CONTINUOUS
10
135.88
20
-138.282
11
135.88
21
-139.33
0
LINE
8
BLACK
6
CONTINUOUS
10
135.88
20
-138.282
11
135.975
21
-138.092
0
LINE
8
BLACK
6
CONTINUOUS
10
135.975
20
-138.092
11
136.165
21
-137.996
0
LINE
8
BLACK
6
CONTINUOUS
10
136.165
20
-137.996
11
136.451
21
-137.996
0
LINE
8
BLACK
6
CONTINUOUS
10
136.451
20
-137.996
11
136.642
21
-138.092
0
LINE
8
BLACK
6
CONTINUOUS
10
136.642
20
-138.092
11
136.737
21
-138.282
0
LINE
8
BLACK
6
CONTINUOUS
10
136.737
20
-138.282
11
136.737
21
-139.33
0
LINE
8
BLACK
6
CONTINUOUS
10
137.689
20
-139.33
11
137.689
21
-137.996
0
LINE
8
BLACK
6
CONTINUOUS
10
137.689
20
-138.187
11
137.785
21
-138.092
0
LINE
8
BLACK
6
CONTINUOUS
10
137.785
20
-138.092
11
137.975
21
-137.996
0
LINE
8
BLACK
6
CONTINUOUS
10
137.975
20
-137.996
11
138.261
21
-137.996
0
LINE
8
BLACK
6
CONTINUOUS
10
138.261
20
-137.996
11
138.451
21
-138.092
0
LINE
8
BLACK
6
CONTINUOUS
10
138.451
20
-138.092
11
138.546
21
-138.282
0
LINE
8
BLACK
6
CONTINUOUS
10
138.546
20
-138.282
11
138.546
21
-139.33
0
LINE
8
BLACK
6
CONTINUOUS
10
138.546
20
-138.282
11
138.642
21
-138.092
0
LINE
8
BLACK
6
CONTINUOUS
10
138.642
20
-138.092
11
138.832
21
-137.996
0
LINE
8
BLACK
6
CONTINUOUS
10
138.832
20
-137.996
11
139.118
21
-137.996
0
LINE
8
BLACK
6
CONTINUOUS
10
139.118
20
-137.996
11
139.308
21
-138.092
0
LINE
8
BLACK
6
CONTINUOUS
10
139.308
20
-138.092
11
139.404
21
-138.282
0
LINE
8
BLACK
6
CONTINUOUS
10
139.404
20
-138.282
11
139.404
21
-139.33
0
LINE
8
BLACK
6
CONTINUOUS
10
142.985
20
-137.235
11
141.27
21
-139.806
0
LINE
8
BLACK
6
CONTINUOUS
10
145.232
20
-137.33
11
145.423
21
-137.33
0
LINE
8
BLACK
6
CONTINUOUS
10
145.423
20
-137.33
11
145.613
21
-137.425
0
LINE
8
BLACK
6
CONTINUOUS
10
145.613
20
-137.425
11
145.708
21
-137.52
0
LINE
8
BLACK
6
CONTINUOUS
10
145.708
20
-137.52
11
145.804
21
-137.711
0
LINE
8
BLACK
6
CONTINUOUS
10
145.804
20
-137.711
11
145.899
21
-138.092
0
LINE
8
BLACK
6
CONTINUOUS
10
145.899
20
-138.092
11
145.899
21
-138.568
0
LINE
8
BLACK
6
CONTINUOUS
10
145.899
20
-138.568
11
145.804
21
-138.949
0
LINE
8
BLACK
6
CONTINUOUS
10
145.804
20
-138.949
11
145.708
21
-139.139
0
LINE
8
BLACK
6
CONTINUOUS
10
145.708
20
-139.139
11
145.613
21
-139.235
0
LINE
8
BLACK
6
CONTINUOUS
10
145.613
20
-139.235
11
145.423
21
-139.33
0
LINE
8
BLACK
6
CONTINUOUS
10
145.423
20
-139.33
11
145.232
21
-139.33
0
LINE
8
BLACK
6
CONTINUOUS
10
145.232
20
-139.33
11
145.042
21
-139.235
0
LINE
8
BLACK
6
CONTINUOUS
10
145.042
20
-139.235
11
144.946
21
-139.139
0
LINE
8
BLACK
6
CONTINUOUS
10
144.946
20
-139.139
11
144.851
21
-138.949
0
LINE
8
BLACK
6
CONTINUOUS
10
144.851
20
-138.949
11
144.756
21
-138.568
0
LINE
8
BLACK
6
CONTINUOUS
10
144.756
20
-138.568
11
144.756
21
-138.092
0
LINE
8
BLACK
6
CONTINUOUS
10
144.756
20
-138.092
11
144.851
21
-137.711
0
LINE
8
BLACK
6
CONTINUOUS
10
144.851
20
-137.711
11
144.946
21
-137.52
0
LINE
8
BLACK
6
CONTINUOUS
10
144.946
20
-137.52
11
145.042
21
-137.425
0
LINE
8
BLACK
6
CONTINUOUS
10
145.042
20
-137.425
11
145.232
21
-137.33
0
LINE
8
BLACK
6
CONTINUOUS
10
146.756
20
-139.139
11
146.851
21
-139.235
0
LINE
8
BLACK
6
CONTINUOUS
10
146.851
20
-139.235
11
146.756
21
-139.33
0
LINE
8
BLACK
6
CONTINUOUS
10
146.756
20
-139.33
11
146.661
21
-139.235
0
LINE
8
BLACK
6
CONTINUOUS
10
146.661
20
-139.235
11
146.756
21
-139.139
0
LINE
8
BLACK
6
CONTINUOUS
10
146.756
20
-139.139
11
146.756
21
-139.33
0
LINE
8
BLACK
6
CONTINUOUS
10
148.089
20
-137.33
11
148.28
21
-137.33
0
LINE
8
BLACK
6
CONTINUOUS
10
148.28
20
-137.33
11
148.47
21
-137.425
0
LINE
8
BLACK
6
CONTINUOUS
10
148.47
20
-137.425
11
148.565
21
-137.52
0
LINE
8
BLACK
6
CONTINUOUS
10
148.565
20
-137.52
11
148.661
21
-137.711
0
LINE
8
BLACK
6
CONTINUOUS
10
148.661
20
-137.711
11
148.756
21
-138.092
0
LINE
8
BLACK
6
CONTINUOUS
10
148.756
20
-138.092
11
148.756
21
-138.568
0
LINE
8
BLACK
6
CONTINUOUS
10
148.756
20
-138.568
11
148.661
21
-138.949
0
LINE
8
BLACK
6
CONTINUOUS
10
148.661
20
-138.949
11
148.565
21
-139.139
0
LINE
8
BLACK
6
CONTINUOUS
10
148.565
20
-139.139
11
148.47
21
-139.235
0
LINE
8
BLACK
6
CONTINUOUS
10
148.47
20
-139.235
11
148.28
21
-139.33
0
LINE
8
BLACK
6
CONTINUOUS
10
148.28
20
-139.33
11
148.089
21
-139.33
0
LINE
8
BLACK
6
CONTINUOUS
10
148.089
20
-139.33
11
147.899
21
-139.235
0
LINE
8
BLACK
6
CONTINUOUS
10
147.899
20
-139.235
11
147.804
21
-139.139
0
LINE
8
BLACK
6
CONTINUOUS
10
147.804
20
-139.139
11
147.708
21
-138.949
0
LINE
8
BLACK
6
CONTINUOUS
10
147.708
20
-138.949
11
147.613
21
-138.568
0
LINE
8
BLACK
6
CONTINUOUS
10
147.613
20
-138.568
11
147.613
21
-138.092
0
LINE
8
BLACK
6
CONTINUOUS
10
147.613
20
-138.092
11
147.708
21
-137.711
0
LINE
8
BLACK
6
CONTINUOUS
10
147.708
20
-137.711
11
147.804
21
-137.52
0
LINE
8
BLACK
6
CONTINUOUS
10
147.804
20
-137.52
11
147.899
21
-137.425
0
LINE
8
BLACK
6
CONTINUOUS
10
147.899
20
-137.425
11
148.089
21
-137.33
0
LINE
8
BLACK
6
CONTINUOUS
10
149.423
20
-137.33
11
150.661
21
-137.33
0
LINE
8
BLACK
6
CONTINUOUS
10
150.661
20
-137.33
11
149.994
21
-138.092
0
LINE
8
BLACK
6
CONTINUOUS
10
149.994
20
-138.092
11
150.28
21
-138.092
0
LINE
8
BLACK
6
CONTINUOUS
10
150.28
20
-138.092
11
150.47
21
-138.187
0
LINE
8
BLACK
6
CONTINUOUS
10
150.47
20
-138.187
11
150.565
21
-138.282
0
LINE
8
BLACK
6
CONTINUOUS
10
150.565
20
-138.282
11
150.661
21
-138.473
0
LINE
8
BLACK
6
CONTINUOUS
10
150.661
20
-138.473
11
150.661
21
-138.949
0
LINE
8
BLACK
6
CONTINUOUS
10
150.661
20
-138.949
11
150.565
21
-139.139
0
LINE
8
BLACK
6
CONTINUOUS
10
150.565
20
-139.139
11
150.47
21
-139.235
0
LINE
8
BLACK
6
CONTINUOUS
10
150.47
20
-139.235
11
150.28
21
-139.33
0
LINE
8
BLACK
6
CONTINUOUS
10
150.28
20
-139.33
11
149.708
21
-139.33
0
LINE
8
BLACK
6
CONTINUOUS
10
149.708
20
-139.33
11
149.518
21
-139.235
0
LINE
8
BLACK
6
CONTINUOUS
10
149.518
20
-139.235
11
149.423
21
-139.139
0
LINE
8
BLACK
6
CONTINUOUS
10
152.565
20
-139.33
11
151.423
21
-139.33
0
LINE
8
BLACK
6
CONTINUOUS
10
151.994
20
-139.33
11
151.994
21
-137.33
0
LINE
8
BLACK
6
CONTINUOUS
10
151.994
20
-137.33
11
151.804
21
-137.615
0
LINE
8
BLACK
6
CONTINUOUS
10
151.804
20
-137.615
11
151.613
21
-137.806
0
LINE
8
BLACK
6
CONTINUOUS
10
151.613
20
-137.806
11
151.423
21
-137.901
0
LINE
8
BLACK
6
CONTINUOUS
10
154.375
20
-137.33
11
153.423
21
-137.33
0
LINE
8
BLACK
6
CONTINUOUS
10
153.423
20
-137.33
11
153.327
21
-138.282
0
LINE
8
BLACK
6
CONTINUOUS
10
153.327
20
-138.282
11
153.423
21
-138.187
0
LINE
8
BLACK
6
CONTINUOUS
10
153.423
20
-138.187
11
153.613
21
-138.092
0
LINE
8
BLACK
6
CONTINUOUS
10
153.613
20
-138.092
11
154.089
21
-138.092
0
LINE
8
BLACK
6
CONTINUOUS
10
154.089
20
-138.092
11
154.28
21
-138.187
0
LINE
8
BLACK
6
CONTINUOUS
10
154.28
20
-138.187
11
154.375
21
-138.282
0
LINE
8
BLACK
6
CONTINUOUS
10
154.375
20
-138.282
11
154.47
21
-138.473
0
LINE
8
BLACK
6
CONTINUOUS
10
154.47
20
-138.473
11
154.47
21
-138.949
0
LINE
8
BLACK
6
CONTINUOUS
10
154.47
20
-138.949
11
154.375
21
-139.139
0
LINE
8
BLACK
6
CONTINUOUS
10
154.375
20
-139.139
11
154.28
21
-139.235
0
LINE
8
BLACK
6
CONTINUOUS
10
154.28
20
-139.235
11
154.089
21
-139.33
0
LINE
8
BLACK
6
CONTINUOUS
10
154.089
20
-139.33
11
153.613
21
-139.33
0
LINE
8
BLACK
6
CONTINUOUS
10
153.613
20
-139.33
11
153.423
21
-139.235
0
LINE
8
BLACK
6
CONTINUOUS
10
153.423
20
-139.235
11
153.327
21
-139.139
0
LINE
8
BLACK
6
CONTINUOUS
10
155.232
20
-137.33
11
155.232
21
-137.711
0
LINE
8
BLACK
6
CONTINUOUS
10
155.994
20
-137.33
11
155.994
21
-137.711
0
LINE
8
BLACK
6
CONTINUOUS
10
158.623
20
-140.092
11
158.527
21
-139.996
0
LINE
8
BLACK
6
CONTINUOUS
10
158.527
20
-139.996
11
158.337
21
-139.711
0
LINE
8
BLACK
6
CONTINUOUS
10
158.337
20
-139.711
11
158.242
21
-139.52
0
LINE
8
BLACK
6
CONTINUOUS
10
158.242
20
-139.52
11
158.146
21
-139.235
0
LINE
8
BLACK
6
CONTINUOUS
10
158.146
20
-139.235
11
158.051
21
-138.758
0
LINE
8
BLACK
6
CONTINUOUS
10
158.051
20
-138.758
11
158.051
21
-138.377
0
LINE
8
BLACK
6
CONTINUOUS
10
158.051
20
-138.377
11
158.146
21
-137.901
0
LINE
8
BLACK
6
CONTINUOUS
10
158.146
20
-137.901
11
158.242
21
-137.615
0
LINE
8
BLACK
6
CONTINUOUS
10
158.242
20
-137.615
11
158.337
21
-137.425
0
LINE
8
BLACK
6
CONTINUOUS
10
158.337
20
-137.425
11
158.527
21
-137.139
0
LINE
8
BLACK
6
CONTINUOUS
10
158.527
20
-137.139
11
158.623
21
-137.044
0
LINE
8
BLACK
6
CONTINUOUS
10
159.289
20
-137.52
11
159.385
21
-137.425
0
LINE
8
BLACK
6
CONTINUOUS
10
159.385
20
-137.425
11
159.575
21
-137.33
0
LINE
8
BLACK
6
CONTINUOUS
10
159.575
20
-137.33
11
160.051
21
-137.33
0
LINE
8
BLACK
6
CONTINUOUS
10
160.051
20
-137.33
11
160.242
21
-137.425
0
LINE
8
BLACK
6
CONTINUOUS
10
160.242
20
-137.425
11
160.337
21
-137.52
0
LINE
8
BLACK
6
CONTINUOUS
10
160.337
20
-137.52
11
160.432
21
-137.711
0
LINE
8
BLACK
6
CONTINUOUS
10
160.432
20
-137.711
11
160.432
21
-137.901
0
LINE
8
BLACK
6
CONTINUOUS
10
160.432
20
-137.901
11
160.337
21
-138.187
0
LINE
8
BLACK
6
CONTINUOUS
10
160.337
20
-138.187
11
159.194
21
-139.33
0
LINE
8
BLACK
6
CONTINUOUS
10
159.194
20
-139.33
11
160.432
21
-139.33
0
LINE
8
BLACK
6
CONTINUOUS
10
162.489
20
-139.33
11
162.489
21
-137.33
0
LINE
8
BLACK
6
CONTINUOUS
10
163.346
20
-139.33
11
163.346
21
-138.282
0
LINE
8
BLACK
6
CONTINUOUS
10
163.346
20
-138.282
11
163.251
21
-138.092
0
LINE
8
BLACK
6
CONTINUOUS
10
163.251
20
-138.092
11
163.061
21
-137.996
0
LINE
8
BLACK
6
CONTINUOUS
10
163.061
20
-137.996
11
162.775
21
-137.996
0
LINE
8
BLACK
6
CONTINUOUS
10
162.775
20
-137.996
11
162.585
21
-138.092
0
LINE
8
BLACK
6
CONTINUOUS
10
162.585
20
-138.092
11
162.489
21
-138.187
0
LINE
8
BLACK
6
CONTINUOUS
10
164.585
20
-139.33
11
164.394
21
-139.235
0
LINE
8
BLACK
6
CONTINUOUS
10
164.394
20
-139.235
11
164.299
21
-139.139
0
LINE
8
BLACK
6
CONTINUOUS
10
164.299
20
-139.139
11
164.204
21
-138.949
0
LINE
8
BLACK
6
CONTINUOUS
10
164.204
20
-138.949
11
164.204
21
-138.377
0
LINE
8
BLACK
6
CONTINUOUS
10
164.204
20
-138.377
11
164.299
21
-138.187
0
LINE
8
BLACK
6
CONTINUOUS
10
164.299
20
-138.187
11
164.394
21
-138.092
0
LINE
8
BLACK
6
CONTINUOUS
10
164.394
20
-138.092
11
164.585
21
-137.996
0
LINE
8
BLACK
6
CONTINUOUS
10
164.585
20
-137.996
11
164.87
21
-137.996
0
LINE
8
BLACK
6
CONTINUOUS
10
164.87
20
-137.996
11
165.061
21
-138.092
0
LINE
8
BLACK
6
CONTINUOUS
10
165.061
20
-138.092
11
165.156
21
-138.187
0
LINE
8
BLACK
6
CONTINUOUS
10
165.156
20
-138.187
11
165.251
21
-138.377
0
LINE
8
BLACK
6
CONTINUOUS
10
165.251
20
-138.377
11
165.251
21
-138.949
0
LINE
8
BLACK
6
CONTINUOUS
10
165.251
20
-138.949
11
165.156
21
-139.139
0
LINE
8
BLACK
6
CONTINUOUS
10
165.156
20
-139.139
11
165.061
21
-139.235
0
LINE
8
BLACK
6
CONTINUOUS
10
165.061
20
-139.235
11
164.87
21
-139.33
0
LINE
8
BLACK
6
CONTINUOUS
10
164.87
20
-139.33
11
164.585
21
-139.33
0
LINE
8
BLACK
6
CONTINUOUS
10
166.394
20
-139.33
11
166.204
21
-139.235
0
LINE
8
BLACK
6
CONTINUOUS
10
166.204
20
-139.235
11
166.108
21
-139.044
0
LINE
8
BLACK
6
CONTINUOUS
10
166.108
20
-139.044
11
166.108
21
-137.33
0
LINE
8
BLACK
6
CONTINUOUS
10
167.918
20
-139.235
11
167.727
21
-139.33
0
LINE
8
BLACK
6
CONTINUOUS
10
167.727
20
-139.33
11
167.346
21
-139.33
0
LINE
8
BLACK
6
CONTINUOUS
10
167.346
20
-139.33
11
167.156
21
-139.235
0
LINE
8
BLACK
6
CONTINUOUS
10
167.156
20
-139.235
11
167.061
21
-139.044
0
LINE
8
BLACK
6
CONTINUOUS
10
167.061
20
-139.044
11
167.061
21
-138.282
0
LINE
8
BLACK
6
CONTINUOUS
10
167.061
20
-138.282
11
167.156
21
-138.092
0
LINE
8
BLACK
6
CONTINUOUS
10
167.156
20
-138.092
11
167.346
21
-137.996
0
LINE
8
BLACK
6
CONTINUOUS
10
167.346
20
-137.996
11
167.727
21
-137.996
0
LINE
8
BLACK
6
CONTINUOUS
10
167.727
20
-137.996
11
167.918
21
-138.092
0
LINE
8
BLACK
6
CONTINUOUS
10
167.918
20
-138.092
11
168.013
21
-138.282
0
LINE
8
BLACK
6
CONTINUOUS
10
168.013
20
-138.282
11
168.013
21
-138.473
0
LINE
8
BLACK
6
CONTINUOUS
10
168.013
20
-138.473
11
167.061
21
-138.663
0
LINE
8
BLACK
6
CONTINUOUS
10
168.775
20
-139.235
11
168.965
21
-139.33
0
LINE
8
BLACK
6
CONTINUOUS
10
168.965
20
-139.33
11
169.346
21
-139.33
0
LINE
8
BLACK
6
CONTINUOUS
10
169.346
20
-139.33
11
169.537
21
-139.235
0
LINE
8
BLACK
6
CONTINUOUS
10
169.537
20
-139.235
11
169.632
21
-139.044
0
LINE
8
BLACK
6
CONTINUOUS
10
169.632
20
-139.044
11
169.632
21
-138.949
0
LINE
8
BLACK
6
CONTINUOUS
10
169.632
20
-138.949
11
169.537
21
-138.758
0
LINE
8
BLACK
6
CONTINUOUS
10
169.537
20
-138.758
11
169.346
21
-138.663
0
LINE
8
BLACK
6
CONTINUOUS
10
169.346
20
-138.663
11
169.061
21
-138.663
0
LINE
8
BLACK
6
CONTINUOUS
10
169.061
20
-138.663
11
168.87
21
-138.568
0
LINE
8
BLACK
6
CONTINUOUS
10
168.87
20
-138.568
11
168.775
21
-138.377
0
LINE
8
BLACK
6
CONTINUOUS
10
168.775
20
-138.377
11
168.775
21
-138.282
0
LINE
8
BLACK
6
CONTINUOUS
10
168.775
20
-138.282
11
168.87
21
-138.092
0
LINE
8
BLACK
6
CONTINUOUS
10
168.87
20
-138.092
11
169.061
21
-137.996
0
LINE
8
BLACK
6
CONTINUOUS
10
169.061
20
-137.996
11
169.346
21
-137.996
0
LINE
8
BLACK
6
CONTINUOUS
10
169.346
20
-137.996
11
169.537
21
-138.092
0
LINE
8
BLACK
6
CONTINUOUS
10
170.299
20
-140.092
11
170.394
21
-139.996
0
LINE
8
BLACK
6
CONTINUOUS
10
170.394
20
-139.996
11
170.585
21
-139.711
0
LINE
8
BLACK
6
CONTINUOUS
10
170.585
20
-139.711
11
170.68
21
-139.52
0
LINE
8
BLACK
6
CONTINUOUS
10
170.68
20
-139.52
11
170.775
21
-139.235
0
LINE
8
BLACK
6
CONTINUOUS
10
170.775
20
-139.235
11
170.87
21
-138.758
0
LINE
8
BLACK
6
CONTINUOUS
10
170.87
20
-138.758
11
170.87
21
-138.377
0
LINE
8
BLACK
6
CONTINUOUS
10
170.87
20
-138.377
11
170.775
21
-137.901
0
LINE
8
BLACK
6
CONTINUOUS
10
170.775
20
-137.901
11
170.68
21
-137.615
0
LINE
8
BLACK
6
CONTINUOUS
10
170.68
20
-137.615
11
170.585
21
-137.425
0
LINE
8
BLACK
6
CONTINUOUS
10
170.585
20
-137.425
11
170.394
21
-137.139
0
LINE
8
BLACK
6
CONTINUOUS
10
170.394
20
-137.139
11
170.299
21
-137.044
0
LINE
8
BLACK
6
CONTINUOUS
10
123.475
20
-141.735
11
123.975
21
-141.235
0
LINE
8
BLACK
6
CONTINUOUS
10
123.975
20
-141.235
11
123.475
21
-140.735
0
LINE
8
BLACK
6
CONTINUOUS
10
123.475
20
-140.735
11
122.975
21
-141.235
0
LINE
8
BLACK
6
CONTINUOUS
10
122.975
20
-141.235
11
123.475
21
-141.735
0
LINE
8
BLACK
6
CONTINUOUS
10
127.499
20
-141.97
11
126.356
21
-141.97
0
LINE
8
BLACK
6
CONTINUOUS
10
126.927
20
-141.97
11
126.927
21
-139.97
0
LINE
8
BLACK
6
CONTINUOUS
10
126.927
20
-139.97
11
126.737
21
-140.255
0
LINE
8
BLACK
6
CONTINUOUS
10
126.737
20
-140.255
11
126.546
21
-140.446
0
LINE
8
BLACK
6
CONTINUOUS
10
126.546
20
-140.446
11
126.356
21
-140.541
0
LINE
8
BLACK
6
CONTINUOUS
10
128.356
20
-141.779
11
128.451
21
-141.875
0
LINE
8
BLACK
6
CONTINUOUS
10
128.451
20
-141.875
11
128.356
21
-141.97
0
LINE
8
BLACK
6
CONTINUOUS
10
128.356
20
-141.97
11
128.261
21
-141.875
0
LINE
8
BLACK
6
CONTINUOUS
10
128.261
20
-141.875
11
128.356
21
-141.779
0
LINE
8
BLACK
6
CONTINUOUS
10
128.356
20
-141.779
11
128.356
21
-141.97
0
LINE
8
BLACK
6
CONTINUOUS
10
129.689
20
-139.97
11
129.88
21
-139.97
0
LINE
8
BLACK
6
CONTINUOUS
10
129.88
20
-139.97
11
130.07
21
-140.065
0
LINE
8
BLACK
6
CONTINUOUS
10
130.07
20
-140.065
11
130.165
21
-140.16
0
LINE
8
BLACK
6
CONTINUOUS
10
130.165
20
-140.16
11
130.261
21
-140.351
0
LINE
8
BLACK
6
CONTINUOUS
10
130.261
20
-140.351
11
130.356
21
-140.732
0
LINE
8
BLACK
6
CONTINUOUS
10
130.356
20
-140.732
11
130.356
21
-141.208
0
LINE
8
BLACK
6
CONTINUOUS
10
130.356
20
-141.208
11
130.261
21
-141.589
0
LINE
8
BLACK
6
CONTINUOUS
10
130.261
20
-141.589
11
130.165
21
-141.779
0
LINE
8
BLACK
6
CONTINUOUS
10
130.165
20
-141.779
11
130.07
21
-141.875
0
LINE
8
BLACK
6
CONTINUOUS
10
130.07
20
-141.875
11
129.88
21
-141.97
0
LINE
8
BLACK
6
CONTINUOUS
10
129.88
20
-141.97
11
129.689
21
-141.97
0
LINE
8
BLACK
6
CONTINUOUS
10
129.689
20
-141.97
11
129.499
21
-141.875
0
LINE
8
BLACK
6
CONTINUOUS
10
129.499
20
-141.875
11
129.404
21
-141.779
0
LINE
8
BLACK
6
CONTINUOUS
10
129.404
20
-141.779
11
129.308
21
-141.589
0
LINE
8
BLACK
6
CONTINUOUS
10
129.308
20
-141.589
11
129.213
21
-141.208
0
LINE
8
BLACK
6
CONTINUOUS
10
129.213
20
-141.208
11
129.213
21
-140.732
0
LINE
8
BLACK
6
CONTINUOUS
10
129.213
20
-140.732
11
129.308
21
-140.351
0
LINE
8
BLACK
6
CONTINUOUS
10
129.308
20
-140.351
11
129.404
21
-140.16
0
LINE
8
BLACK
6
CONTINUOUS
10
129.404
20
-140.16
11
129.499
21
-140.065
0
LINE
8
BLACK
6
CONTINUOUS
10
129.499
20
-140.065
11
129.689
21
-139.97
0
LINE
8
BLACK
6
CONTINUOUS
10
131.594
20
-139.97
11
131.785
21
-139.97
0
LINE
8
BLACK
6
CONTINUOUS
10
131.785
20
-139.97
11
131.975
21
-140.065
0
LINE
8
BLACK
6
CONTINUOUS
10
131.975
20
-140.065
11
132.07
21
-140.16
0
LINE
8
BLACK
6
CONTINUOUS
10
132.07
20
-140.16
11
132.165
21
-140.351
0
LINE
8
BLACK
6
CONTINUOUS
10
132.165
20
-140.351
11
132.261
21
-140.732
0
LINE
8
BLACK
6
CONTINUOUS
10
132.261
20
-140.732
11
132.261
21
-141.208
0
LINE
8
BLACK
6
CONTINUOUS
10
132.261
20
-141.208
11
132.165
21
-141.589
0
LINE
8
BLACK
6
CONTINUOUS
10
132.165
20
-141.589
11
132.07
21
-141.779
0
LINE
8
BLACK
6
CONTINUOUS
10
132.07
20
-141.779
11
131.975
21
-141.875
0
LINE
8
BLACK
6
CONTINUOUS
10
131.975
20
-141.875
11
131.785
21
-141.97
0
LINE
8
BLACK
6
CONTINUOUS
10
131.785
20
-141.97
11
131.594
21
-141.97
0
LINE
8
BLACK
6
CONTINUOUS
10
131.594
20
-141.97
11
131.404
21
-141.875
0
LINE
8
BLACK
6
CONTINUOUS
10
131.404
20
-141.875
11
131.308
21
-141.779
0
LINE
8
BLACK
6
CONTINUOUS
10
131.308
20
-141.779
11
131.213
21
-141.589
0
LINE
8
BLACK
6
CONTINUOUS
10
131.213
20
-141.589
11
131.118
21
-141.208
0
LINE
8
BLACK
6
CONTINUOUS
10
131.118
20
-141.208
11
131.118
21
-140.732
0
LINE
8
BLACK
6
CONTINUOUS
10
131.118
20
-140.732
11
131.213
21
-140.351
0
LINE
8
BLACK
6
CONTINUOUS
10
131.213
20
-140.351
11
131.308
21
-140.16
0
LINE
8
BLACK
6
CONTINUOUS
10
131.308
20
-140.16
11
131.404
21
-140.065
0
LINE
8
BLACK
6
CONTINUOUS
10
131.404
20
-140.065
11
131.594
21
-139.97
0
LINE
8
BLACK
6
CONTINUOUS
10
133.499
20
-139.97
11
133.689
21
-139.97
0
LINE
8
BLACK
6
CONTINUOUS
10
133.689
20
-139.97
11
133.88
21
-140.065
0
LINE
8
BLACK
6
CONTINUOUS
10
133.88
20
-140.065
11
133.975
21
-140.16
0
LINE
8
BLACK
6
CONTINUOUS
10
133.975
20
-140.16
11
134.07
21
-140.351
0
LINE
8
BLACK
6
CONTINUOUS
10
134.07
20
-140.351
11
134.165
21
-140.732
0
LINE
8
BLACK
6
CONTINUOUS
10
134.165
20
-140.732
11
134.165
21
-141.208
0
LINE
8
BLACK
6
CONTINUOUS
10
134.165
20
-141.208
11
134.07
21
-141.589
0
LINE
8
BLACK
6
CONTINUOUS
10
134.07
20
-141.589
11
133.975
21
-141.779
0
LINE
8
BLACK
6
CONTINUOUS
10
133.975
20
-141.779
11
133.88
21
-141.875
0
LINE
8
BLACK
6
CONTINUOUS
10
133.88
20
-141.875
11
133.689
21
-141.97
0
LINE
8
BLACK
6
CONTINUOUS
10
133.689
20
-141.97
11
133.499
21
-141.97
0
LINE
8
BLACK
6
CONTINUOUS
10
133.499
20
-141.97
11
133.308
21
-141.875
0
LINE
8
BLACK
6
CONTINUOUS
10
133.308
20
-141.875
11
133.213
21
-141.779
0
LINE
8
BLACK
6
CONTINUOUS
10
133.213
20
-141.779
11
133.118
21
-141.589
0
LINE
8
BLACK
6
CONTINUOUS
10
133.118
20
-141.589
11
133.023
21
-141.208
0
LINE
8
BLACK
6
CONTINUOUS
10
133.023
20
-141.208
11
133.023
21
-140.732
0
LINE
8
BLACK
6
CONTINUOUS
10
133.023
20
-140.732
11
133.118
21
-140.351
0
LINE
8
BLACK
6
CONTINUOUS
10
133.118
20
-140.351
11
133.213
21
-140.16
0
LINE
8
BLACK
6
CONTINUOUS
10
133.213
20
-140.16
11
133.308
21
-140.065
0
LINE
8
BLACK
6
CONTINUOUS
10
133.308
20
-140.065
11
133.499
21
-139.97
0
LINE
8
BLACK
6
CONTINUOUS
10
135.023
20
-141.97
11
135.023
21
-140.636
0
LINE
8
BLACK
6
CONTINUOUS
10
135.023
20
-140.827
11
135.118
21
-140.732
0
LINE
8
BLACK
6
CONTINUOUS
10
135.118
20
-140.732
11
135.308
21
-140.636
0
LINE
8
BLACK
6
CONTINUOUS
10
135.308
20
-140.636
11
135.594
21
-140.636
0
LINE
8
BLACK
6
CONTINUOUS
10
135.594
20
-140.636
11
135.785
21
-140.732
0
LINE
8
BLACK
6
CONTINUOUS
10
135.785
20
-140.732
11
135.88
21
-140.922
0
LINE
8
BLACK
6
CONTINUOUS
10
135.88
20
-140.922
11
135.88
21
-141.97
0
LINE
8
BLACK
6
CONTINUOUS
10
135.88
20
-140.922
11
135.975
21
-140.732
0
LINE
8
BLACK
6
CONTINUOUS
10
135.975
20
-140.732
11
136.165
21
-140.636
0
LINE
8
BLACK
6
CONTINUOUS
10
136.165
20
-140.636
11
136.451
21
-140.636
0
LINE
8
BLACK
6
CONTINUOUS
10
136.451
20
-140.636
11
136.642
21
-140.732
0
LINE
8
BLACK
6
CONTINUOUS
10
136.642
20
-140.732
11
136.737
21
-140.922
0
LINE
8
BLACK
6
CONTINUOUS
10
136.737
20
-140.922
11
136.737
21
-141.97
0
LINE
8
BLACK
6
CONTINUOUS
10
137.689
20
-141.97
11
137.689
21
-140.636
0
LINE
8
BLACK
6
CONTINUOUS
10
137.689
20
-140.827
11
137.785
21
-140.732
0
LINE
8
BLACK
6
CONTINUOUS
10
137.785
20
-140.732
11
137.975
21
-140.636
0
LINE
8
BLACK
6
CONTINUOUS
10
137.975
20
-140.636
11
138.261
21
-140.636
0
LINE
8
BLACK
6
CONTINUOUS
10
138.261
20
-140.636
11
138.451
21
-140.732
0
LINE
8
BLACK
6
CONTINUOUS
10
138.451
20
-140.732
11
138.546
21
-140.922
0
LINE
8
BLACK
6
CONTINUOUS
10
138.546
20
-140.922
11
138.546
21
-141.97
0
LINE
8
BLACK
6
CONTINUOUS
10
138.546
20
-140.922
11
138.642
21
-140.732
0
LINE
8
BLACK
6
CONTINUOUS
10
138.642
20
-140.732
11
138.832
21
-140.636
0
LINE
8
BLACK
6
CONTINUOUS
10
138.832
20
-140.636
11
139.118
21
-140.636
0
LINE
8
BLACK
6
CONTINUOUS
10
139.118
20
-140.636
11
139.308
21
-140.732
0
LINE
8
BLACK
6
CONTINUOUS
10
139.308
20
-140.732
11
139.404
21
-140.922
0
LINE
8
BLACK
6
CONTINUOUS
10
139.404
20
-140.922
11
139.404
21
-141.97
0
LINE
8
BLACK
6
CONTINUOUS
10
142.985
20
-139.875
11
141.27
21
-142.446
0
LINE
8
BLACK
6
CONTINUOUS
10
145.232
20
-139.97
11
145.423
21
-139.97
0
LINE
8
BLACK
6
CONTINUOUS
10
145.423
20
-139.97
11
145.613
21
-140.065
0
LINE
8
BLACK
6
CONTINUOUS
10
145.613
20
-140.065
11
145.708
21
-140.16
0
LINE
8
BLACK
6
CONTINUOUS
10
145.708
20
-140.16
11
145.804
21
-140.351
0
LINE
8
BLACK
6
CONTINUOUS
10
145.804
20
-140.351
11
145.899
21
-140.732
0
LINE
8
BLACK
6
CONTINUOUS
10
145.899
20
-140.732
11
145.899
21
-141.208
0
LINE
8
BLACK
6
CONTINUOUS
10
145.899
20
-141.208
11
145.804
21
-141.589
0
LINE
8
BLACK
6
CONTINUOUS
10
145.804
20
-141.589
11
145.708
21
-141.779
0
LINE
8
BLACK
6
CONTINUOUS
10
145.708
20
-141.779
11
145.613
21
-141.875
0
LINE
8
BLACK
6
CONTINUOUS
10
145.613
20
-141.875
11
145.423
21
-141.97
0
LINE
8
BLACK
6
CONTINUOUS
10
145.423
20
-141.97
11
145.232
21
-141.97
0
LINE
8
BLACK
6
CONTINUOUS
10
145.232
20
-141.97
11
145.042
21
-141.875
0
LINE
8
BLACK
6
CONTINUOUS
10
145.042
20
-141.875
11
144.946
21
-141.779
0
LINE
8
BLACK
6
CONTINUOUS
10
144.946
20
-141.779
11
144.851
21
-141.589
0
LINE
8
BLACK
6
CONTINUOUS
10
144.851
20
-141.589
11
144.756
21
-141.208
0
LINE
8
BLACK
6
CONTINUOUS
10
144.756
20
-141.208
11
144.756
21
-140.732
0
LINE
8
BLACK
6
CONTINUOUS
10
144.756
20
-140.732
11
144.851
21
-140.351
0
LINE
8
BLACK
6
CONTINUOUS
10
144.851
20
-140.351
11
144.946
21
-140.16
0
LINE
8
BLACK
6
CONTINUOUS
10
144.946
20
-140.16
11
145.042
21
-140.065
0
LINE
8
BLACK
6
CONTINUOUS
10
145.042
20
-140.065
11
145.232
21
-139.97
0
LINE
8
BLACK
6
CONTINUOUS
10
146.756
20
-141.779
11
146.851
21
-141.875
0
LINE
8
BLACK
6
CONTINUOUS
10
146.851
20
-141.875
11
146.756
21
-141.97
0
LINE
8
BLACK
6
CONTINUOUS
10
146.756
20
-141.97
11
146.661
21
-141.875
0
LINE
8
BLACK
6
CONTINUOUS
10
146.661
20
-141.875
11
146.756
21
-141.779
0
LINE
8
BLACK
6
CONTINUOUS
10
146.756
20
-141.779
11
146.756
21
-141.97
0
LINE
8
BLACK
6
CONTINUOUS
10
148.089
20
-139.97
11
148.28
21
-139.97
0
LINE
8
BLACK
6
CONTINUOUS
10
148.28
20
-139.97
11
148.47
21
-140.065
0
LINE
8
BLACK
6
CONTINUOUS
10
148.47
20
-140.065
11
148.565
21
-140.16
0
LINE
8
BLACK
6
CONTINUOUS
10
148.565
20
-140.16
11
148.661
21
-140.351
0
LINE
8
BLACK
6
CONTINUOUS
10
148.661
20
-140.351
11
148.756
21
-140.732
0
LINE
8
BLACK
6
CONTINUOUS
10
148.756
20
-140.732
11
148.756
21
-141.208
0
LINE
8
BLACK
6
CONTINUOUS
10
148.756
20
-141.208
11
148.661
21
-141.589
0
LINE
8
BLACK
6
CONTINUOUS
10
148.661
20
-141.589
11
148.565
21
-141.779
0
LINE
8
BLACK
6
CONTINUOUS
10
148.565
20
-141.779
11
148.47
21
-141.875
0
LINE
8
BLACK
6
CONTINUOUS
10
148.47
20
-141.875
11
148.28
21
-141.97
0
LINE
8
BLACK
6
CONTINUOUS
10
148.28
20
-141.97
11
148.089
21
-141.97
0
LINE
8
BLACK
6
CONTINUOUS
10
148.089
20
-141.97
11
147.899
21
-141.875
0
LINE
8
BLACK
6
CONTINUOUS
10
147.899
20
-141.875
11
147.804
21
-141.779
0
LINE
8
BLACK
6
CONTINUOUS
10
147.804
20
-141.779
11
147.708
21
-141.589
0
LINE
8
BLACK
6
CONTINUOUS
10
147.708
20
-141.589
11
147.613
21
-141.208
0
LINE
8
BLACK
6
CONTINUOUS
10
147.613
20
-141.208
11
147.613
21
-140.732
0
LINE
8
BLACK
6
CONTINUOUS
10
147.613
20
-140.732
11
147.708
21
-140.351
0
LINE
8
BLACK
6
CONTINUOUS
10
147.708
20
-140.351
11
147.804
21
-140.16
0
LINE
8
BLACK
6
CONTINUOUS
10
147.804
20
-140.16
11
147.899
21
-140.065
0
LINE
8
BLACK
6
CONTINUOUS
10
147.899
20
-140.065
11
148.089
21
-139.97
0
LINE
8
BLACK
6
CONTINUOUS
10
149.423
20
-139.97
11
150.661
21
-139.97
0
LINE
8
BLACK
6
CONTINUOUS
10
150.661
20
-139.97
11
149.994
21
-140.732
0
LINE
8
BLACK
6
CONTINUOUS
10
149.994
20
-140.732
11
150.28
21
-140.732
0
LINE
8
BLACK
6
CONTINUOUS
10
150.28
20
-140.732
11
150.47
21
-140.827
0
LINE
8
BLACK
6
CONTINUOUS
10
150.47
20
-140.827
11
150.565
21
-140.922
0
LINE
8
BLACK
6
CONTINUOUS
10
150.565
20
-140.922
11
150.661
21
-141.113
0
LINE
8
BLACK
6
CONTINUOUS
10
150.661
20
-141.113
11
150.661
21
-141.589
0
LINE
8
BLACK
6
CONTINUOUS
10
150.661
20
-141.589
11
150.565
21
-141.779
0
LINE
8
BLACK
6
CONTINUOUS
10
150.565
20
-141.779
11
150.47
21
-141.875
0
LINE
8
BLACK
6
CONTINUOUS
10
150.47
20
-141.875
11
150.28
21
-141.97
0
LINE
8
BLACK
6
CONTINUOUS
10
150.28
20
-141.97
11
149.708
21
-141.97
0
LINE
8
BLACK
6
CONTINUOUS
10
149.708
20
-141.97
11
149.518
21
-141.875
0
LINE
8
BLACK
6
CONTINUOUS
10
149.518
20
-141.875
11
149.423
21
-141.779
0
LINE
8
BLACK
6
CONTINUOUS
10
151.613
20
-141.97
11
151.994
21
-141.97
0
LINE
8
BLACK
6
CONTINUOUS
10
151.994
20
-141.97
11
152.185
21
-141.875
0
LINE
8
BLACK
6
CONTINUOUS
10
152.185
20
-141.875
11
152.28
21
-141.779
0
LINE
8
BLACK
6
CONTINUOUS
10
152.28
20
-141.779
11
152.47
21
-141.494
0
LINE
8
BLACK
6
CONTINUOUS
10
152.47
20
-141.494
11
152.565
21
-141.113
0
LINE
8
BLACK
6
CONTINUOUS
10
152.565
20
-141.113
11
152.565
21
-140.351
0
LINE
8
BLACK
6
CONTINUOUS
10
152.565
20
-140.351
11
152.47
21
-140.16
0
LINE
8
BLACK
6
CONTINUOUS
10
152.47
20
-140.16
11
152.375
21
-140.065
0
LINE
8
BLACK
6
CONTINUOUS
10
152.375
20
-140.065
11
152.185
21
-139.97
0
LINE
8
BLACK
6
CONTINUOUS
10
152.185
20
-139.97
11
151.804
21
-139.97
0
LINE
8
BLACK
6
CONTINUOUS
10
151.804
20
-139.97
11
151.613
21
-140.065
0
LINE
8
BLACK
6
CONTINUOUS
10
151.613
20
-140.065
11
151.518
21
-140.16
0
LINE
8
BLACK
6
CONTINUOUS
10
151.518
20
-140.16
11
151.423
21
-140.351
0
LINE
8
BLACK
6
CONTINUOUS
10
151.423
20
-140.351
11
151.423
21
-140.827
0
LINE
8
BLACK
6
CONTINUOUS
10
151.423
20
-140.827
11
151.518
21
-141.017
0
LINE
8
BLACK
6
CONTINUOUS
10
151.518
20
-141.017
11
151.613
21
-141.113
0
LINE
8
BLACK
6
CONTINUOUS
10
151.613
20
-141.113
11
151.804
21
-141.208
0
LINE
8
BLACK
6
CONTINUOUS
10
151.804
20
-141.208
11
152.185
21
-141.208
0
LINE
8
BLACK
6
CONTINUOUS
10
152.185
20
-141.208
11
152.375
21
-141.113
0
LINE
8
BLACK
6
CONTINUOUS
10
152.375
20
-141.113
11
152.47
21
-141.017
0
LINE
8
BLACK
6
CONTINUOUS
10
152.47
20
-141.017
11
152.565
21
-140.827
0
LINE
8
BLACK
6
CONTINUOUS
10
154.28
20
-140.636
11
154.28
21
-141.97
0
LINE
8
BLACK
6
CONTINUOUS
10
153.804
20
-139.875
11
153.327
21
-141.303
0
LINE
8
BLACK
6
CONTINUOUS
10
153.327
20
-141.303
11
154.565
21
-141.303
0
LINE
8
BLACK
6
CONTINUOUS
10
155.232
20
-139.97
11
155.232
21
-140.351
0
LINE
8
BLACK
6
CONTINUOUS
10
155.994
20
-139.97
11
155.994
21
-140.351
0
LINE
8
BLACK
6
CONTINUOUS
10
158.623
20
-142.732
11
158.527
21
-142.636
0
LINE
8
BLACK
6
CONTINUOUS
10
158.527
20
-142.636
11
158.337
21
-142.351
0
LINE
8
BLACK
6
CONTINUOUS
10
158.337
20
-142.351
11
158.242
21
-142.16
0
LINE
8
BLACK
6
CONTINUOUS
10
158.242
20
-142.16
11
158.146
21
-141.875
0
LINE
8
BLACK
6
CONTINUOUS
10
158.146
20
-141.875
11
158.051
21
-141.398
0
LINE
8
BLACK
6
CONTINUOUS
10
158.051
20
-141.398
11
158.051
21
-141.017
0
LINE
8
BLACK
6
CONTINUOUS
10
158.051
20
-141.017
11
158.146
21
-140.541
0
LINE
8
BLACK
6
CONTINUOUS
10
158.146
20
-140.541
11
158.242
21
-140.255
0
LINE
8
BLACK
6
CONTINUOUS
10
158.242
20
-140.255
11
158.337
21
-140.065
0
LINE
8
BLACK
6
CONTINUOUS
10
158.337
20
-140.065
11
158.527
21
-139.779
0
LINE
8
BLACK
6
CONTINUOUS
10
158.527
20
-139.779
11
158.623
21
-139.684
0
LINE
8
BLACK
6
CONTINUOUS
10
159.48
20
-141.97
11
159.861
21
-141.97
0
LINE
8
BLACK
6
CONTINUOUS
10
159.861
20
-141.97
11
160.051
21
-141.875
0
LINE
8
BLACK
6
CONTINUOUS
10
160.051
20
-141.875
11
160.146
21
-141.779
0
LINE
8
BLACK
6
CONTINUOUS
10
160.146
20
-141.779
11
160.337
21
-141.494
0
LINE
8
BLACK
6
CONTINUOUS
10
160.337
20
-141.494
11
160.432
21
-141.113
0
LINE
8
BLACK
6
CONTINUOUS
10
160.432
20
-141.113
11
160.432
21
-140.351
0
LINE
8
BLACK
6
CONTINUOUS
10
160.432
20
-140.351
11
160.337
21
-140.16
0
LINE
8
BLACK
6
CONTINUOUS
10
160.337
20
-140.16
11
160.242
21
-140.065
0
LINE
8
BLACK
6
CONTINUOUS
10
160.242
20
-140.065
11
160.051
21
-139.97
0
LINE
8
BLACK
6
CONTINUOUS
10
160.051
20
-139.97
11
159.67
21
-139.97
0
LINE
8
BLACK
6
CONTINUOUS
10
159.67
20
-139.97
11
159.48
21
-140.065
0
LINE
8
BLACK
6
CONTINUOUS
10
159.48
20
-140.065
11
159.385
21
-140.16
0
LINE
8
BLACK
6
CONTINUOUS
10
159.385
20
-140.16
11
159.289
21
-140.351
0
LINE
8
BLACK
6
CONTINUOUS
10
159.289
20
-140.351
11
159.289
21
-140.827
0
LINE
8
BLACK
6
CONTINUOUS
10
159.289
20
-140.827
11
159.385
21
-141.017
0
LINE
8
BLACK
6
CONTINUOUS
10
159.385
20
-141.017
11
159.48
21
-141.113
0
LINE
8
BLACK
6
CONTINUOUS
10
159.48
20
-141.113
11
159.67
21
-141.208
0
LINE
8
BLACK
6
CONTINUOUS
10
159.67
20
-141.208
11
160.051
21
-141.208
0
LINE
8
BLACK
6
CONTINUOUS
10
160.051
20
-141.208
11
160.242
21
-141.113
0
LINE
8
BLACK
6
CONTINUOUS
10
160.242
20
-141.113
11
160.337
21
-141.017
0
LINE
8
BLACK
6
CONTINUOUS
10
160.337
20
-141.017
11
160.432
21
-140.827
0
LINE
8
BLACK
6
CONTINUOUS
10
162.146
20
-139.97
11
161.765
21
-139.97
0
LINE
8
BLACK
6
CONTINUOUS
10
161.765
20
-139.97
11
161.575
21
-140.065
0
LINE
8
BLACK
6
CONTINUOUS
10
161.575
20
-140.065
11
161.48
21
-140.16
0
LINE
8
BLACK
6
CONTINUOUS
10
161.48
20
-140.16
11
161.289
21
-140.446
0
LINE
8
BLACK
6
CONTINUOUS
10
161.289
20
-140.446
11
161.194
21
-140.827
0
LINE
8
BLACK
6
CONTINUOUS
10
161.194
20
-140.827
11
161.194
21
-141.589
0
LINE
8
BLACK
6
CONTINUOUS
10
161.194
20
-141.589
11
161.289
21
-141.779
0
LINE
8
BLACK
6
CONTINUOUS
10
161.289
20
-141.779
11
161.385
21
-141.875
0
LINE
8
BLACK
6
CONTINUOUS
10
161.385
20
-141.875
11
161.575
21
-141.97
0
LINE
8
BLACK
6
CONTINUOUS
10
161.575
20
-141.97
11
161.956
21
-141.97
0
LINE
8
BLACK
6
CONTINUOUS
10
161.956
20
-141.97
11
162.146
21
-141.875
0
LINE
8
BLACK
6
CONTINUOUS
10
162.146
20
-141.875
11
162.242
21
-141.779
0
LINE
8
BLACK
6
CONTINUOUS
10
162.242
20
-141.779
11
162.337
21
-141.589
0
LINE
8
BLACK
6
CONTINUOUS
10
162.337
20
-141.589
11
162.337
21
-141.113
0
LINE
8
BLACK
6
CONTINUOUS
10
162.337
20
-141.113
11
162.242
21
-140.922
0
LINE
8
BLACK
6
CONTINUOUS
10
162.242
20
-140.922
11
162.146
21
-140.827
0
LINE
8
BLACK
6
CONTINUOUS
10
162.146
20
-140.827
11
161.956
21
-140.732
0
LINE
8
BLACK
6
CONTINUOUS
10
161.956
20
-140.732
11
161.575
21
-140.732
0
LINE
8
BLACK
6
CONTINUOUS
10
161.575
20
-140.732
11
161.385
21
-140.827
0
LINE
8
BLACK
6
CONTINUOUS
10
161.385
20
-140.827
11
161.289
21
-140.922
0
LINE
8
BLACK
6
CONTINUOUS
10
161.289
20
-140.922
11
161.194
21
-141.113
0
LINE
8
BLACK
6
CONTINUOUS
10
164.394
20
-141.97
11
164.394
21
-139.97
0
LINE
8
BLACK
6
CONTINUOUS
10
165.251
20
-141.97
11
165.251
21
-140.922
0
LINE
8
BLACK
6
CONTINUOUS
10
165.251
20
-140.922
11
165.156
21
-140.732
0
LINE
8
BLACK
6
CONTINUOUS
10
165.156
20
-140.732
11
164.965
21
-140.636
0
LINE
8
BLACK
6
CONTINUOUS
10
164.965
20
-140.636
11
164.68
21
-140.636
0
LINE
8
BLACK
6
CONTINUOUS
10
164.68
20
-140.636
11
164.489
21
-140.732
0
LINE
8
BLACK
6
CONTINUOUS
10
164.489
20
-140.732
11
164.394
21
-140.827
0
LINE
8
BLACK
6
CONTINUOUS
10
166.489
20
-141.97
11
166.299
21
-141.875
0
LINE
8
BLACK
6
CONTINUOUS
10
166.299
20
-141.875
11
166.204
21
-141.779
0
LINE
8
BLACK
6
CONTINUOUS
10
166.204
20
-141.779
11
166.108
21
-141.589
0
LINE
8
BLACK
6
CONTINUOUS
10
166.108
20
-141.589
11
166.108
21
-141.017
0
LINE
8
BLACK
6
CONTINUOUS
10
166.108
20
-141.017
11
166.204
21
-140.827
0
LINE
8
BLACK
6
CONTINUOUS
10
166.204
20
-140.827
11
166.299
21
-140.732
0
LINE
8
BLACK
6
CONTINUOUS
10
166.299
20
-140.732
11
166.489
21
-140.636
0
LINE
8
BLACK
6
CONTINUOUS
10
166.489
20
-140.636
11
166.775
21
-140.636
0
LINE
8
BLACK
6
CONTINUOUS
10
166.775
20
-140.636
11
166.965
21
-140.732
0
LINE
8
BLACK
6
CONTINUOUS
10
166.965
20
-140.732
11
167.061
21
-140.827
0
LINE
8
BLACK
6
CONTINUOUS
10
167.061
20
-140.827
11
167.156
21
-141.017
0
LINE
8
BLACK
6
CONTINUOUS
10
167.156
20
-141.017
11
167.156
21
-141.589
0
LINE
8
BLACK
6
CONTINUOUS
10
167.156
20
-141.589
11
167.061
21
-141.779
0
LINE
8
BLACK
6
CONTINUOUS
10
167.061
20
-141.779
11
166.965
21
-141.875
0
LINE
8
BLACK
6
CONTINUOUS
10
166.965
20
-141.875
11
166.775
21
-141.97
0
LINE
8
BLACK
6
CONTINUOUS
10
166.775
20
-141.97
11
166.489
21
-141.97
0
LINE
8
BLACK
6
CONTINUOUS
10
168.299
20
-141.97
11
168.108
21
-141.875
0
LINE
8
BLACK
6
CONTINUOUS
10
168.108
20
-141.875
11
168.013
21
-141.684
0
LINE
8
BLACK
6
CONTINUOUS
10
168.013
20
-141.684
11
168.013
21
-139.97
0
LINE
8
BLACK
6
CONTINUOUS
10
169.823
20
-141.875
11
169.632
21
-141.97
0
LINE
8
BLACK
6
CONTINUOUS
10
169.632
20
-141.97
11
169.251
21
-141.97
0
LINE
8
BLACK
6
CONTINUOUS
10
169.251
20
-141.97
11
169.061
21
-141.875
0
LINE
8
BLACK
6
CONTINUOUS
10
169.061
20
-141.875
11
168.965
21
-141.684
0
LINE
8
BLACK
6
CONTINUOUS
10
168.965
20
-141.684
11
168.965
21
-140.922
0
LINE
8
BLACK
6
CONTINUOUS
10
168.965
20
-140.922
11
169.061
21
-140.732
0
LINE
8
BLACK
6
CONTINUOUS
10
169.061
20
-140.732
11
169.251
21
-140.636
0
LINE
8
BLACK
6
CONTINUOUS
10
169.251
20
-140.636
11
169.632
21
-140.636
0
LINE
8
BLACK
6
CONTINUOUS
10
169.632
20
-140.636
11
169.823
21
-140.732
0
LINE
8
BLACK
6
CONTINUOUS
10
169.823
20
-140.732
11
169.918
21
-140.922
0
LINE
8
BLACK
6
CONTINUOUS
10
169.918
20
-140.922
11
169.918
21
-141.113
0
LINE
8
BLACK
6
CONTINUOUS
10
169.918
20
-141.113
11
168.965
21
-141.303
0
LINE
8
BLACK
6
CONTINUOUS
10
170.68
20
-141.875
11
170.87
21
-141.97
0
LINE
8
BLACK
6
CONTINUOUS
10
170.87
20
-141.97
11
171.251
21
-141.97
0
LINE
8
BLACK
6
CONTINUOUS
10
171.251
20
-141.97
11
171.442
21
-141.875
0
LINE
8
BLACK
6
CONTINUOUS
10
171.442
20
-141.875
11
171.537
21
-141.684
0
LINE
8
BLACK
6
CONTINUOUS
10
171.537
20
-141.684
11
171.537
21
-141.589
0
LINE
8
BLACK
6
CONTINUOUS
10
171.537
20
-141.589
11
171.442
21
-141.398
0
LINE
8
BLACK
6
CONTINUOUS
10
171.442
20
-141.398
11
171.251
21
-141.303
0
LINE
8
BLACK
6
CONTINUOUS
10
171.251
20
-141.303
11
170.965
21
-141.303
0
LINE
8
BLACK
6
CONTINUOUS
10
170.965
20
-141.303
11
170.775
21
-141.208
0
LINE
8
BLACK
6
CONTINUOUS
10
170.775
20
-141.208
11
170.68
21
-141.017
0
LINE
8
BLACK
6
CONTINUOUS
10
170.68
20
-141.017
11
170.68
21
-140.922
0
LINE
8
BLACK
6
CONTINUOUS
10
170.68
20
-140.922
11
170.775
21
-140.732
0
LINE
8
BLACK
6
CONTINUOUS
10
170.775
20
-140.732
11
170.965
21
-140.636
0
LINE
8
BLACK
6
CONTINUOUS
10
170.965
20
-140.636
11
171.251
21
-140.636
0
LINE
8
BLACK
6
CONTINUOUS
10
171.251
20
-140.636
11
171.442
21
-140.732
0
LINE
8
BLACK
6
CONTINUOUS
10
172.204
20
-142.732
11
172.299
21
-142.636
0
LINE
8
BLACK
6
CONTINUOUS
10
172.299
20
-142.636
11
172.489
21
-142.351
0
LINE
8
BLACK
6
CONTINUOUS
10
172.489
20
-142.351
11
172.585
21
-142.16
0
LINE
8
BLACK
6
CONTINUOUS
10
172.585
20
-142.16
11
172.68
21
-141.875
0
LINE
8
BLACK
6
CONTINUOUS
10
172.68
20
-141.875
11
172.775
21
-141.398
0
LINE
8
BLACK
6
CONTINUOUS
10
172.775
20
-141.398
11
172.775
21
-141.017
0
LINE
8
BLACK
6
CONTINUOUS
10
172.775
20
-141.017
11
172.68
21
-140.541
0
LINE
8
BLACK
6
CONTINUOUS
10
172.68
20
-140.541
11
172.585
21
-140.255
0
LINE
8
BLACK
6
CONTINUOUS
10
172.585
20
-140.255
11
172.489
21
-140.065
0
LINE
8
BLACK
6
CONTINUOUS
10
172.489
20
-140.065
11
172.299
21
-139.779
0
LINE
8
BLACK
6
CONTINUOUS
10
172.299
20
-139.779
11
172.204
21
-139.684
0
LINE
8
BLACK
6
CONTINUOUS
10
121.975
20
-142.875
11
123.975
21
-144.875
0
LINE
8
BLACK
6
CONTINUOUS
10
123.975
20
-142.875
11
121.975
21
-144.875
0
CIRCLE
8
BLACK
10
122.975
20
-143.875
40
1
0
LINE
8
BLACK
6
CONTINUOUS
10
126.261
20
-142.61
11
127.499
21
-142.61
0
LINE
8
BLACK
6
CONTINUOUS
10
127.499
20
-142.61
11
126.832
21
-143.372
0
LINE
8
BLACK
6
CONTINUOUS
10
126.832
20
-143.372
11
127.118
21
-143.372
0
LINE
8
BLACK
6
CONTINUOUS
10
127.118
20
-143.372
11
127.308
21
-143.467
0
LINE
8
BLACK
6
CONTINUOUS
10
127.308
20
-143.467
11
127.404
21
-143.562
0
LINE
8
BLACK
6
CONTINUOUS
10
127.404
20
-143.562
11
127.499
21
-143.753
0
LINE
8
BLACK
6
CONTINUOUS
10
127.499
20
-143.753
11
127.499
21
-144.229
0
LINE
8
BLACK
6
CONTINUOUS
10
127.499
20
-144.229
11
127.404
21
-144.419
0
LINE
8
BLACK
6
CONTINUOUS
10
127.404
20
-144.419
11
127.308
21
-144.515
0
LINE
8
BLACK
6
CONTINUOUS
10
127.308
20
-144.515
11
127.118
21
-144.61
0
LINE
8
BLACK
6
CONTINUOUS
10
127.118
20
-144.61
11
126.546
21
-144.61
0
LINE
8
BLACK
6
CONTINUOUS
10
126.546
20
-144.61
11
126.356
21
-144.515
0
LINE
8
BLACK
6
CONTINUOUS
10
126.356
20
-144.515
11
126.261
21
-144.419
0
LINE
8
BLACK
6
CONTINUOUS
10
128.356
20
-144.419
11
128.451
21
-144.515
0
LINE
8
BLACK
6
CONTINUOUS
10
128.451
20
-144.515
11
128.356
21
-144.61
0
LINE
8
BLACK
6
CONTINUOUS
10
128.356
20
-144.61
11
128.261
21
-144.515
0
LINE
8
BLACK
6
CONTINUOUS
10
128.261
20
-144.515
11
128.356
21
-144.419
0
LINE
8
BLACK
6
CONTINUOUS
10
128.356
20
-144.419
11
128.356
21
-144.61
0
LINE
8
BLACK
6
CONTINUOUS
10
129.213
20
-142.8
11
129.308
21
-142.705
0
LINE
8
BLACK
6
CONTINUOUS
10
129.308
20
-142.705
11
129.499
21
-142.61
0
LINE
8
BLACK
6
CONTINUOUS
10
129.499
20
-142.61
11
129.975
21
-142.61
0
LINE
8
BLACK
6
CONTINUOUS
10
129.975
20
-142.61
11
130.165
21
-142.705
0
LINE
8
BLACK
6
CONTINUOUS
10
130.165
20
-142.705
11
130.261
21
-142.8
0
LINE
8
BLACK
6
CONTINUOUS
10
130.261
20
-142.8
11
130.356
21
-142.991
0
LINE
8
BLACK
6
CONTINUOUS
10
130.356
20
-142.991
11
130.356
21
-143.181
0
LINE
8
BLACK
6
CONTINUOUS
10
130.356
20
-143.181
11
130.261
21
-143.467
0
LINE
8
BLACK
6
CONTINUOUS
10
130.261
20
-143.467
11
129.118
21
-144.61
0
LINE
8
BLACK
6
CONTINUOUS
10
129.118
20
-144.61
11
130.356
21
-144.61
0
LINE
8
BLACK
6
CONTINUOUS
10
131.594
20
-142.61
11
131.785
21
-142.61
0
LINE
8
BLACK
6
CONTINUOUS
10
131.785
20
-142.61
11
131.975
21
-142.705
0
LINE
8
BLACK
6
CONTINUOUS
10
131.975
20
-142.705
11
132.07
21
-142.8
0
LINE
8
BLACK
6
CONTINUOUS
10
132.07
20
-142.8
11
132.165
21
-142.991
0
LINE
8
BLACK
6
CONTINUOUS
10
132.165
20
-142.991
11
132.261
21
-143.372
0
LINE
8
BLACK
6
CONTINUOUS
10
132.261
20
-143.372
11
132.261
21
-143.848
0
LINE
8
BLACK
6
CONTINUOUS
10
132.261
20
-143.848
11
132.165
21
-144.229
0
LINE
8
BLACK
6
CONTINUOUS
10
132.165
20
-144.229
11
132.07
21
-144.419
0
LINE
8
BLACK
6
CONTINUOUS
10
132.07
20
-144.419
11
131.975
21
-144.515
0
LINE
8
BLACK
6
CONTINUOUS
10
131.975
20
-144.515
11
131.785
21
-144.61
0
LINE
8
BLACK
6
CONTINUOUS
10
131.785
20
-144.61
11
131.594
21
-144.61
0
LINE
8
BLACK
6
CONTINUOUS
10
131.594
20
-144.61
11
131.404
21
-144.515
0
LINE
8
BLACK
6
CONTINUOUS
10
131.404
20
-144.515
11
131.308
21
-144.419
0
LINE
8
BLACK
6
CONTINUOUS
10
131.308
20
-144.419
11
131.213
21
-144.229
0
LINE
8
BLACK
6
CONTINUOUS
10
131.213
20
-144.229
11
131.118
21
-143.848
0
LINE
8
BLACK
6
CONTINUOUS
10
131.118
20
-143.848
11
131.118
21
-143.372
0
LINE
8
BLACK
6
CONTINUOUS
10
131.118
20
-143.372
11
131.213
21
-142.991
0
LINE
8
BLACK
6
CONTINUOUS
10
131.213
20
-142.991
11
131.308
21
-142.8
0
LINE
8
BLACK
6
CONTINUOUS
10
131.308
20
-142.8
11
131.404
21
-142.705
0
LINE
8
BLACK
6
CONTINUOUS
10
131.404
20
-142.705
11
131.594
21
-142.61
0
LINE
8
BLACK
6
CONTINUOUS
10
133.499
20
-142.61
11
133.689
21
-142.61
0
LINE
8
BLACK
6
CONTINUOUS
10
133.689
20
-142.61
11
133.88
21
-142.705
0
LINE
8
BLACK
6
CONTINUOUS
10
133.88
20
-142.705
11
133.975
21
-142.8
0
LINE
8
BLACK
6
CONTINUOUS
10
133.975
20
-142.8
11
134.07
21
-142.991
0
LINE
8
BLACK
6
CONTINUOUS
10
134.07
20
-142.991
11
134.165
21
-143.372
0
LINE
8
BLACK
6
CONTINUOUS
10
134.165
20
-143.372
11
134.165
21
-143.848
0
LINE
8
BLACK
6
CONTINUOUS
10
134.165
20
-143.848
11
134.07
21
-144.229
0
LINE
8
BLACK
6
CONTINUOUS
10
134.07
20
-144.229
11
133.975
21
-144.419
0
LINE
8
BLACK
6
CONTINUOUS
10
133.975
20
-144.419
11
133.88
21
-144.515
0
LINE
8
BLACK
6
CONTINUOUS
10
133.88
20
-144.515
11
133.689
21
-144.61
0
LINE
8
BLACK
6
CONTINUOUS
10
133.689
20
-144.61
11
133.499
21
-144.61
0
LINE
8
BLACK
6
CONTINUOUS
10
133.499
20
-144.61
11
133.308
21
-144.515
0
LINE
8
BLACK
6
CONTINUOUS
10
133.308
20
-144.515
11
133.213
21
-144.419
0
LINE
8
BLACK
6
CONTINUOUS
10
133.213
20
-144.419
11
133.118
21
-144.229
0
LINE
8
BLACK
6
CONTINUOUS
10
133.118
20
-144.229
11
133.023
21
-143.848
0
LINE
8
BLACK
6
CONTINUOUS
10
133.023
20
-143.848
11
133.023
21
-143.372
0
LINE
8
BLACK
6
CONTINUOUS
10
133.023
20
-143.372
11
133.118
21
-142.991
0
LINE
8
BLACK
6
CONTINUOUS
10
133.118
20
-142.991
11
133.213
21
-142.8
0
LINE
8
BLACK
6
CONTINUOUS
10
133.213
20
-142.8
11
133.308
21
-142.705
0
LINE
8
BLACK
6
CONTINUOUS
10
133.308
20
-142.705
11
133.499
21
-142.61
0
LINE
8
BLACK
6
CONTINUOUS
10
135.023
20
-144.61
11
135.023
21
-143.276
0
LINE
8
BLACK
6
CONTINUOUS
10
135.023
20
-143.467
11
135.118
21
-143.372
0
LINE
8
BLACK
6
CONTINUOUS
10
135.118
20
-143.372
11
135.308
21
-143.276
0
LINE
8
BLACK
6
CONTINUOUS
10
135.308
20
-143.276
11
135.594
21
-143.276
0
LINE
8
BLACK
6
CONTINUOUS
10
135.594
20
-143.276
11
135.785
21
-143.372
0
LINE
8
BLACK
6
CONTINUOUS
10
135.785
20
-143.372
11
135.88
21
-143.562
0
LINE
8
BLACK
6
CONTINUOUS
10
135.88
20
-143.562
11
135.88
21
-144.61
0
LINE
8
BLACK
6
CONTINUOUS
10
135.88
20
-143.562
11
135.975
21
-143.372
0
LINE
8
BLACK
6
CONTINUOUS
10
135.975
20
-143.372
11
136.165
21
-143.276
0
LINE
8
BLACK
6
CONTINUOUS
10
136.165
20
-143.276
11
136.451
21
-143.276
0
LINE
8
BLACK
6
CONTINUOUS
10
136.451
20
-143.276
11
136.642
21
-143.372
0
LINE
8
BLACK
6
CONTINUOUS
10
136.642
20
-143.372
11
136.737
21
-143.562
0
LINE
8
BLACK
6
CONTINUOUS
10
136.737
20
-143.562
11
136.737
21
-144.61
0
LINE
8
BLACK
6
CONTINUOUS
10
137.689
20
-144.61
11
137.689
21
-143.276
0
LINE
8
BLACK
6
CONTINUOUS
10
137.689
20
-143.467
11
137.785
21
-143.372
0
LINE
8
BLACK
6
CONTINUOUS
10
137.785
20
-143.372
11
137.975
21
-143.276
0
LINE
8
BLACK
6
CONTINUOUS
10
137.975
20
-143.276
11
138.261
21
-143.276
0
LINE
8
BLACK
6
CONTINUOUS
10
138.261
20
-143.276
11
138.451
21
-143.372
0
LINE
8
BLACK
6
CONTINUOUS
10
138.451
20
-143.372
11
138.546
21
-143.562
0
LINE
8
BLACK
6
CONTINUOUS
10
138.546
20
-143.562
11
138.546
21
-144.61
0
LINE
8
BLACK
6
CONTINUOUS
10
138.546
20
-143.562
11
138.642
21
-143.372
0
LINE
8
BLACK
6
CONTINUOUS
10
138.642
20
-143.372
11
138.832
21
-143.276
0
LINE
8
BLACK
6
CONTINUOUS
10
138.832
20
-143.276
11
139.118
21
-143.276
0
LINE
8
BLACK
6
CONTINUOUS
10
139.118
20
-143.276
11
139.308
21
-143.372
0
LINE
8
BLACK
6
CONTINUOUS
10
139.308
20
-143.372
11
139.404
21
-143.562
0
LINE
8
BLACK
6
CONTINUOUS
10
139.404
20
-143.562
11
139.404
21
-144.61
0
LINE
8
BLACK
6
CONTINUOUS
10
142.985
20
-142.515
11
141.27
21
-145.086
0
LINE
8
BLACK
6
CONTINUOUS
10
145.232
20
-142.61
11
145.423
21
-142.61
0
LINE
8
BLACK
6
CONTINUOUS
10
145.423
20
-142.61
11
145.613
21
-142.705
0
LINE
8
BLACK
6
CONTINUOUS
10
145.613
20
-142.705
11
145.708
21
-142.8
0
LINE
8
BLACK
6
CONTINUOUS
10
145.708
20
-142.8
11
145.804
21
-142.991
0
LINE
8
BLACK
6
CONTINUOUS
10
145.804
20
-142.991
11
145.899
21
-143.372
0
LINE
8
BLACK
6
CONTINUOUS
10
145.899
20
-143.372
11
145.899
21
-143.848
0
LINE
8
BLACK
6
CONTINUOUS
10
145.899
20
-143.848
11
145.804
21
-144.229
0
LINE
8
BLACK
6
CONTINUOUS
10
145.804
20
-144.229
11
145.708
21
-144.419
0
LINE
8
BLACK
6
CONTINUOUS
10
145.708
20
-144.419
11
145.613
21
-144.515
0
LINE
8
BLACK
6
CONTINUOUS
10
145.613
20
-144.515
11
145.423
21
-144.61
0
LINE
8
BLACK
6
CONTINUOUS
10
145.423
20
-144.61
11
145.232
21
-144.61
0
LINE
8
BLACK
6
CONTINUOUS
10
145.232
20
-144.61
11
145.042
21
-144.515
0
LINE
8
BLACK
6
CONTINUOUS
10
145.042
20
-144.515
11
144.946
21
-144.419
0
LINE
8
BLACK
6
CONTINUOUS
10
144.946
20
-144.419
11
144.851
21
-144.229
0
LINE
8
BLACK
6
CONTINUOUS
10
144.851
20
-144.229
11
144.756
21
-143.848
0
LINE
8
BLACK
6
CONTINUOUS
10
144.756
20
-143.848
11
144.756
21
-143.372
0
LINE
8
BLACK
6
CONTINUOUS
10
144.756
20
-143.372
11
144.851
21
-142.991
0
LINE
8
BLACK
6
CONTINUOUS
10
144.851
20
-142.991
11
144.946
21
-142.8
0
LINE
8
BLACK
6
CONTINUOUS
10
144.946
20
-142.8
11
145.042
21
-142.705
0
LINE
8
BLACK
6
CONTINUOUS
10
145.042
20
-142.705
11
145.232
21
-142.61
0
LINE
8
BLACK
6
CONTINUOUS
10
146.756
20
-144.419
11
146.851
21
-144.515
0
LINE
8
BLACK
6
CONTINUOUS
10
146.851
20
-144.515
11
146.756
21
-144.61
0
LINE
8
BLACK
6
CONTINUOUS
10
146.756
20
-144.61
11
146.661
21
-144.515
0
LINE
8
BLACK
6
CONTINUOUS
10
146.661
20
-144.515
11
146.756
21
-144.419
0
LINE
8
BLACK
6
CONTINUOUS
10
146.756
20
-144.419
11
146.756
21
-144.61
0
LINE
8
BLACK
6
CONTINUOUS
10
148.756
20
-144.61
11
147.613
21
-144.61
0
LINE
8
BLACK
6
CONTINUOUS
10
148.185
20
-144.61
11
148.185
21
-142.61
0
LINE
8
BLACK
6
CONTINUOUS
10
148.185
20
-142.61
11
147.994
21
-142.895
0
LINE
8
BLACK
6
CONTINUOUS
10
147.994
20
-142.895
11
147.804
21
-143.086
0
LINE
8
BLACK
6
CONTINUOUS
10
147.804
20
-143.086
11
147.613
21
-143.181
0
LINE
8
BLACK
6
CONTINUOUS
10
149.518
20
-142.8
11
149.613
21
-142.705
0
LINE
8
BLACK
6
CONTINUOUS
10
149.613
20
-142.705
11
149.804
21
-142.61
0
LINE
8
BLACK
6
CONTINUOUS
10
149.804
20
-142.61
11
150.28
21
-142.61
0
LINE
8
BLACK
6
CONTINUOUS
10
150.28
20
-142.61
11
150.47
21
-142.705
0
LINE
8
BLACK
6
CONTINUOUS
10
150.47
20
-142.705
11
150.565
21
-142.8
0
LINE
8
BLACK
6
CONTINUOUS
10
150.565
20
-142.8
11
150.661
21
-142.991
0
LINE
8
BLACK
6
CONTINUOUS
10
150.661
20
-142.991
11
150.661
21
-143.181
0
LINE
8
BLACK
6
CONTINUOUS
10
150.661
20
-143.181
11
150.565
21
-143.467
0
LINE
8
BLACK
6
CONTINUOUS
10
150.565
20
-143.467
11
149.423
21
-144.61
0
LINE
8
BLACK
6
CONTINUOUS
10
149.423
20
-144.61
11
150.661
21
-144.61
0
LINE
8
BLACK
6
CONTINUOUS
10
152.375
20
-142.61
11
151.994
21
-142.61
0
LINE
8
BLACK
6
CONTINUOUS
10
151.994
20
-142.61
11
151.804
21
-142.705
0
LINE
8
BLACK
6
CONTINUOUS
10
151.804
20
-142.705
11
151.708
21
-142.8
0
LINE
8
BLACK
6
CONTINUOUS
10
151.708
20
-142.8
11
151.518
21
-143.086
0
LINE
8
BLACK
6
CONTINUOUS
10
151.518
20
-143.086
11
151.423
21
-143.467
0
LINE
8
BLACK
6
CONTINUOUS
10
151.423
20
-143.467
11
151.423
21
-144.229
0
LINE
8
BLACK
6
CONTINUOUS
10
151.423
20
-144.229
11
151.518
21
-144.419
0
LINE
8
BLACK
6
CONTINUOUS
10
151.518
20
-144.419
11
151.613
21
-144.515
0
LINE
8
BLACK
6
CONTINUOUS
10
151.613
20
-144.515
11
151.804
21
-144.61
0
LINE
8
BLACK
6
CONTINUOUS
10
151.804
20
-144.61
11
152.185
21
-144.61
0
LINE
8
BLACK
6
CONTINUOUS
10
152.185
20
-144.61
11
152.375
21
-144.515
0
LINE
8
BLACK
6
CONTINUOUS
10
152.375
20
-144.515
11
152.47
21
-144.419
0
LINE
8
BLACK
6
CONTINUOUS
10
152.47
20
-144.419
11
152.565
21
-144.229
0
LINE
8
BLACK
6
CONTINUOUS
10
152.565
20
-144.229
11
152.565
21
-143.753
0
LINE
8
BLACK
6
CONTINUOUS
10
152.565
20
-143.753
11
152.47
21
-143.562
0
LINE
8
BLACK
6
CONTINUOUS
10
152.47
20
-143.562
11
152.375
21
-143.467
0
LINE
8
BLACK
6
CONTINUOUS
10
152.375
20
-143.467
11
152.185
21
-143.372
0
LINE
8
BLACK
6
CONTINUOUS
10
152.185
20
-143.372
11
151.804
21
-143.372
0
LINE
8
BLACK
6
CONTINUOUS
10
151.804
20
-143.372
11
151.613
21
-143.467
0
LINE
8
BLACK
6
CONTINUOUS
10
151.613
20
-143.467
11
151.518
21
-143.562
0
LINE
8
BLACK
6
CONTINUOUS
10
151.518
20
-143.562
11
151.423
21
-143.753
0
LINE
8
BLACK
6
CONTINUOUS
10
153.804
20
-142.61
11
153.994
21
-142.61
0
LINE
8
BLACK
6
CONTINUOUS
10
153.994
20
-142.61
11
154.185
21
-142.705
0
LINE
8
BLACK
6
CONTINUOUS
10
154.185
20
-142.705
11
154.28
21
-142.8
0
LINE
8
BLACK
6
CONTINUOUS
10
154.28
20
-142.8
11
154.375
21
-142.991
0
LINE
8
BLACK
6
CONTINUOUS
10
154.375
20
-142.991
11
154.47
21
-143.372
0
LINE
8
BLACK
6
CONTINUOUS
10
154.47
20
-143.372
11
154.47
21
-143.848
0
LINE
8
BLACK
6
CONTINUOUS
10
154.47
20
-143.848
11
154.375
21
-144.229
0
LINE
8
BLACK
6
CONTINUOUS
10
154.375
20
-144.229
11
154.28
21
-144.419
0
LINE
8
BLACK
6
CONTINUOUS
10
154.28
20
-144.419
11
154.185
21
-144.515
0
LINE
8
BLACK
6
CONTINUOUS
10
154.185
20
-144.515
11
153.994
21
-144.61
0
LINE
8
BLACK
6
CONTINUOUS
10
153.994
20
-144.61
11
153.804
21
-144.61
0
LINE
8
BLACK
6
CONTINUOUS
10
153.804
20
-144.61
11
153.613
21
-144.515
0
LINE
8
BLACK
6
CONTINUOUS
10
153.613
20
-144.515
11
153.518
21
-144.419
0
LINE
8
BLACK
6
CONTINUOUS
10
153.518
20
-144.419
11
153.423
21
-144.229
0
LINE
8
BLACK
6
CONTINUOUS
10
153.423
20
-144.229
11
153.327
21
-143.848
0
LINE
8
BLACK
6
CONTINUOUS
10
153.327
20
-143.848
11
153.327
21
-143.372
0
LINE
8
BLACK
6
CONTINUOUS
10
153.327
20
-143.372
11
153.423
21
-142.991
0
LINE
8
BLACK
6
CONTINUOUS
10
153.423
20
-142.991
11
153.518
21
-142.8
0
LINE
8
BLACK
6
CONTINUOUS
10
153.518
20
-142.8
11
153.613
21
-142.705
0
LINE
8
BLACK
6
CONTINUOUS
10
153.613
20
-142.705
11
153.804
21
-142.61
0
LINE
8
BLACK
6
CONTINUOUS
10
155.232
20
-142.61
11
155.232
21
-142.991
0
LINE
8
BLACK
6
CONTINUOUS
10
155.994
20
-142.61
11
155.994
21
-142.991
0
LINE
8
BLACK
6
CONTINUOUS
10
158.623
20
-145.372
11
158.527
21
-145.276
0
LINE
8
BLACK
6
CONTINUOUS
10
158.527
20
-145.276
11
158.337
21
-144.991
0
LINE
8
BLACK
6
CONTINUOUS
10
158.337
20
-144.991
11
158.242
21
-144.8
0
LINE
8
BLACK
6
CONTINUOUS
10
158.242
20
-144.8
11
158.146
21
-144.515
0
LINE
8
BLACK
6
CONTINUOUS
10
158.146
20
-144.515
11
158.051
21
-144.038
0
LINE
8
BLACK
6
CONTINUOUS
10
158.051
20
-144.038
11
158.051
21
-143.657
0
LINE
8
BLACK
6
CONTINUOUS
10
158.051
20
-143.657
11
158.146
21
-143.181
0
LINE
8
BLACK
6
CONTINUOUS
10
158.146
20
-143.181
11
158.242
21
-142.895
0
LINE
8
BLACK
6
CONTINUOUS
10
158.242
20
-142.895
11
158.337
21
-142.705
0
LINE
8
BLACK
6
CONTINUOUS
10
158.337
20
-142.705
11
158.527
21
-142.419
0
LINE
8
BLACK
6
CONTINUOUS
10
158.527
20
-142.419
11
158.623
21
-142.324
0
LINE
8
BLACK
6
CONTINUOUS
10
160.242
20
-143.276
11
160.242
21
-144.61
0
LINE
8
BLACK
6
CONTINUOUS
10
159.765
20
-142.515
11
159.289
21
-143.943
0
LINE
8
BLACK
6
CONTINUOUS
10
159.289
20
-143.943
11
160.527
21
-143.943
0
LINE
8
BLACK
6
CONTINUOUS
10
162.489
20
-144.61
11
162.489
21
-142.61
0
LINE
8
BLACK
6
CONTINUOUS
10
163.346
20
-144.61
11
163.346
21
-143.562
0
LINE
8
BLACK
6
CONTINUOUS
10
163.346
20
-143.562
11
163.251
21
-143.372
0
LINE
8
BLACK
6
CONTINUOUS
10
163.251
20
-143.372
11
163.061
21
-143.276
0
LINE
8
BLACK
6
CONTINUOUS
10
163.061
20
-143.276
11
162.775
21
-143.276
0
LINE
8
BLACK
6
CONTINUOUS
10
162.775
20
-143.276
11
162.585
21
-143.372
0
LINE
8
BLACK
6
CONTINUOUS
10
162.585
20
-143.372
11
162.489
21
-143.467
0
LINE
8
BLACK
6
CONTINUOUS
10
164.585
20
-144.61
11
164.394
21
-144.515
0
LINE
8
BLACK
6
CONTINUOUS
10
164.394
20
-144.515
11
164.299
21
-144.419
0
LINE
8
BLACK
6
CONTINUOUS
10
164.299
20
-144.419
11
164.204
21
-144.229
0
LINE
8
BLACK
6
CONTINUOUS
10
164.204
20
-144.229
11
164.204
21
-143.657
0
LINE
8
BLACK
6
CONTINUOUS
10
164.204
20
-143.657
11
164.299
21
-143.467
0
LINE
8
BLACK
6
CONTINUOUS
10
164.299
20
-143.467
11
164.394
21
-143.372
0
LINE
8
BLACK
6
CONTINUOUS
10
164.394
20
-143.372
11
164.585
21
-143.276
0
LINE
8
BLACK
6
CONTINUOUS
10
164.585
20
-143.276
11
164.87
21
-143.276
0
LINE
8
BLACK
6
CONTINUOUS
10
164.87
20
-143.276
11
165.061
21
-143.372
0
LINE
8
BLACK
6
CONTINUOUS
10
165.061
20
-143.372
11
165.156
21
-143.467
0
LINE
8
BLACK
6
CONTINUOUS
10
165.156
20
-143.467
11
165.251
21
-143.657
0
LINE
8
BLACK
6
CONTINUOUS
10
165.251
20
-143.657
11
165.251
21
-144.229
0
LINE
8
BLACK
6
CONTINUOUS
10
165.251
20
-144.229
11
165.156
21
-144.419
0
LINE
8
BLACK
6
CONTINUOUS
10
165.156
20
-144.419
11
165.061
21
-144.515
0
LINE
8
BLACK
6
CONTINUOUS
10
165.061
20
-144.515
11
164.87
21
-144.61
0
LINE
8
BLACK
6
CONTINUOUS
10
164.87
20
-144.61
11
164.585
21
-144.61
0
LINE
8
BLACK
6
CONTINUOUS
10
166.394
20
-144.61
11
166.204
21
-144.515
0
LINE
8
BLACK
6
CONTINUOUS
10
166.204
20
-144.515
11
166.108
21
-144.324
0
LINE
8
BLACK
6
CONTINUOUS
10
166.108
20
-144.324
11
166.108
21
-142.61
0
LINE
8
BLACK
6
CONTINUOUS
10
167.918
20
-144.515
11
167.727
21
-144.61
0
LINE
8
BLACK
6
CONTINUOUS
10
167.727
20
-144.61
11
167.346
21
-144.61
0
LINE
8
BLACK
6
CONTINUOUS
10
167.346
20
-144.61
11
167.156
21
-144.515
0
LINE
8
BLACK
6
CONTINUOUS
10
167.156
20
-144.515
11
167.061
21
-144.324
0
LINE
8
BLACK
6
CONTINUOUS
10
167.061
20
-144.324
11
167.061
21
-143.562
0
LINE
8
BLACK
6
CONTINUOUS
10
167.061
20
-143.562
11
167.156
21
-143.372
0
LINE
8
BLACK
6
CONTINUOUS
10
167.156
20
-143.372
11
167.346
21
-143.276
0
LINE
8
BLACK
6
CONTINUOUS
10
167.346
20
-143.276
11
167.727
21
-143.276
0
LINE
8
BLACK
6
CONTINUOUS
10
167.727
20
-143.276
11
167.918
21
-143.372
0
LINE
8
BLACK
6
CONTINUOUS
10
167.918
20
-143.372
11
168.013
21
-143.562
0
LINE
8
BLACK
6
CONTINUOUS
10
168.013
20
-143.562
11
168.013
21
-143.753
0
LINE
8
BLACK
6
CONTINUOUS
10
168.013
20
-143.753
11
167.061
21
-143.943
0
LINE
8
BLACK
6
CONTINUOUS
10
168.775
20
-144.515
11
168.965
21
-144.61
0
LINE
8
BLACK
6
CONTINUOUS
10
168.965
20
-144.61
11
169.346
21
-144.61
0
LINE
8
BLACK
6
CONTINUOUS
10
169.346
20
-144.61
11
169.537
21
-144.515
0
LINE
8
BLACK
6
CONTINUOUS
10
169.537
20
-144.515
11
169.632
21
-144.324
0
LINE
8
BLACK
6
CONTINUOUS
10
169.632
20
-144.324
11
169.632
21
-144.229
0
LINE
8
BLACK
6
CONTINUOUS
10
169.632
20
-144.229
11
169.537
21
-144.038
0
LINE
8
BLACK
6
CONTINUOUS
10
169.537
20
-144.038
11
169.346
21
-143.943
0
LINE
8
BLACK
6
CONTINUOUS
10
169.346
20
-143.943
11
169.061
21
-143.943
0
LINE
8
BLACK
6
CONTINUOUS
10
169.061
20
-143.943
11
168.87
21
-143.848
0
LINE
8
BLACK
6
CONTINUOUS
10
168.87
20
-143.848
11
168.775
21
-143.657
0
LINE
8
BLACK
6
CONTINUOUS
10
168.775
20
-143.657
11
168.775
21
-143.562
0
LINE
8
BLACK
6
CONTINUOUS
10
168.775
20
-143.562
11
168.87
21
-143.372
0
LINE
8
BLACK
6
CONTINUOUS
10
168.87
20
-143.372
11
169.061
21
-143.276
0
LINE
8
BLACK
6
CONTINUOUS
10
169.061
20
-143.276
11
169.346
21
-143.276
0
LINE
8
BLACK
6
CONTINUOUS
10
169.346
20
-143.276
11
169.537
21
-143.372
0
LINE
8
BLACK
6
CONTINUOUS
10
170.299
20
-145.372
11
170.394
21
-145.276
0
LINE
8
BLACK
6
CONTINUOUS
10
170.394
20
-145.276
11
170.585
21
-144.991
0
LINE
8
BLACK
6
CONTINUOUS
10
170.585
20
-144.991
11
170.68
21
-144.8
0
LINE
8
BLACK
6
CONTINUOUS
10
170.68
20
-144.8
11
170.775
21
-144.515
0
LINE
8
BLACK
6
CONTINUOUS
10
170.775
20
-144.515
11
170.87
21
-144.038
0
LINE
8
BLACK
6
CONTINUOUS
10
170.87
20
-144.038
11
170.87
21
-143.657
0
LINE
8
BLACK
6
CONTINUOUS
10
170.87
20
-143.657
11
170.775
21
-143.181
0
LINE
8
BLACK
6
CONTINUOUS
10
170.775
20
-143.181
11
170.68
21
-142.895
0
LINE
8
BLACK
6
CONTINUOUS
10
170.68
20
-142.895
11
170.585
21
-142.705
0
LINE
8
BLACK
6
CONTINUOUS
10
170.585
20
-142.705
11
170.394
21
-142.419
0
LINE
8
BLACK
6
CONTINUOUS
10
170.394
20
-142.419
11
170.299
21
-142.324
  0
ENDSEC
  0
EOF
