  0
SECTION
  2
HEADER
  9
$ANGBASE
  50
0.0
  9
$ANGDIR
  70
1
  9
$MEASUREMENT
  70
1
  0
ENDSEC
  0
SECTION
  2
TABLES
  0
TABLE
  2
LTYPE
  70
4
  0
LTYPE
  5
40F
  2
CONTINUOUS
  70
0
  3
Solid line
  72
65
  73
0
  40
0.0
  0
LTYPE
  5
410
  2
DASHDOT
 70
0
  3
Dash Dot ____ _ ____ _
 72
65
 73
4
 40
2.0
 49
1.25
 49
-0.25
 49
0.25
 49
-0.25
  0
LTYPE
  5
411
  2
DASHED
 70
0
  3
Dashed __ __ __ __ __
 72
65
 73
2
 40
0.75
 49
0.5
 49
-0.25
  0
LTYPE
  5
43B
  2
DOTTED
 70
0
  3
Dotted .  .  .  .
 72
65
 73
2
 40
0.2
 49
0.0
 49
-0.2
  0
ENDTAB
  0
TABLE
  2
STYLE
  70
4
  0
STYLE
  2
KICAD
  70
0
  40
0
  41
1
  42
1
  50
0
  71
0
  3
isocp.shx
  0
STYLE
  2
KICADB
  70
0
  40
0
  41
1
  42
1
  50
0
  71
0
  3
isocp.shx
  0
STYLE
  2
KICADI
  70
0
  40
0
  41
1
  42
1
  50
15
  71
0
  3
isocp.shx
  0
STYLE
  2
KICADBI
  70
0
  40
0
  41
1
  42
1
  50
15
  71
0
  3
isocp.shx
  0
ENDTAB
  0
TABLE
  2
LAYER
  70
1
  0
LAYER
  2
BLACK
  70
0
  62
7
  6
CONTINUOUS
  0
ENDTAB
  0
ENDSEC
  0
SECTION
  2
ENTITIES
0
LINE
8
BLACK
6
CONTINUOUS
10
201
20
-93.25
11
201
21
-102
0
LINE
8
BLACK
6
CONTINUOUS
10
124
20
-93.25
11
124
21
-71
0
LINE
8
BLACK
6
CONTINUOUS
10
124
20
-71
11
201
21
-71
0
LINE
8
BLACK
6
CONTINUOUS
10
201
20
-102
11
194.75
21
-102
0
LINE
8
BLACK
6
CONTINUOUS
10
124
20
-102
11
130
21
-102
0
LINE
8
BLACK
6
CONTINUOUS
10
201
20
-71
11
201
21
-93.25
0
LINE
8
BLACK
6
CONTINUOUS
10
130
20
-102
11
130
21
-124.25
0
LINE
8
BLACK
6
CONTINUOUS
10
194.75
20
-124.25
11
130
21
-124.25
0
LINE
8
BLACK
6
CONTINUOUS
10
194.75
20
-102
11
194.75
21
-124.25
0
LINE
8
BLACK
6
CONTINUOUS
10
124
20
-102
11
124
21
-93.25
0
LINE
8
BLACK
6
CONTINUOUS
10
197.125
20
-90.65
11
198.325
21
-91.85
0
LINE
8
BLACK
6
CONTINUOUS
10
198.325
20
-90.65
11
197.125
21
-91.85
0
LINE
8
BLACK
6
CONTINUOUS
10
126.451
20
-127.21
11
126.451
21
-125.21
0
LINE
8
BLACK
6
CONTINUOUS
10
126.451
20
-125.21
11
126.927
21
-125.21
0
LINE
8
BLACK
6
CONTINUOUS
10
126.927
20
-125.21
11
127.213
21
-125.305
0
LINE
8
BLACK
6
CONTINUOUS
10
127.213
20
-125.305
11
127.404
21
-125.495
0
LINE
8
BLACK
6
CONTINUOUS
10
127.404
20
-125.495
11
127.499
21
-125.686
0
LINE
8
BLACK
6
CONTINUOUS
10
127.499
20
-125.686
11
127.594
21
-126.067
0
LINE
8
BLACK
6
CONTINUOUS
10
127.594
20
-126.067
11
127.594
21
-126.353
0
LINE
8
BLACK
6
CONTINUOUS
10
127.594
20
-126.353
11
127.499
21
-126.734
0
LINE
8
BLACK
6
CONTINUOUS
10
127.499
20
-126.734
11
127.404
21
-126.924
0
LINE
8
BLACK
6
CONTINUOUS
10
127.404
20
-126.924
11
127.213
21
-127.115
0
LINE
8
BLACK
6
CONTINUOUS
10
127.213
20
-127.115
11
126.927
21
-127.21
0
LINE
8
BLACK
6
CONTINUOUS
10
126.927
20
-127.21
11
126.451
21
-127.21
0
LINE
8
BLACK
6
CONTINUOUS
10
128.451
20
-127.21
11
128.451
21
-125.876
0
LINE
8
BLACK
6
CONTINUOUS
10
128.451
20
-126.257
11
128.546
21
-126.067
0
LINE
8
BLACK
6
CONTINUOUS
10
128.546
20
-126.067
11
128.642
21
-125.972
0
LINE
8
BLACK
6
CONTINUOUS
10
128.642
20
-125.972
11
128.832
21
-125.876
0
LINE
8
BLACK
6
CONTINUOUS
10
128.832
20
-125.876
11
129.023
21
-125.876
0
LINE
8
BLACK
6
CONTINUOUS
10
129.689
20
-127.21
11
129.689
21
-125.876
0
LINE
8
BLACK
6
CONTINUOUS
10
129.689
20
-125.21
11
129.594
21
-125.305
0
LINE
8
BLACK
6
CONTINUOUS
10
129.594
20
-125.305
11
129.689
21
-125.4
0
LINE
8
BLACK
6
CONTINUOUS
10
129.689
20
-125.4
11
129.785
21
-125.305
0
LINE
8
BLACK
6
CONTINUOUS
10
129.785
20
-125.305
11
129.689
21
-125.21
0
LINE
8
BLACK
6
CONTINUOUS
10
129.689
20
-125.21
11
129.689
21
-125.4
0
LINE
8
BLACK
6
CONTINUOUS
10
130.927
20
-127.21
11
130.737
21
-127.115
0
LINE
8
BLACK
6
CONTINUOUS
10
130.737
20
-127.115
11
130.642
21
-126.924
0
LINE
8
BLACK
6
CONTINUOUS
10
130.642
20
-126.924
11
130.642
21
-125.21
0
LINE
8
BLACK
6
CONTINUOUS
10
131.975
20
-127.21
11
131.785
21
-127.115
0
LINE
8
BLACK
6
CONTINUOUS
10
131.785
20
-127.115
11
131.689
21
-126.924
0
LINE
8
BLACK
6
CONTINUOUS
10
131.689
20
-126.924
11
131.689
21
-125.21
0
LINE
8
BLACK
6
CONTINUOUS
10
133.937
20
-127.21
11
133.937
21
-125.21
0
LINE
8
BLACK
6
CONTINUOUS
10
133.937
20
-125.21
11
134.604
21
-126.638
0
LINE
8
BLACK
6
CONTINUOUS
10
134.604
20
-126.638
11
135.27
21
-125.21
0
LINE
8
BLACK
6
CONTINUOUS
10
135.27
20
-125.21
11
135.27
21
-127.21
0
LINE
8
BLACK
6
CONTINUOUS
10
137.08
20
-127.21
11
137.08
21
-126.162
0
LINE
8
BLACK
6
CONTINUOUS
10
137.08
20
-126.162
11
136.985
21
-125.972
0
LINE
8
BLACK
6
CONTINUOUS
10
136.985
20
-125.972
11
136.794
21
-125.876
0
LINE
8
BLACK
6
CONTINUOUS
10
136.794
20
-125.876
11
136.413
21
-125.876
0
LINE
8
BLACK
6
CONTINUOUS
10
136.413
20
-125.876
11
136.223
21
-125.972
0
LINE
8
BLACK
6
CONTINUOUS
10
137.08
20
-127.115
11
136.889
21
-127.21
0
LINE
8
BLACK
6
CONTINUOUS
10
136.889
20
-127.21
11
136.413
21
-127.21
0
LINE
8
BLACK
6
CONTINUOUS
10
136.413
20
-127.21
11
136.223
21
-127.115
0
LINE
8
BLACK
6
CONTINUOUS
10
136.223
20
-127.115
11
136.127
21
-126.924
0
LINE
8
BLACK
6
CONTINUOUS
10
136.127
20
-126.924
11
136.127
21
-126.734
0
LINE
8
BLACK
6
CONTINUOUS
10
136.127
20
-126.734
11
136.223
21
-126.543
0
LINE
8
BLACK
6
CONTINUOUS
10
136.223
20
-126.543
11
136.413
21
-126.448
0
LINE
8
BLACK
6
CONTINUOUS
10
136.413
20
-126.448
11
136.889
21
-126.448
0
LINE
8
BLACK
6
CONTINUOUS
10
136.889
20
-126.448
11
137.08
21
-126.353
0
LINE
8
BLACK
6
CONTINUOUS
10
138.032
20
-125.876
11
138.032
21
-127.876
0
LINE
8
BLACK
6
CONTINUOUS
10
138.032
20
-125.972
11
138.223
21
-125.876
0
LINE
8
BLACK
6
CONTINUOUS
10
138.223
20
-125.876
11
138.604
21
-125.876
0
LINE
8
BLACK
6
CONTINUOUS
10
138.604
20
-125.876
11
138.794
21
-125.972
0
LINE
8
BLACK
6
CONTINUOUS
10
138.794
20
-125.972
11
138.889
21
-126.067
0
LINE
8
BLACK
6
CONTINUOUS
10
138.889
20
-126.067
11
138.985
21
-126.257
0
LINE
8
BLACK
6
CONTINUOUS
10
138.985
20
-126.257
11
138.985
21
-126.829
0
LINE
8
BLACK
6
CONTINUOUS
10
138.985
20
-126.829
11
138.889
21
-127.019
0
LINE
8
BLACK
6
CONTINUOUS
10
138.889
20
-127.019
11
138.794
21
-127.115
0
LINE
8
BLACK
6
CONTINUOUS
10
138.794
20
-127.115
11
138.604
21
-127.21
0
LINE
8
BLACK
6
CONTINUOUS
10
138.604
20
-127.21
11
138.223
21
-127.21
0
LINE
8
BLACK
6
CONTINUOUS
10
138.223
20
-127.21
11
138.032
21
-127.115
0
LINE
8
BLACK
6
CONTINUOUS
10
139.842
20
-127.019
11
139.937
21
-127.115
0
LINE
8
BLACK
6
CONTINUOUS
10
139.937
20
-127.115
11
139.842
21
-127.21
0
LINE
8
BLACK
6
CONTINUOUS
10
139.842
20
-127.21
11
139.746
21
-127.115
0
LINE
8
BLACK
6
CONTINUOUS
10
139.746
20
-127.115
11
139.842
21
-127.019
0
LINE
8
BLACK
6
CONTINUOUS
10
139.842
20
-127.019
11
139.842
21
-127.21
0
LINE
8
BLACK
6
CONTINUOUS
10
139.842
20
-125.972
11
139.937
21
-126.067
0
LINE
8
BLACK
6
CONTINUOUS
10
139.937
20
-126.067
11
139.842
21
-126.162
0
LINE
8
BLACK
6
CONTINUOUS
10
139.842
20
-126.162
11
139.746
21
-126.067
0
LINE
8
BLACK
6
CONTINUOUS
10
139.746
20
-126.067
11
139.842
21
-125.972
0
LINE
8
BLACK
6
CONTINUOUS
10
139.842
20
-125.972
11
139.842
21
-126.162
0
LINE
8
BLACK
6
CONTINUOUS
10
122.775
20
-130.075
11
123.975
21
-131.275
0
LINE
8
BLACK
6
CONTINUOUS
10
123.975
20
-130.075
11
122.775
21
-131.275
0
LINE
8
BLACK
6
CONTINUOUS
10
127.499
20
-131.41
11
126.356
21
-131.41
0
LINE
8
BLACK
6
CONTINUOUS
10
126.927
20
-131.41
11
126.927
21
-129.41
0
LINE
8
BLACK
6
CONTINUOUS
10
126.927
20
-129.41
11
126.737
21
-129.695
0
LINE
8
BLACK
6
CONTINUOUS
10
126.737
20
-129.695
11
126.546
21
-129.886
0
LINE
8
BLACK
6
CONTINUOUS
10
126.546
20
-129.886
11
126.356
21
-129.981
0
LINE
8
BLACK
6
CONTINUOUS
10
128.356
20
-131.219
11
128.451
21
-131.315
0
LINE
8
BLACK
6
CONTINUOUS
10
128.451
20
-131.315
11
128.356
21
-131.41
0
LINE
8
BLACK
6
CONTINUOUS
10
128.356
20
-131.41
11
128.261
21
-131.315
0
LINE
8
BLACK
6
CONTINUOUS
10
128.261
20
-131.315
11
128.356
21
-131.219
0
LINE
8
BLACK
6
CONTINUOUS
10
128.356
20
-131.219
11
128.356
21
-131.41
0
LINE
8
BLACK
6
CONTINUOUS
10
129.213
20
-129.6
11
129.308
21
-129.505
0
LINE
8
BLACK
6
CONTINUOUS
10
129.308
20
-129.505
11
129.499
21
-129.41
0
LINE
8
BLACK
6
CONTINUOUS
10
129.499
20
-129.41
11
129.975
21
-129.41
0
LINE
8
BLACK
6
CONTINUOUS
10
129.975
20
-129.41
11
130.165
21
-129.505
0
LINE
8
BLACK
6
CONTINUOUS
10
130.165
20
-129.505
11
130.261
21
-129.6
0
LINE
8
BLACK
6
CONTINUOUS
10
130.261
20
-129.6
11
130.356
21
-129.791
0
LINE
8
BLACK
6
CONTINUOUS
10
130.356
20
-129.791
11
130.356
21
-129.981
0
LINE
8
BLACK
6
CONTINUOUS
10
130.356
20
-129.981
11
130.261
21
-130.267
0
LINE
8
BLACK
6
CONTINUOUS
10
130.261
20
-130.267
11
129.118
21
-131.41
0
LINE
8
BLACK
6
CONTINUOUS
10
129.118
20
-131.41
11
130.356
21
-131.41
0
LINE
8
BLACK
6
CONTINUOUS
10
131.594
20
-129.41
11
131.785
21
-129.41
0
LINE
8
BLACK
6
CONTINUOUS
10
131.785
20
-129.41
11
131.975
21
-129.505
0
LINE
8
BLACK
6
CONTINUOUS
10
131.975
20
-129.505
11
132.07
21
-129.6
0
LINE
8
BLACK
6
CONTINUOUS
10
132.07
20
-129.6
11
132.165
21
-129.791
0
LINE
8
BLACK
6
CONTINUOUS
10
132.165
20
-129.791
11
132.261
21
-130.172
0
LINE
8
BLACK
6
CONTINUOUS
10
132.261
20
-130.172
11
132.261
21
-130.648
0
LINE
8
BLACK
6
CONTINUOUS
10
132.261
20
-130.648
11
132.165
21
-131.029
0
LINE
8
BLACK
6
CONTINUOUS
10
132.165
20
-131.029
11
132.07
21
-131.219
0
LINE
8
BLACK
6
CONTINUOUS
10
132.07
20
-131.219
11
131.975
21
-131.315
0
LINE
8
BLACK
6
CONTINUOUS
10
131.975
20
-131.315
11
131.785
21
-131.41
0
LINE
8
BLACK
6
CONTINUOUS
10
131.785
20
-131.41
11
131.594
21
-131.41
0
LINE
8
BLACK
6
CONTINUOUS
10
131.594
20
-131.41
11
131.404
21
-131.315
0
LINE
8
BLACK
6
CONTINUOUS
10
131.404
20
-131.315
11
131.308
21
-131.219
0
LINE
8
BLACK
6
CONTINUOUS
10
131.308
20
-131.219
11
131.213
21
-131.029
0
LINE
8
BLACK
6
CONTINUOUS
10
131.213
20
-131.029
11
131.118
21
-130.648
0
LINE
8
BLACK
6
CONTINUOUS
10
131.118
20
-130.648
11
131.118
21
-130.172
0
LINE
8
BLACK
6
CONTINUOUS
10
131.118
20
-130.172
11
131.213
21
-129.791
0
LINE
8
BLACK
6
CONTINUOUS
10
131.213
20
-129.791
11
131.308
21
-129.6
0
LINE
8
BLACK
6
CONTINUOUS
10
131.308
20
-129.6
11
131.404
21
-129.505
0
LINE
8
BLACK
6
CONTINUOUS
10
131.404
20
-129.505
11
131.594
21
-129.41
0
LINE
8
BLACK
6
CONTINUOUS
10
133.499
20
-129.41
11
133.689
21
-129.41
0
LINE
8
BLACK
6
CONTINUOUS
10
133.689
20
-129.41
11
133.88
21
-129.505
0
LINE
8
BLACK
6
CONTINUOUS
10
133.88
20
-129.505
11
133.975
21
-129.6
0
LINE
8
BLACK
6
CONTINUOUS
10
133.975
20
-129.6
11
134.07
21
-129.791
0
LINE
8
BLACK
6
CONTINUOUS
10
134.07
20
-129.791
11
134.165
21
-130.172
0
LINE
8
BLACK
6
CONTINUOUS
10
134.165
20
-130.172
11
134.165
21
-130.648
0
LINE
8
BLACK
6
CONTINUOUS
10
134.165
20
-130.648
11
134.07
21
-131.029
0
LINE
8
BLACK
6
CONTINUOUS
10
134.07
20
-131.029
11
133.975
21
-131.219
0
LINE
8
BLACK
6
CONTINUOUS
10
133.975
20
-131.219
11
133.88
21
-131.315
0
LINE
8
BLACK
6
CONTINUOUS
10
133.88
20
-131.315
11
133.689
21
-131.41
0
LINE
8
BLACK
6
CONTINUOUS
10
133.689
20
-131.41
11
133.499
21
-131.41
0
LINE
8
BLACK
6
CONTINUOUS
10
133.499
20
-131.41
11
133.308
21
-131.315
0
LINE
8
BLACK
6
CONTINUOUS
10
133.308
20
-131.315
11
133.213
21
-131.219
0
LINE
8
BLACK
6
CONTINUOUS
10
133.213
20
-131.219
11
133.118
21
-131.029
0
LINE
8
BLACK
6
CONTINUOUS
10
133.118
20
-131.029
11
133.023
21
-130.648
0
LINE
8
BLACK
6
CONTINUOUS
10
133.023
20
-130.648
11
133.023
21
-130.172
0
LINE
8
BLACK
6
CONTINUOUS
10
133.023
20
-130.172
11
133.118
21
-129.791
0
LINE
8
BLACK
6
CONTINUOUS
10
133.118
20
-129.791
11
133.213
21
-129.6
0
LINE
8
BLACK
6
CONTINUOUS
10
133.213
20
-129.6
11
133.308
21
-129.505
0
LINE
8
BLACK
6
CONTINUOUS
10
133.308
20
-129.505
11
133.499
21
-129.41
0
LINE
8
BLACK
6
CONTINUOUS
10
135.023
20
-131.41
11
135.023
21
-130.076
0
LINE
8
BLACK
6
CONTINUOUS
10
135.023
20
-130.267
11
135.118
21
-130.172
0
LINE
8
BLACK
6
CONTINUOUS
10
135.118
20
-130.172
11
135.308
21
-130.076
0
LINE
8
BLACK
6
CONTINUOUS
10
135.308
20
-130.076
11
135.594
21
-130.076
0
LINE
8
BLACK
6
CONTINUOUS
10
135.594
20
-130.076
11
135.785
21
-130.172
0
LINE
8
BLACK
6
CONTINUOUS
10
135.785
20
-130.172
11
135.88
21
-130.362
0
LINE
8
BLACK
6
CONTINUOUS
10
135.88
20
-130.362
11
135.88
21
-131.41
0
LINE
8
BLACK
6
CONTINUOUS
10
135.88
20
-130.362
11
135.975
21
-130.172
0
LINE
8
BLACK
6
CONTINUOUS
10
135.975
20
-130.172
11
136.165
21
-130.076
0
LINE
8
BLACK
6
CONTINUOUS
10
136.165
20
-130.076
11
136.451
21
-130.076
0
LINE
8
BLACK
6
CONTINUOUS
10
136.451
20
-130.076
11
136.642
21
-130.172
0
LINE
8
BLACK
6
CONTINUOUS
10
136.642
20
-130.172
11
136.737
21
-130.362
0
LINE
8
BLACK
6
CONTINUOUS
10
136.737
20
-130.362
11
136.737
21
-131.41
0
LINE
8
BLACK
6
CONTINUOUS
10
137.689
20
-131.41
11
137.689
21
-130.076
0
LINE
8
BLACK
6
CONTINUOUS
10
137.689
20
-130.267
11
137.785
21
-130.172
0
LINE
8
BLACK
6
CONTINUOUS
10
137.785
20
-130.172
11
137.975
21
-130.076
0
LINE
8
BLACK
6
CONTINUOUS
10
137.975
20
-130.076
11
138.261
21
-130.076
0
LINE
8
BLACK
6
CONTINUOUS
10
138.261
20
-130.076
11
138.451
21
-130.172
0
LINE
8
BLACK
6
CONTINUOUS
10
138.451
20
-130.172
11
138.546
21
-130.362
0
LINE
8
BLACK
6
CONTINUOUS
10
138.546
20
-130.362
11
138.546
21
-131.41
0
LINE
8
BLACK
6
CONTINUOUS
10
138.546
20
-130.362
11
138.642
21
-130.172
0
LINE
8
BLACK
6
CONTINUOUS
10
138.642
20
-130.172
11
138.832
21
-130.076
0
LINE
8
BLACK
6
CONTINUOUS
10
138.832
20
-130.076
11
139.118
21
-130.076
0
LINE
8
BLACK
6
CONTINUOUS
10
139.118
20
-130.076
11
139.308
21
-130.172
0
LINE
8
BLACK
6
CONTINUOUS
10
139.308
20
-130.172
11
139.404
21
-130.362
0
LINE
8
BLACK
6
CONTINUOUS
10
139.404
20
-130.362
11
139.404
21
-131.41
0
LINE
8
BLACK
6
CONTINUOUS
10
142.985
20
-129.315
11
141.27
21
-131.886
0
LINE
8
BLACK
6
CONTINUOUS
10
145.232
20
-129.41
11
145.423
21
-129.41
0
LINE
8
BLACK
6
CONTINUOUS
10
145.423
20
-129.41
11
145.613
21
-129.505
0
LINE
8
BLACK
6
CONTINUOUS
10
145.613
20
-129.505
11
145.708
21
-129.6
0
LINE
8
BLACK
6
CONTINUOUS
10
145.708
20
-129.6
11
145.804
21
-129.791
0
LINE
8
BLACK
6
CONTINUOUS
10
145.804
20
-129.791
11
145.899
21
-130.172
0
LINE
8
BLACK
6
CONTINUOUS
10
145.899
20
-130.172
11
145.899
21
-130.648
0
LINE
8
BLACK
6
CONTINUOUS
10
145.899
20
-130.648
11
145.804
21
-131.029
0
LINE
8
BLACK
6
CONTINUOUS
10
145.804
20
-131.029
11
145.708
21
-131.219
0
LINE
8
BLACK
6
CONTINUOUS
10
145.708
20
-131.219
11
145.613
21
-131.315
0
LINE
8
BLACK
6
CONTINUOUS
10
145.613
20
-131.315
11
145.423
21
-131.41
0
LINE
8
BLACK
6
CONTINUOUS
10
145.423
20
-131.41
11
145.232
21
-131.41
0
LINE
8
BLACK
6
CONTINUOUS
10
145.232
20
-131.41
11
145.042
21
-131.315
0
LINE
8
BLACK
6
CONTINUOUS
10
145.042
20
-131.315
11
144.946
21
-131.219
0
LINE
8
BLACK
6
CONTINUOUS
10
144.946
20
-131.219
11
144.851
21
-131.029
0
LINE
8
BLACK
6
CONTINUOUS
10
144.851
20
-131.029
11
144.756
21
-130.648
0
LINE
8
BLACK
6
CONTINUOUS
10
144.756
20
-130.648
11
144.756
21
-130.172
0
LINE
8
BLACK
6
CONTINUOUS
10
144.756
20
-130.172
11
144.851
21
-129.791
0
LINE
8
BLACK
6
CONTINUOUS
10
144.851
20
-129.791
11
144.946
21
-129.6
0
LINE
8
BLACK
6
CONTINUOUS
10
144.946
20
-129.6
11
145.042
21
-129.505
0
LINE
8
BLACK
6
CONTINUOUS
10
145.042
20
-129.505
11
145.232
21
-129.41
0
LINE
8
BLACK
6
CONTINUOUS
10
146.756
20
-131.219
11
146.851
21
-131.315
0
LINE
8
BLACK
6
CONTINUOUS
10
146.851
20
-131.315
11
146.756
21
-131.41
0
LINE
8
BLACK
6
CONTINUOUS
10
146.756
20
-131.41
11
146.661
21
-131.315
0
LINE
8
BLACK
6
CONTINUOUS
10
146.661
20
-131.315
11
146.756
21
-131.219
0
LINE
8
BLACK
6
CONTINUOUS
10
146.756
20
-131.219
11
146.756
21
-131.41
0
LINE
8
BLACK
6
CONTINUOUS
10
148.089
20
-129.41
11
148.28
21
-129.41
0
LINE
8
BLACK
6
CONTINUOUS
10
148.28
20
-129.41
11
148.47
21
-129.505
0
LINE
8
BLACK
6
CONTINUOUS
10
148.47
20
-129.505
11
148.565
21
-129.6
0
LINE
8
BLACK
6
CONTINUOUS
10
148.565
20
-129.6
11
148.661
21
-129.791
0
LINE
8
BLACK
6
CONTINUOUS
10
148.661
20
-129.791
11
148.756
21
-130.172
0
LINE
8
BLACK
6
CONTINUOUS
10
148.756
20
-130.172
11
148.756
21
-130.648
0
LINE
8
BLACK
6
CONTINUOUS
10
148.756
20
-130.648
11
148.661
21
-131.029
0
LINE
8
BLACK
6
CONTINUOUS
10
148.661
20
-131.029
11
148.565
21
-131.219
0
LINE
8
BLACK
6
CONTINUOUS
10
148.565
20
-131.219
11
148.47
21
-131.315
0
LINE
8
BLACK
6
CONTINUOUS
10
148.47
20
-131.315
11
148.28
21
-131.41
0
LINE
8
BLACK
6
CONTINUOUS
10
148.28
20
-131.41
11
148.089
21
-131.41
0
LINE
8
BLACK
6
CONTINUOUS
10
148.089
20
-131.41
11
147.899
21
-131.315
0
LINE
8
BLACK
6
CONTINUOUS
10
147.899
20
-131.315
11
147.804
21
-131.219
0
LINE
8
BLACK
6
CONTINUOUS
10
147.804
20
-131.219
11
147.708
21
-131.029
0
LINE
8
BLACK
6
CONTINUOUS
10
147.708
20
-131.029
11
147.613
21
-130.648
0
LINE
8
BLACK
6
CONTINUOUS
10
147.613
20
-130.648
11
147.613
21
-130.172
0
LINE
8
BLACK
6
CONTINUOUS
10
147.613
20
-130.172
11
147.708
21
-129.791
0
LINE
8
BLACK
6
CONTINUOUS
10
147.708
20
-129.791
11
147.804
21
-129.6
0
LINE
8
BLACK
6
CONTINUOUS
10
147.804
20
-129.6
11
147.899
21
-129.505
0
LINE
8
BLACK
6
CONTINUOUS
10
147.899
20
-129.505
11
148.089
21
-129.41
0
LINE
8
BLACK
6
CONTINUOUS
10
150.47
20
-130.076
11
150.47
21
-131.41
0
LINE
8
BLACK
6
CONTINUOUS
10
149.994
20
-129.315
11
149.518
21
-130.743
0
LINE
8
BLACK
6
CONTINUOUS
10
149.518
20
-130.743
11
150.756
21
-130.743
0
LINE
8
BLACK
6
CONTINUOUS
10
151.327
20
-129.41
11
152.661
21
-129.41
0
LINE
8
BLACK
6
CONTINUOUS
10
152.661
20
-129.41
11
151.804
21
-131.41
0
LINE
8
BLACK
6
CONTINUOUS
10
153.327
20
-129.6
11
153.423
21
-129.505
0
LINE
8
BLACK
6
CONTINUOUS
10
153.423
20
-129.505
11
153.613
21
-129.41
0
LINE
8
BLACK
6
CONTINUOUS
10
153.613
20
-129.41
11
154.089
21
-129.41
0
LINE
8
BLACK
6
CONTINUOUS
10
154.089
20
-129.41
11
154.28
21
-129.505
0
LINE
8
BLACK
6
CONTINUOUS
10
154.28
20
-129.505
11
154.375
21
-129.6
0
LINE
8
BLACK
6
CONTINUOUS
10
154.375
20
-129.6
11
154.47
21
-129.791
0
LINE
8
BLACK
6
CONTINUOUS
10
154.47
20
-129.791
11
154.47
21
-129.981
0
LINE
8
BLACK
6
CONTINUOUS
10
154.47
20
-129.981
11
154.375
21
-130.267
0
LINE
8
BLACK
6
CONTINUOUS
10
154.375
20
-130.267
11
153.232
21
-131.41
0
LINE
8
BLACK
6
CONTINUOUS
10
153.232
20
-131.41
11
154.47
21
-131.41
0
LINE
8
BLACK
6
CONTINUOUS
10
155.232
20
-129.41
11
155.232
21
-129.791
0
LINE
8
BLACK
6
CONTINUOUS
10
155.994
20
-129.41
11
155.994
21
-129.791
0
LINE
8
BLACK
6
CONTINUOUS
10
158.623
20
-132.172
11
158.527
21
-132.076
0
LINE
8
BLACK
6
CONTINUOUS
10
158.527
20
-132.076
11
158.337
21
-131.791
0
LINE
8
BLACK
6
CONTINUOUS
10
158.337
20
-131.791
11
158.242
21
-131.6
0
LINE
8
BLACK
6
CONTINUOUS
10
158.242
20
-131.6
11
158.146
21
-131.315
0
LINE
8
BLACK
6
CONTINUOUS
10
158.146
20
-131.315
11
158.051
21
-130.838
0
LINE
8
BLACK
6
CONTINUOUS
10
158.051
20
-130.838
11
158.051
21
-130.457
0
LINE
8
BLACK
6
CONTINUOUS
10
158.051
20
-130.457
11
158.146
21
-129.981
0
LINE
8
BLACK
6
CONTINUOUS
10
158.146
20
-129.981
11
158.242
21
-129.695
0
LINE
8
BLACK
6
CONTINUOUS
10
158.242
20
-129.695
11
158.337
21
-129.505
0
LINE
8
BLACK
6
CONTINUOUS
10
158.337
20
-129.505
11
158.527
21
-129.219
0
LINE
8
BLACK
6
CONTINUOUS
10
158.527
20
-129.219
11
158.623
21
-129.124
0
LINE
8
BLACK
6
CONTINUOUS
10
160.432
20
-131.41
11
159.289
21
-131.41
0
LINE
8
BLACK
6
CONTINUOUS
10
159.861
20
-131.41
11
159.861
21
-129.41
0
LINE
8
BLACK
6
CONTINUOUS
10
159.861
20
-129.41
11
159.67
21
-129.695
0
LINE
8
BLACK
6
CONTINUOUS
10
159.67
20
-129.695
11
159.48
21
-129.886
0
LINE
8
BLACK
6
CONTINUOUS
10
159.48
20
-129.886
11
159.289
21
-129.981
0
LINE
8
BLACK
6
CONTINUOUS
10
162.489
20
-131.41
11
162.489
21
-129.41
0
LINE
8
BLACK
6
CONTINUOUS
10
163.346
20
-131.41
11
163.346
21
-130.362
0
LINE
8
BLACK
6
CONTINUOUS
10
163.346
20
-130.362
11
163.251
21
-130.172
0
LINE
8
BLACK
6
CONTINUOUS
10
163.251
20
-130.172
11
163.061
21
-130.076
0
LINE
8
BLACK
6
CONTINUOUS
10
163.061
20
-130.076
11
162.775
21
-130.076
0
LINE
8
BLACK
6
CONTINUOUS
10
162.775
20
-130.076
11
162.585
21
-130.172
0
LINE
8
BLACK
6
CONTINUOUS
10
162.585
20
-130.172
11
162.489
21
-130.267
0
LINE
8
BLACK
6
CONTINUOUS
10
164.585
20
-131.41
11
164.394
21
-131.315
0
LINE
8
BLACK
6
CONTINUOUS
10
164.394
20
-131.315
11
164.299
21
-131.219
0
LINE
8
BLACK
6
CONTINUOUS
10
164.299
20
-131.219
11
164.204
21
-131.029
0
LINE
8
BLACK
6
CONTINUOUS
10
164.204
20
-131.029
11
164.204
21
-130.457
0
LINE
8
BLACK
6
CONTINUOUS
10
164.204
20
-130.457
11
164.299
21
-130.267
0
LINE
8
BLACK
6
CONTINUOUS
10
164.299
20
-130.267
11
164.394
21
-130.172
0
LINE
8
BLACK
6
CONTINUOUS
10
164.394
20
-130.172
11
164.585
21
-130.076
0
LINE
8
BLACK
6
CONTINUOUS
10
164.585
20
-130.076
11
164.87
21
-130.076
0
LINE
8
BLACK
6
CONTINUOUS
10
164.87
20
-130.076
11
165.061
21
-130.172
0
LINE
8
BLACK
6
CONTINUOUS
10
165.061
20
-130.172
11
165.156
21
-130.267
0
LINE
8
BLACK
6
CONTINUOUS
10
165.156
20
-130.267
11
165.251
21
-130.457
0
LINE
8
BLACK
6
CONTINUOUS
10
165.251
20
-130.457
11
165.251
21
-131.029
0
LINE
8
BLACK
6
CONTINUOUS
10
165.251
20
-131.029
11
165.156
21
-131.219
0
LINE
8
BLACK
6
CONTINUOUS
10
165.156
20
-131.219
11
165.061
21
-131.315
0
LINE
8
BLACK
6
CONTINUOUS
10
165.061
20
-131.315
11
164.87
21
-131.41
0
LINE
8
BLACK
6
CONTINUOUS
10
164.87
20
-131.41
11
164.585
21
-131.41
0
LINE
8
BLACK
6
CONTINUOUS
10
166.394
20
-131.41
11
166.204
21
-131.315
0
LINE
8
BLACK
6
CONTINUOUS
10
166.204
20
-131.315
11
166.108
21
-131.124
0
LINE
8
BLACK
6
CONTINUOUS
10
166.108
20
-131.124
11
166.108
21
-129.41
0
LINE
8
BLACK
6
CONTINUOUS
10
167.918
20
-131.315
11
167.727
21
-131.41
0
LINE
8
BLACK
6
CONTINUOUS
10
167.727
20
-131.41
11
167.346
21
-131.41
0
LINE
8
BLACK
6
CONTINUOUS
10
167.346
20
-131.41
11
167.156
21
-131.315
0
LINE
8
BLACK
6
CONTINUOUS
10
167.156
20
-131.315
11
167.061
21
-131.124
0
LINE
8
BLACK
6
CONTINUOUS
10
167.061
20
-131.124
11
167.061
21
-130.362
0
LINE
8
BLACK
6
CONTINUOUS
10
167.061
20
-130.362
11
167.156
21
-130.172
0
LINE
8
BLACK
6
CONTINUOUS
10
167.156
20
-130.172
11
167.346
21
-130.076
0
LINE
8
BLACK
6
CONTINUOUS
10
167.346
20
-130.076
11
167.727
21
-130.076
0
LINE
8
BLACK
6
CONTINUOUS
10
167.727
20
-130.076
11
167.918
21
-130.172
0
LINE
8
BLACK
6
CONTINUOUS
10
167.918
20
-130.172
11
168.013
21
-130.362
0
LINE
8
BLACK
6
CONTINUOUS
10
168.013
20
-130.362
11
168.013
21
-130.553
0
LINE
8
BLACK
6
CONTINUOUS
10
168.013
20
-130.553
11
167.061
21
-130.743
0
LINE
8
BLACK
6
CONTINUOUS
10
168.68
20
-132.172
11
168.775
21
-132.076
0
LINE
8
BLACK
6
CONTINUOUS
10
168.775
20
-132.076
11
168.965
21
-131.791
0
LINE
8
BLACK
6
CONTINUOUS
10
168.965
20
-131.791
11
169.061
21
-131.6
0
LINE
8
BLACK
6
CONTINUOUS
10
169.061
20
-131.6
11
169.156
21
-131.315
0
LINE
8
BLACK
6
CONTINUOUS
10
169.156
20
-131.315
11
169.251
21
-130.838
0
LINE
8
BLACK
6
CONTINUOUS
10
169.251
20
-130.838
11
169.251
21
-130.457
0
LINE
8
BLACK
6
CONTINUOUS
10
169.251
20
-130.457
11
169.156
21
-129.981
0
LINE
8
BLACK
6
CONTINUOUS
10
169.156
20
-129.981
11
169.061
21
-129.695
0
LINE
8
BLACK
6
CONTINUOUS
10
169.061
20
-129.695
11
168.965
21
-129.505
0
LINE
8
BLACK
6
CONTINUOUS
10
168.965
20
-129.505
11
168.775
21
-129.219
0
LINE
8
BLACK
6
CONTINUOUS
10
168.775
20
-129.219
11
168.68
21
-129.124
0
LINE
8
BLACK
6
CONTINUOUS
10
171.975
20
-132.172
11
171.88
21
-132.076
0
LINE
8
BLACK
6
CONTINUOUS
10
171.88
20
-132.076
11
171.689
21
-131.791
0
LINE
8
BLACK
6
CONTINUOUS
10
171.689
20
-131.791
11
171.594
21
-131.6
0
LINE
8
BLACK
6
CONTINUOUS
10
171.594
20
-131.6
11
171.499
21
-131.315
0
LINE
8
BLACK
6
CONTINUOUS
10
171.499
20
-131.315
11
171.404
21
-130.838
0
LINE
8
BLACK
6
CONTINUOUS
10
171.404
20
-130.838
11
171.404
21
-130.457
0
LINE
8
BLACK
6
CONTINUOUS
10
171.404
20
-130.457
11
171.499
21
-129.981
0
LINE
8
BLACK
6
CONTINUOUS
10
171.499
20
-129.981
11
171.594
21
-129.695
0
LINE
8
BLACK
6
CONTINUOUS
10
171.594
20
-129.695
11
171.689
21
-129.505
0
LINE
8
BLACK
6
CONTINUOUS
10
171.689
20
-129.505
11
171.88
21
-129.219
0
LINE
8
BLACK
6
CONTINUOUS
10
171.88
20
-129.219
11
171.975
21
-129.124
0
LINE
8
BLACK
6
CONTINUOUS
10
172.737
20
-130.076
11
172.737
21
-131.41
0
LINE
8
BLACK
6
CONTINUOUS
10
172.737
20
-130.267
11
172.832
21
-130.172
0
LINE
8
BLACK
6
CONTINUOUS
10
172.832
20
-130.172
11
173.023
21
-130.076
0
LINE
8
BLACK
6
CONTINUOUS
10
173.023
20
-130.076
11
173.308
21
-130.076
0
LINE
8
BLACK
6
CONTINUOUS
10
173.308
20
-130.076
11
173.499
21
-130.172
0
LINE
8
BLACK
6
CONTINUOUS
10
173.499
20
-130.172
11
173.594
21
-130.362
0
LINE
8
BLACK
6
CONTINUOUS
10
173.594
20
-130.362
11
173.594
21
-131.41
0
LINE
8
BLACK
6
CONTINUOUS
10
174.832
20
-131.41
11
174.642
21
-131.315
0
LINE
8
BLACK
6
CONTINUOUS
10
174.642
20
-131.315
11
174.546
21
-131.219
0
LINE
8
BLACK
6
CONTINUOUS
10
174.546
20
-131.219
11
174.451
21
-131.029
0
LINE
8
BLACK
6
CONTINUOUS
10
174.451
20
-131.029
11
174.451
21
-130.457
0
LINE
8
BLACK
6
CONTINUOUS
10
174.451
20
-130.457
11
174.546
21
-130.267
0
LINE
8
BLACK
6
CONTINUOUS
10
174.546
20
-130.267
11
174.642
21
-130.172
0
LINE
8
BLACK
6
CONTINUOUS
10
174.642
20
-130.172
11
174.832
21
-130.076
0
LINE
8
BLACK
6
CONTINUOUS
10
174.832
20
-130.076
11
175.118
21
-130.076
0
LINE
8
BLACK
6
CONTINUOUS
10
175.118
20
-130.076
11
175.308
21
-130.172
0
LINE
8
BLACK
6
CONTINUOUS
10
175.308
20
-130.172
11
175.404
21
-130.267
0
LINE
8
BLACK
6
CONTINUOUS
10
175.404
20
-130.267
11
175.499
21
-130.457
0
LINE
8
BLACK
6
CONTINUOUS
10
175.499
20
-130.457
11
175.499
21
-131.029
0
LINE
8
BLACK
6
CONTINUOUS
10
175.499
20
-131.029
11
175.404
21
-131.219
0
LINE
8
BLACK
6
CONTINUOUS
10
175.404
20
-131.219
11
175.308
21
-131.315
0
LINE
8
BLACK
6
CONTINUOUS
10
175.308
20
-131.315
11
175.118
21
-131.41
0
LINE
8
BLACK
6
CONTINUOUS
10
175.118
20
-131.41
11
174.832
21
-131.41
0
LINE
8
BLACK
6
CONTINUOUS
10
176.07
20
-130.076
11
176.832
21
-130.076
0
LINE
8
BLACK
6
CONTINUOUS
10
176.356
20
-129.41
11
176.356
21
-131.124
0
LINE
8
BLACK
6
CONTINUOUS
10
176.356
20
-131.124
11
176.451
21
-131.315
0
LINE
8
BLACK
6
CONTINUOUS
10
176.451
20
-131.315
11
176.642
21
-131.41
0
LINE
8
BLACK
6
CONTINUOUS
10
176.642
20
-131.41
11
176.832
21
-131.41
0
LINE
8
BLACK
6
CONTINUOUS
10
178.699
20
-130.076
11
178.699
21
-132.076
0
LINE
8
BLACK
6
CONTINUOUS
10
178.699
20
-130.172
11
178.889
21
-130.076
0
LINE
8
BLACK
6
CONTINUOUS
10
178.889
20
-130.076
11
179.27
21
-130.076
0
LINE
8
BLACK
6
CONTINUOUS
10
179.27
20
-130.076
11
179.461
21
-130.172
0
LINE
8
BLACK
6
CONTINUOUS
10
179.461
20
-130.172
11
179.556
21
-130.267
0
LINE
8
BLACK
6
CONTINUOUS
10
179.556
20
-130.267
11
179.651
21
-130.457
0
LINE
8
BLACK
6
CONTINUOUS
10
179.651
20
-130.457
11
179.651
21
-131.029
0
LINE
8
BLACK
6
CONTINUOUS
10
179.651
20
-131.029
11
179.556
21
-131.219
0
LINE
8
BLACK
6
CONTINUOUS
10
179.556
20
-131.219
11
179.461
21
-131.315
0
LINE
8
BLACK
6
CONTINUOUS
10
179.461
20
-131.315
11
179.27
21
-131.41
0
LINE
8
BLACK
6
CONTINUOUS
10
179.27
20
-131.41
11
178.889
21
-131.41
0
LINE
8
BLACK
6
CONTINUOUS
10
178.889
20
-131.41
11
178.699
21
-131.315
0
LINE
8
BLACK
6
CONTINUOUS
10
180.794
20
-131.41
11
180.604
21
-131.315
0
LINE
8
BLACK
6
CONTINUOUS
10
180.604
20
-131.315
11
180.508
21
-131.124
0
LINE
8
BLACK
6
CONTINUOUS
10
180.508
20
-131.124
11
180.508
21
-129.41
0
LINE
8
BLACK
6
CONTINUOUS
10
182.413
20
-131.41
11
182.413
21
-130.362
0
LINE
8
BLACK
6
CONTINUOUS
10
182.413
20
-130.362
11
182.318
21
-130.172
0
LINE
8
BLACK
6
CONTINUOUS
10
182.318
20
-130.172
11
182.127
21
-130.076
0
LINE
8
BLACK
6
CONTINUOUS
10
182.127
20
-130.076
11
181.746
21
-130.076
0
LINE
8
BLACK
6
CONTINUOUS
10
181.746
20
-130.076
11
181.556
21
-130.172
0
LINE
8
BLACK
6
CONTINUOUS
10
182.413
20
-131.315
11
182.223
21
-131.41
0
LINE
8
BLACK
6
CONTINUOUS
10
182.223
20
-131.41
11
181.746
21
-131.41
0
LINE
8
BLACK
6
CONTINUOUS
10
181.746
20
-131.41
11
181.556
21
-131.315
0
LINE
8
BLACK
6
CONTINUOUS
10
181.556
20
-131.315
11
181.461
21
-131.124
0
LINE
8
BLACK
6
CONTINUOUS
10
181.461
20
-131.124
11
181.461
21
-130.934
0
LINE
8
BLACK
6
CONTINUOUS
10
181.461
20
-130.934
11
181.556
21
-130.743
0
LINE
8
BLACK
6
CONTINUOUS
10
181.556
20
-130.743
11
181.746
21
-130.648
0
LINE
8
BLACK
6
CONTINUOUS
10
181.746
20
-130.648
11
182.223
21
-130.648
0
LINE
8
BLACK
6
CONTINUOUS
10
182.223
20
-130.648
11
182.413
21
-130.553
0
LINE
8
BLACK
6
CONTINUOUS
10
183.08
20
-130.076
11
183.842
21
-130.076
0
LINE
8
BLACK
6
CONTINUOUS
10
183.365
20
-129.41
11
183.365
21
-131.124
0
LINE
8
BLACK
6
CONTINUOUS
10
183.365
20
-131.124
11
183.461
21
-131.315
0
LINE
8
BLACK
6
CONTINUOUS
10
183.461
20
-131.315
11
183.651
21
-131.41
0
LINE
8
BLACK
6
CONTINUOUS
10
183.651
20
-131.41
11
183.842
21
-131.41
0
LINE
8
BLACK
6
CONTINUOUS
10
185.27
20
-131.315
11
185.08
21
-131.41
0
LINE
8
BLACK
6
CONTINUOUS
10
185.08
20
-131.41
11
184.699
21
-131.41
0
LINE
8
BLACK
6
CONTINUOUS
10
184.699
20
-131.41
11
184.508
21
-131.315
0
LINE
8
BLACK
6
CONTINUOUS
10
184.508
20
-131.315
11
184.413
21
-131.124
0
LINE
8
BLACK
6
CONTINUOUS
10
184.413
20
-131.124
11
184.413
21
-130.362
0
LINE
8
BLACK
6
CONTINUOUS
10
184.413
20
-130.362
11
184.508
21
-130.172
0
LINE
8
BLACK
6
CONTINUOUS
10
184.508
20
-130.172
11
184.699
21
-130.076
0
LINE
8
BLACK
6
CONTINUOUS
10
184.699
20
-130.076
11
185.08
21
-130.076
0
LINE
8
BLACK
6
CONTINUOUS
10
185.08
20
-130.076
11
185.27
21
-130.172
0
LINE
8
BLACK
6
CONTINUOUS
10
185.27
20
-130.172
11
185.365
21
-130.362
0
LINE
8
BLACK
6
CONTINUOUS
10
185.365
20
-130.362
11
185.365
21
-130.553
0
LINE
8
BLACK
6
CONTINUOUS
10
185.365
20
-130.553
11
184.413
21
-130.743
0
LINE
8
BLACK
6
CONTINUOUS
10
187.08
20
-131.41
11
187.08
21
-129.41
0
LINE
8
BLACK
6
CONTINUOUS
10
187.08
20
-131.315
11
186.889
21
-131.41
0
LINE
8
BLACK
6
CONTINUOUS
10
186.889
20
-131.41
11
186.508
21
-131.41
0
LINE
8
BLACK
6
CONTINUOUS
10
186.508
20
-131.41
11
186.318
21
-131.315
0
LINE
8
BLACK
6
CONTINUOUS
10
186.318
20
-131.315
11
186.223
21
-131.219
0
LINE
8
BLACK
6
CONTINUOUS
10
186.223
20
-131.219
11
186.127
21
-131.029
0
LINE
8
BLACK
6
CONTINUOUS
10
186.127
20
-131.029
11
186.127
21
-130.457
0
LINE
8
BLACK
6
CONTINUOUS
10
186.127
20
-130.457
11
186.223
21
-130.267
0
LINE
8
BLACK
6
CONTINUOUS
10
186.223
20
-130.267
11
186.318
21
-130.172
0
LINE
8
BLACK
6
CONTINUOUS
10
186.318
20
-130.172
11
186.508
21
-130.076
0
LINE
8
BLACK
6
CONTINUOUS
10
186.508
20
-130.076
11
186.889
21
-130.076
0
LINE
8
BLACK
6
CONTINUOUS
10
186.889
20
-130.076
11
187.08
21
-130.172
0
LINE
8
BLACK
6
CONTINUOUS
10
187.842
20
-132.172
11
187.937
21
-132.076
0
LINE
8
BLACK
6
CONTINUOUS
10
187.937
20
-132.076
11
188.127
21
-131.791
0
LINE
8
BLACK
6
CONTINUOUS
10
188.127
20
-131.791
11
188.223
21
-131.6
0
LINE
8
BLACK
6
CONTINUOUS
10
188.223
20
-131.6
11
188.318
21
-131.315
0
LINE
8
BLACK
6
CONTINUOUS
10
188.318
20
-131.315
11
188.413
21
-130.838
0
LINE
8
BLACK
6
CONTINUOUS
10
188.413
20
-130.838
11
188.413
21
-130.457
0
LINE
8
BLACK
6
CONTINUOUS
10
188.413
20
-130.457
11
188.318
21
-129.981
0
LINE
8
BLACK
6
CONTINUOUS
10
188.318
20
-129.981
11
188.223
21
-129.695
0
LINE
8
BLACK
6
CONTINUOUS
10
188.223
20
-129.695
11
188.127
21
-129.505
0
LINE
8
BLACK
6
CONTINUOUS
10
188.127
20
-129.505
11
187.937
21
-129.219
0
LINE
8
BLACK
6
CONTINUOUS
10
187.937
20
-129.219
11
187.842
21
-129.124
  0
ENDSEC
  0
EOF
